<mxfile host="app.diagrams.net" agent="Mozilla/5.0 (Windows NT 10.0; Win64; x64) AppleWebKit/537.36 (KHTML, like Gecko) Chrome/130.0.0.0 Safari/537.36" version="24.7.17">
  <diagram name="Page-1" id="BE8jtEVmyr4-zipm8Jsr">
    <mxGraphModel dx="1617" dy="815" grid="1" gridSize="10" guides="1" tooltips="1" connect="1" arrows="1" fold="1" page="1" pageScale="1" pageWidth="850" pageHeight="1100" math="0" shadow="0">
      <root>
        <mxCell id="0" />
        <mxCell id="1" parent="0" />
        <mxCell id="zDpOJP-PcLw8HDTeHHac-1" value="" style="shape=image;verticalLabelPosition=bottom;labelBackgroundColor=default;verticalAlign=top;aspect=fixed;imageAspect=0;image=data:image/png,iVBORw0KGgoAAAANSUhEUgAABIEAAAJICAYAAAD2AfSHAAAAAXNSR0IArs4c6QAAAARnQU1BAACxjwv8YQUAAAAJcEhZcwAADsMAAA7DAcdvqGQAAP+lSURBVHhe7J0HmFRF1obPkIMgOecoOYiiYAZBxYQBwxpWVl1/XVc36AbXsKtrzmvOCQOoKCpGRDGAIlHJOecsOf39nu7CyzgDAzQz09Pf+zzN0LfvrXzr1vnuqaqMbdu2bTchhBBCCCGEEEIIUaAplPgrhBBCCCGEEEIIIQowEoGEEEIIIYQQQggh0gCJQEIIIYQQQgghhBBpgEQgIYQQQgghhBBCiDRAIpAQQgghhBBCCCFEGiARSAghhBBCCCGEECINkAgkhBBCCCGEEEIIkQZIBBJCCCGEEEIIIYRIAyQCCSGEEEIIIYQQQqQBEoGEEEIIIYQQQggh0gCJQEIIIYQQQgghhBBpgEQgIYQQQgghhBBCiDRAIpAQQgghhBBCCCFEGiARSAghhBBCCCGEECINkAgkhBBCCCGEEEIIkQZIBBJCCCGEEEIIIYRIAyQCCSGEEEIIIYQQQqQBEoGEEEIIIYQQQggh0gCJQEIIIYQQQgghhBBpgEQgIYQQQgghhBBCiDRAIpAQQgghhBBCCCFEGiARSAghhBBCCCGEECINkAgkhBBCCCGEEEIIkQZIBBJCCCGEEEIIIYRIAyQCCSGEEEIIIYQQQqQBEoGEEEIIIYQQQggh0gCJQEIIIYQQQgghhBBpgEQgIYQQQgghhBBCiDQgY9u2bdsT/08KGRkZif8JIYQQQgghhBBCFEy2b0+qnJIryBNICCGEEEIIIYQQIg2QCCSEEEIIIYQQQgiRBkgEEkIIIYQQQgghhEgDJAIJIYQQQgghhBBCpAEptTD05s2bbd26dbZ+/XpfgCmswVSoUIaVKlXKP0WKFIkfFEIIIYQQQgghhNhPpOLC0CkhAsXS6ALQ4sWLbdy4CTZ16jTbtGnTjgIvVqyYNW/ezA46qKlVqlTRihYt5sKQEEIIIYQQQgghxP5AIlCMZItAFOrSpUtt4MCBtn79ZqtXr7HVrl3fihcvljjDbMOGDTZ16iSbNWuaValS0bp27WKVK1dK/CqEEEIIIYQQQgiRXCQCxUimCIS4M2PGDBs6dJjVr9/MypevaKVKlbbixUtYoUK/LGeEp1B8mthaW7Bgni1aNNc6dz7cGjasr+lhQgghhBBCCCGESDoSgWIkSwRiute8efNtyJAhVrt2I6tVq56VKFFyl+FTAWvWrLaZM6fb/Pmz7KSTulvVqpUlBAkhhBBCCCGEECKppKIIlG93B2MK2Pjx461ixRpWv35jK1my1G4FJn4vW/ZAa9iwsZUrV8mGDfveVq1alfhVCCGEEEIIIYQQIn3JlyLQxo0bfRHoxYuXWuvW7a1IkaKJX3IGU8batj3Ypk+fZYsWLbVNmzYnfhFCCCGEEEIIIYRIT/KlCLR8+XJbvfpnq169tmVk7HkS8QgqWrSo1a3bwBYsWGQrVqxM/CKEEEIIIYQQQgiRnuRLEWjevHm2bNkKa9q0ReLInlOoUGFr06a9zZo1x5YsWZI4KoQQQgghhBBCCJGe5EsRaMuWLbZ161YrWrR44siegzdQyZIlfYFpwhNCCCGEEEIIIYRIZ/KlCMQK2yyyva8rbSMExcNJHBBCCCGEEEIIIYRIU/KlCBTY3W5gQgghhBBCCCGEECJn5EsRqHDhwlaoUCGfErYvbN682YoUKRwLL19rXUIIIYQQQgghhBD7nXypjpQtW9ZKly5pS5cuShzZc7Zt22bz58+18uXL2QEHlE4cFUIIIYQQQgghhEhP8qUIVL16datQoZxNnTox9m3vFvRhMeiffhpjdevWtkqVKieOCiGEEEIIIYQQQqQn+VIEOvDAA61MmQNs1arltmHDhj1eIBovoLVr19qKFUutatVKVrbsAYlfhBBCCCGEEEIIIdKTfLtYTp06daxDh3b2/vv9bNOmjYmjOWPFiuWx696yHj1OsMqVKyWOCiGEEEIIIYQQQqQvGdu2bUvqBurJ2tELb56VK1faqFGjbfr0WXbIIUdYhQqVdhk+18yZM8vGjRttDRvWt44dO1jp0qWtUCHtMiaEEEIIIYQQQojksaezlvID+VYEAtb1QQiaPHmKzZu30IoUKW7Vq9e2KlWqWdGiRRNnmW3atMnmzp1tCxfOi33bZrVr17CDDmpi5cod6LuMCSGEEEIIIYQQQiQTiUAxkikCAYXK+j4TJky01avX2ObN22zbNgSirS4QlS9f3uNE6ylSJMMqV65ojRs31o5gQgghhBBCCCGE2G9IBIqRbBEoyqpVq2zmzJk2b958W758uY0YMdI6dTrcSpUqbfXq1fV1hFhQWgghhBBCCCGEEGJ/IhEoxv4UgaIsWrTI+vXrZ71797ZSpUoljgohhBBCCCGEEELsf1JRBNKCOUIIIYQQQgghhBBpgEQgIYQQQgghhBBCiDRAIpAQQgghhBBCCCFEGiARSAghhBBCCCGEECINkAgkhBBCCCGEEEIIkQZIBBJCCCGEEEIIIYRIA/J0i/hNmzbZmjVrbMuWLYkjOWfJkiX23nvv2XnnnWclS5ZMHM05RYsWtbJly1qRIkUSR4QQQgghhBBCCCFyRipuEZ+nItDcuXPt22+/tcWLFyeO5Jyff/7Zxo4da4cccogLOntCoUKFrGrVqnbMMcdYxYoVE0eFEEIIIYQQQgghcoZEoBh7IgLF4nZvoL0puEWLFln//v3toosuslKlSiWO5hyEIMQj/gohhBBCCCGEEELsCRKBYuyJCLQvIAL169fPevfuvVcikBBCCCGEEEIIIcTekooikNxghBBCCCGEEEIIIdIAiUBCCCGEEEIIIYQQaYBEICGEEEIIIYQQQog0QCKQEEIIIYQQQgghRBogEUgIIYQQQgghhBAiDZAIJIQQQgghhBBCCJEGSAQSQgghhBBCCCGESAMkAgkhhBBCCCGEEEKkARKBhBBCCCGEEEIIIdIAiUBCCCGEEEIIIYQQaYBEICGEEEIIIYQQQog0QCKQEEIIIYQQQgghRBogEUgIIYQQQgghhBAiDZAIJIQQQgghhBBCCJEGSAQSQgghhBBCCCGESAMkAgkhhBBCCCGEEEKkARKBhBBCCCGEEEIIIdIAiUBCCCGEEEIIIYQQaUDKikDbt2+3rVu3+l8hhBBCCCGEEEIIsWtSUgRC/Fm1apWNHz/e1q1bZ9u2bUv8IoQQQgghhBBCCCGyImPbtm1JdaXJyMhI/G//gOfPtGnT7Ouvv7aqVava/Pnz7aSTTrJq1art97iFEEIIIYQQQgghIBVnJqWcCIQANGXKFCtdurQ1b97cRo8ebZs3b7ZWrVpZzZo1E2cJIcT+ZebMWTZ9+kxbtWp14ohIJWrXrmkNGtS3ChXKJ44IIVKRDRs2xMaCY2zx4mW2dSue4VomQORXMqxQoQwrVqyoHX54Rytbtkzse84mZdDOp0+f4eOOzZu3JI6Kgg5thbEKn+LFiyWO7hr6QWbMDB36nW3ZslUzZpJARkYhK1q0kHXocLBVqlTRChcunPgljkSgGPtTBJo7d65NnjzZO8y2bdvagQceaCtWrLDvv//eRaEmTZq4d5AQQuwveJgyEJs2bZatW7cxdkQeiKlIoULbrXLl8la/fl2rXr164qgQItVgDLho0YqYscNwlv5YIpDIr8THC9u2bbVy5UrFDMp2bsvsjjVr1tiMGTNt5sy5sWszYgZn4gdR4MGsZrxSt25Na9iwgR1wwAGJX7IH23jEiNG2atW62LVFEkfVaPae+H27ffvW2P1a0lq2bGFVq1bxYwGJQDH2lwi0bNkyGzt2rP//oIMO2mnQPnv2bJswYYKVKVPGvYPKlSuX+EUIIZILnof9+79jJUqUs3r1Gln58vIkSUVmz55pc+dOt9q1q1unTocnjgohUo2nnnomNvZrbzVr1rEiRYLBI0T+hBdJa9f+bB9++I6dc86ZVqvW7mcxzJo1y706KlasaY0aNVU7TyM2b95kU6ZMskWLZtkxxxxlderUSfySPXiqv/PO+3bCCadbqVKl9vssnXQAkWfjxo02ePCHdsQRh8WeOc0Sv8RJRREo3y8MTaHiAjlu3DjbtGmT1a3767e23BB8Vq9e7Z5CVJIQQuwP6JMWLVocMzhqSwBKYerUqWfFipXwN6xCiNSF6Q5FihSVYSxSAmYzlChRItZut+XYcMQO+vnntXbQQS3UztOMokWLWfPmrbz+c2rf0q5oXyVLlpQAlCQoR+5bfGcKyvS6fC8CsRPYpEmTbN68edagQQP/ZEWzZs18ceg5c+bY9OnTU1KRE0IIkXswGM/pegxCiPyJxnsiFaHdqumKnFKoUGFjXZqco8Yldk2+Hv0y7QLx58svv7SOHTta/fr1E79kTYsWLaxx48b27bff2qJFiwqMUieEEEIIIYQQQgixr+RbEWjLli2+/fuHH35o3bt3txo1auzWBbJo0aLWsGFD69Chg7377ru2fPly9yQSQgghhBBCCCGESHfypQiEBw87gY0YMcJ3AatXr57Pw8sJLIDFlDEWiP78889t6dKlchUWQgghhBBCCCFE2pMvRSDW9ZkyZYpvm9iuXTsrVqxY4pfdw8JNbJ/Xvn17F4R++uknnxomhBBCCCGEEEIIkc7kOxFo8eLFNm3aNPcGYlpX8eLF93hlc85HAOrcubPv/EJ4TA0TQgghhBBCCCGESFfylQj0888/29ixY30dn9atW7sn0N6CEMT2zQcffLCtWLHCJkyYYGvXrk38KoQQ+x/6sk2bNvoaZ5lhmiqL32/cuCFxJL4W2qZNm7I9n+1B16xZbatWrfL+jPNSdbrr5s2bbNmyZbZy5Yodi/iTp+XLl8X+/uzfhRAiGdAX03+uX7/eP2y5ncr95/6Afpj+lzEzz6b9BUVO2TPmX7VqpT/TqI+8WsOTtCxbttSfRVk9e1MN8sC4IrR12n3msuU4dU3Z52e4P7ds2RxrK2ti9RNvK+Qnrzb+iY9b4m0lr9KQDCjX0D529WH8mux8MsbNKq7oh/6Av6Gs86pvKOgUvvnmm29J/D8p7KnXToAKHjp0qDcOdviqU6dO4pd9AyGJDnHhwoXuFVS9enVtCSyE2Gvoq0aMGGm1azew0qUPSBzNGgZZ8+fP8wF12bJlE0fj8JBbuHCBzZs316pUqRbrO80WLVqQmL66faewiXPdurU2ffpU+/HHMTZlysTYQH157JpCVqxYcV80f2/73l1B38mHAUOy+03yPXDgO/63Xr0GPu33hx++iz0HvvayqVu3XuLM/ceCBXOtaNFC1rBhg8QRIUSqMXz4D1ajRp1YH5v9i0P6y9mzZ9mcObNt8eJFvl4kxiX9WuHChf3v/uhD8xv05YyzMezIbzTP69ats7fffsNmzZphFStW2mV57i3EjxG/ePFCGz16pP3001jvhzlWtGgxX/8zt8foS5cusXfffcvmzp1tNWvWtpIlSyV+2X9s27bVxo370Vq1ahGzU3YeG2QFL0xmz55jjRo1SxzJHsYVtHWerUuWLHYjGgoXLhQr23hbJ+4vvvjcRbiGDRv77/kN2ijtYsGC+TZmzMhYmsfG8jbfx1OMFxj75HZbmT9/rn3wwYDEuKW+pyG3mDJlvDVoUN8qVKiQOJI9CGYTJkyyFi1a/6pfi92CsTHWxti9N8Zt40WLwofxJ38X7TjGWIyyzum6vLtj27btsXHsNO9jfok3xP1LvKtXr4q13SX2+eefxO7LOVarFvdlyUQoecuUKROsTp1asXF7lcSR1CUjdpMl9TXI3jxEMXB+/PFHmzp1qnsAscMXD+VkgRHD2kCzZs2KdaCNfCt5IYTYGxhAP/nk09apUxcXb3bFgAFv28CBA6xt2/Z2xRV/TByNM3XqFHvrrddjBsww69PnbX/QPvfck7GB8Q929NFd7KyzzvPzGAh9//0we/75J2zixHGxh3HJ2KCxnA/YGeAdfvgRdvXVf9kvA7mPPx5okydPiPWZrey447oljiYHBiBPPvmIVa5cxdNfvnwF69u3TyyvQ619+0Ps/PMvTpy5/xg5cpiVKlXEjj++a+KIECLVePTRJ+zggzu7AZ8dH3zwrr3++ks2adIE70MZd27YsN7q129k5513UawPOGG/iB75DTwp6HfLlStv3bqdGDNmfhHbEQT++9+brUyZMtar12+sadPdCw57CgIFz8TXXnvJx+bVqlV3Lw/e+Ldv38HOPfciO+KIoxNn5w4YpA89dI9VrFjZLrnkMqtRo1bil/0HHiU8784//2w3KHfHpEmT7KuvvrXu3XsmjmTPM888bu+997Yb0+yajNi5efMWH4f83/9dYy1btrYvvhhkH330fqyOm8fGJlcnrsxfILT079/X3n33TRcPqlatbqtXr/S20qnTkbG2cqEdcshhibNzhwkTxtmzzz7uIunvf3+1VahQMfHL/ueDD960rl2PjdmxDRNHsmfGjJmx8eUAO/vsC34llDGmnD17tl100Rk+noWtW7fFPvEXfizDEujYsbOPxTp27JQ4sm8gPt10099syJDP/Dvxbdmy1dso8Ya01q1bP9ZO29rKlcu9rHv3vsL7ivzABx+8HeujOsbSt7OWQF5SjdyVULOABkhjHD16dKxAW7oHUDIFIOAtefAuQmyaN2+eDwCEEGJ/Qv/288+r3a01M7wJxLuHNx7h4YFRgos8b7/i3zfY2LGj7b77/usP7t///o92550P2i233GG33XZP7O+d/vaUAd7+eADxhnTWrJk+6Eo2DOoYCAdPI+D/vOVT/yyESCZMa2AsiPH40ENP2v/+97Tdeuu9VqZMWfvwwwH29ddfJs4s2NDHzpo13b1eMj+X2FSFlxUXX3xpbLxcN3E0uXzzzZCYAfi5C/333vtIzCC8zW6//X67444H7Mwzz88TQw9x4Q9/+LNdeGFvq1SpcuJo6sI4olSp0taz59n28MNP2QMPPGHXX/8vF1Vef/0Vmzhxgo8n4s/a/Dv9bdCgj/0lWadOR9k99/zPbrzxVm8ntJdTTjnTKleumjgz90CcuPLKa+2CCy75lXd3qoCzRrVq1WL94FP26KPP+efaa6+35s1bW+3adXcc48N90axZ8hwnihUrGhvHXrUj/Ntuu8+6dTvJx7rXX3/jjuM33XS7XXRRb7vqqj/Fyrp3ropt6USeTgejA8IV7euvv3YPILZ231/uXrxlZ7FoOr6RI0dajRo18sTtVAiR2iBQ5HQ62PjxP7n3Dm8W8diJgrDy44+jfTDOm2gMFAY8TB9r0KBRrE9s6yLM888/ZZMmTbRzzrnAunQ5wX+rUqWqeyHVrFnLqlev4QP24sVLxvrf+LQHwuFt69dff+FvvmM9sxs79IOITF99NdjPI26Mny+++MymTp3s51WtGvduwl2cQdiECT/522PSwlQ04uZN+uTJE2N5G+9TK/jLm/Zp06a4i+wBB5TxN75Dh35jH3/8Xiy+L9zTkz4XQ6NIkaL+lpJ0UoaHHdbZXfAJf968OV5ebdq083TAnDmz3Hj49NOP7LvvvnVhCm8oBrr04aSFN3SkhfySFvLDm13ynR2aDiZE6pOT6WD0w0xDwFsIL5fq1Wt6/7lgwTw3ilk6IPPb7tDvfPZZ6Hdm7NTvAB6ZU6ZMsg8/fM+nLtCn0QcxFj7wwPLerzPWZQrvJ5986H3t6NEjfF03jEjCCowZM8qn/NJ30hfiqTFq1AibOXOae0pG+zJeFIwa9YPni/6WfpR+mr6Yfpt48KqcOXO6p4F00/cPG/aNh8sUIb4THx5AlSoxtSHDw1u/fl0sbeV2jMcJl6m6iGX05fS1vL2nzJgOQ1o4zjOC/ps4KAvSgsCPsU558ez85JOBsb55kp1wwil23HHH+288c3iO8ZcwebERmDFjmg0ZMtjz9MMPPB/ne15Kly69w96YNm2qTxXCM5Z+n2ffiBHD/f88azILOzzbxo//MZaebT61hjqkzlhHB68DnpNAHcXr4T33nBk5crjHQbmQBkQ08kh5fvnlIH+eExaeVLubUrY/p4NR70uWLLR27Q5xA5u2TvnynKQdYtRTL7RbPHEPPfRwv45pV1w7ePCnPnZgut7ixQti51TzMqG8GbcwhY98N2iws0cKYxfaMGJT7drxJT1mz57pbSPcQ0zHDPUX7iHOYboX7WfGjKlenpQN1yBannjiKXbUUcd6WmkjNWrU9HEI9zueTkB+GH98/vmn3vZGjPje64pzGHMEqGfSHh+3TLD33383dg9M9rqcMmWyrV69escYKMA1pAdxDW8VvLhpK7Rd7i1gPMV9/fHH73v58X/qjHyG+5aXXtQB/cCXX9IPjHTPJn6P9gPZkazpYHwn3bQJypIPIjntARsZ4Scc534oXjw+FYyXloxp6euGDBnk3tyINwccUHYn250+5csvP0/cs995uwr1QJ0j6ITwOUY/S31dddWffdzHceqXdJIm4qhUqZL3C9QxdbF06WL/beDAd71dkTb6QZZ9YXxLGuk7mf7I/RidtofwSR/06acfe11xHptHkUbqa3cUpOlgeaqA0MHiBYQi2bx5cxdp9ic8XJo2beqNafLkyVooWgiRb2HAzICLh1Tz5i19QFe5cuUdD3QepjyweKPKoIrDS5Ys8gdgv36v+sCKPpbBCOs8MDDHGGHRZQYhffu+6qIKD1WMDgZ/ffu+4vOveUgyKMIY4AGMuz4DNB68eDcx4GIghcv522/3tW+//Sr221JfA2nTps1uCDAAeP/9/h4eD+bvv//W3d8ZVDOwyymkr3//fj6QZD0AyoQB47PPPuZGGemZNCmk5Q032uJpWe75FUKIrMDwwgCj74z3a4kfYtDvvPPOm96fYsQsX06/M8qngiCscD4GEyL5W2+94YYxAgBGJMIFBjF9J/0tffALLzztfR/9Er9hBLIODcZjYMyYET71hQ9iEn0ua5C8+ebrMcPnJ++TAxg99POEiZgDhIWIM3PmDO+zMQSZSkw/jGDEM4VzMfjWr9/g5xMH3qjkBTEHwYVnxYoVyzxM+nT6d6ZvkS/EI+IkjZxLORAez6k333zNRR4MXUR+4nzlled39NM8u/hgQMefJ0tciAGMa4y1YAzzDOLlB3kkPRjtrBFCubz88rP+zArPkenTp3ge33rrNU8Ta4sg7n388Qe+xhxlEaCOP/30Q3/eUaewZs0qF3G++27ojrJEQMBjiWciIgAevRj1pIn2QJlh4L7yynP+/EFIQ+Ag7LjIttLDyQ8wuwIDF6M11FdW0G6oO8oW4Y+299FHH8Tug35eHkB9IdQwTYs6Dl67jAkQCMg7z3++I8LFn8lfxs5d4M9uprs///yTsfHJrB3PZ9oHL2769Xst1o4+S9xvy7w9IrwQN2VPmEBbQUANwgP5QZhkuufIkd97uyJt1P0bb7zs8YZ07jxuGeK/cU/SRvhOnXMPB4gSQYPfGP+QrtBWuL+B8ho06BPvBxCSsC0Zg3AvsuM10A+MGjXSXnzxaRdP4v3AXBdrWTaAxdjzM9z3iC2vvvqiiy9x+32W1zdiHd+Z0sW90q9fn9i54Z5d7Pdanz7Pe53sydiPe4ryId5gr9Om3n//HW9/HKc+aLOMESl/6mrs2FFevoiyb7wR93wL8TKmHTt2TKwPec7HkVxPX0E/T1vlutDO0oE8FYG4KXkzfNRRR+1Q3vc3dBzEx4MonSpaCJFaMEBi4MODs3Xrdi5i7wr6MwZCDHwZwHXr1sPOPPNcf7uNQTNo0Ec+SOVtFALR8OFD/RrmfPfocZovzjx8+Hf+wGbwhXdRrVp1/K1YkybN7JhjuviHXRcZVPLwxPCZNm2yv/U79dSesb71OF9rgsExAyXC540v6xshVnGcQTqDppzA9bzV5TrEe94InnrqGXbQQc19sPjNN1/54IQHN2+HGJzwpv+UU3ra0Ucfl6M3ZkKI9ABDgP4CzxGMCd4A4xGC8MDCo4hBQL/Dm2T6Hd6E0++ccsoZ7kGBUYIogoCCQY0wNGzY19auXQfv55iCc8QRxxjejCzES1+HmMTaaqzJcuqpZ7p3Bm/X6SNHjPjBBRjAYCI8hPOGDRvZySf3tOOPP8nTjOGIUQXEi7cFaSlXrsKOt9eFCxdxjx6mvPXs2ctOP/0s9wTAOMc7olChjFhfflAsT1X8bfshh3T0Pp013zCsGZPPmzfbjXAMXMqBZwcGOob1scd2szPOOMfDx4DlWYMBz3W8zae8MMjbtz80lvbTY/10Cz82bFj8TT0vLli7Dg9N8o5ohHcRwj31wXMrgEj1zjt93VuC5wvPKD6sYUTfTx2EXSTjXg/jPJ9MJzvppFOse/ce7gXAccQNoJzJB+IAYgbeVbBx4yb3io0vOhx/ycGzDQOX2Qo818488zzPU8uWrVw4xBsVYxRB8LDDjoiV9dnWtesJXhYICRigeQn5o8x5TtNuKF8+5cqVc8+NrKANNGnSNJaP7t5+jj/+RMPjGEOadsCYBBsKjwumFCLI0RaBNoo3Fl5r1BGeYpQPHlmMIU488VR/Ljdq1DRWf594/WHkA6IL4sHYsSPd24f7gzUIaZvcmwiMrJ/IPUnd4WkS3UF01arVCUF0bKx9NfF64p4lLNoKHsmMaYDyYKyAJwjjmzBuadz4IG/ztBfyGuB8PNAQeGm3CLHcn4haYQ0dPMQQ/8gPacbTkLbKOAVPl9gpfk8hpiEYtmt3sJ12WrwfwEOFe4EwCCs/Eu8Hpnr50+8ceeTR3j6oI0Q6vIKo+7Vr17kQM3r0KJ82RxmcdNKpfv/G6+Frb5M5hToLZR0EQ+51xDWEH/rs0EcirA8Y8Kb354xXKV/qlbpD7KFuKF6EZMQe6pm1sejXTzjhZBegqQfa9J4IValOnopAVatWtQ4dOuSaAASIP6jHnTp12q1RJYQQeQWDK942AoNV3Np3BesCTZgwPvaQnmdnn31+bMDe1Vq1auPTyDp06OjGyIgR3/m59IO4yCOodOnSzaeqsRg1gzfccnn44o7LIKp8+YouCGHktG17sA+Agxs3Lu8s3nfRRZe5yEN8DGowrkg/BgNu3BgZF110acyIaukDLB7Uu4M1g9atW+8DDx72rAuAAYHIw2KQbdq0jxkPX7hIBkxRw+C5+OLL7OCD42kJbthCCIHBgiGMFwtvkh999H73MmncuKn3kRD6HQQAhJKs+50h3u/QT/JmGeO5UaPG7pFJX4kAzXRe+ke83b/44tOYYX2Sx8EUNOKjv8Q747PPPtwhAgHTupiec955F8fOP9SOOOIo/4u3C544GDI8F/CywdAmnrBeBtN+Onc+0sUqxrl413Mt/eCMGdPdgMLwRQig/0ekoV+vX79hluNwjCH6awyuXr2YjtzNp2uceWZcCMJAxsAOxAWzU61795P85cNxx3X1vGLcr1sXN9qZ+ovhBogL99xzqz388D3Wp88LMYPtezfWKA/SiqcUeeEaXlLwfCI/hInHEcJDAFEN448FZCk/0nfooYe5hweeAZQb+UGU4ljjxk28LLKCZxfXYHyefXZc/OEZxsLVGO6NGjXxdkRYvGzhOOITRj/1ylQbhKC8BGMbYYVpbHj8YviS5rZtO+yYqpUZ6pY2GnZiYgzQpUt3Yye32bNnuPDCi3sMfEQTpslRr4gEtBEEQcqhZcs2fi5TdTj38MOP9GnslDfht2jRxoUDPGsCtD8Wab/88qt9PEK7Rmjo3v3k2H22wV577UW7665/+wLeeKVh2CMaIrohnr799uv+3O/Y8XBvJ7Tpgw8+1ON87723vM4DjBVII2OFMG6hTFgInbbHOIn2Anjx8ZKJ9scnM/QBjJnILyIw4hPtgLQgLtB30O7wmkFk6NbtZC8DROLQD3B/8pIu2g/kJxhbxkW60S4M0mcg7OGhTvrpM/HURhjv3/8NH4eFe5b6px4QtRnLRe/ZvYV+lbEkC1YjrHN/0k/wcpL+FSEeoY17lz4RgYg2gmjH/5myd+SRx3p/Tlunjkgj/Re/ZecpVxDJUxFICCEKMvE3y/zz6zc8O7/1SbyCjoBQExbJZ1C6ffuuBwgYBgzKS5Ys4Q/hAIINhglv1HgbBYTNG2HefgQY3OE5wzSAnA5GMCR40MfzGYeBAB88ghhoB3grjqFEvnkbuztwLZ47d5aHxYObN0kYCkwvwJWbwQT52bgxPkWCtDDw4223EEJkBmOM/gRjGKMVMRpDF4ONPhK2bqXfme39IOvPYESHfoe33FzP9AH6HfpPDE68A2688Tp75plHY4be5/47hgRGKv/nGjxlmLIQwsJoYjoSQkP0WcA6HQhO0T61c+ejY+ctMtY0wpBhCgtv1RE7eJka1kVBkBo3bpw99dSjvgPPX/5ypf3zn3/y6Tj8Rjr2BAxn4uI5hFEexH/+kkb6eKb+BDD0oi9XixYt7p5J9NUYksCLBYyzp59+xRcsvuyyq2N5qO4eQY88cp+v6YJhjUcS1+F5wPTlUG54JcWfCXP9uRjAQxVxJtr/40FL2vHqwcOH8z///OOYwV/X641nXlaQZ4xGPF5atWqbOPoLPGt5qUL9IcwxtTqkjykqPN+4Pi+hjJiS/b//3Wsvv/yMt3eM5gsv/J01aJD1TqJMSUIweuCBu+wf//iTt59bb/2nC3MIIXjDAG2UtkcbxluZ+wpRht/btTvUyxyv43CvUKehfBBg489u7qFfjG0EUcYk0XaPoHThhZfE2jNi4SPWu/f/+Qsxnv+PPHK/i7Hce7RBREO8RvAcDnHhnRPaCmJRIKtxCyAkUOdM24qPuRA3Bvs0fNY/iq57E8CzhA/p4vqs4D6K9gOkP6SRNRlpbzn1js4LVq1a4f0U6aTvfO21l2Npj6cf4Zb2Th1wr1IP8+fPcS/BkEfqhLbF8WRM0affQVwKUI/0O3XrNnDRJ0A/heDNvU87YUoZY0naH308InNII+NL2jJjyvwqxu0PJAIJIcR+Au8dBkRsi5kZHoYMNBjAFy1aJPYg23lEgpjDHH4GtSxgzNuwXUF4fHCBjy6CByyoR/DRQXP82M6PANIQHyz9WrTKCtJeosTOcWH8MChkakJ0gU/gOwOrnAwEOC9MSWCwzoe3hWE9AN6+4m6MAQG8fQ0LGAohRGYwNPHSueOO+31nqueee90NioED3/MpSxDvd9Yn+p3iu+x3MDKOPfZ437EI7xaMoHvv/a9ddtkFvgsTojwGCP0sXjmEEcLCkMZDAs+SIPYDv2fuv5luhOCENxDTWDAYf/xxlE+DKFPmF9GFddceeuiumFG6yLfP/tvfbrF///suf+sN9Mt7AsINa7yRT9IcfUbR33I8+tac/p3nT4DTuSYro4ryYDrGmWf28p0ur7jimlj6tvp0ZOLkmflL3/9LuWFs40mBFyt1F+B5k1nUIXzEKuqF6SqIN6ztgrCDl1d2UE6IbdQL8WaG36lX8ko+4nUWTx8eJUwHxLM2L8Ejgu3g33xzoL366ju+S9j55//WRcPsXpQ8+eTD9sEH73jbxiPnppvu8F2a8AZmelmoR+qgTZuDvfwRMZiGzfQayh/vK+qN8Qp/eSZH6497ENG1R4+eLhAGqL/sFtOm7ePx0avX+XbnnQ/YpZdeGTPk8YYb4WOJ0AYRaYgvxIXYg1h16qln+bSsAOOyzG0F8CRD7Fm0aL6NHTvCRS3uKUQzBIas4GUVi3xn11aAtsTYi3LPqh/Aa417mfspPxJv75tjeYz3Y/G0x9Nft269WP9yjOchPkblnt25HvBUZOopU2Gj9+zeQjkF4fsXWOy6qH+icC7tkJeo1FO8rTAjaOd6wLMJDzQ8uTL3vwWZXGtxdB5z586NGTMLXJGLQgWxcOj06dONxaWEEKIgwMCDBwxvgTLDW2LeEDHPPLMYAwyKGHwx3YqdOngTnNVgmgc0fSgDJT688WVtgyi8seStG29FfmHngWB8fB8/FgvOYQDPwCV8/zWcv3M4POQZKLCQZua3oaxNQDykc3cUKVLYB6MIZAzkMd7OOKPXjg/z7lmHgTULgLRGjRQhhIiCQcAAn2lbfPBcYXpDXBz4yseh9Lv0OxgT9DusK5FVvxPEZ9bjYfoHU0H+/Od/xIzUB61evYbuGYGXCAYzhgbTZ1gfI4Rz1lnnukcM8e9s/P26H0N8YuoFHhmDBn3qni0YWocf3nnHekCMq1nrjbyw2yRGGd471arV8Pjjz47t3v9izMXZtdjP84u4MZzwpog+f3ibzpSjnddd+3X/S3xxIyxxIAF5xJDDGEMY4M0+cWF4cw0vQDCsOX7ccd13lBtT0eJ1cFasbH8xKLPq/5lax1QPDP6wsyQvOZj2tKvtxWkbrJuD50BWz27C5TmH6NC0aQsXpKL1yofnVV5C2ZFOprhghIfnclRwDFA/tBs841izh+k1GO1Mj6IsaCdRT2TaK/XOGlFMyWaaD9Oh8PTFow6BEKOaewhR7JhjumZZf3iFRcnu+R1tK6QHj99SpUq6WEt+EJNIE9PJuJ+icTE1nvVhwoLjEI/m13FRPty7jLs++eQjF7h4EdWiRUsXa7KC+7t0aXalWh0bo8WnpmeGuKkD+p54P3DajjSGfqBbtxOzzX9eg3cU5V6q1AGxfqiV1100/fR9iOHUJ8Io9yzTCMM58XqI13m8PSWD7NpK4j9ZQJ/J/UBbwmuQ6XqZ80Ef/WuBqeCSayIQBsgzzzxjr77KrjWzE0fj0CmPHTvW7r77bhs+fLh/F0KIVAe3cx6ILArKgsgMcJk/zZtc1nRgTjxrHGT1Zo4BQcWKFf2NLq60uFEz9xzhiEEbg352unjqqUd8vjkDXQZgDExxg8agYdDOWzrmcvOWNjpNLCcwiKQ/xhWYQR79OHHvCowS5v8zeGIQxXXAm1gWy2SAxeKNu4PBBAPNVq3a+cKevEQgPdWrs31otdjgr4iXxZ6+3RZCCKBPxGuDdSGYLkP/Ggxc+h0W/2WKCcbPr/udzS64M30AsRujlzU+WGsEASFMdcEjg/6ONWLo/+n/CAujnP6Zfnp3fSqGLmu5cD5rCNGXsjYRBk0w6kk3zxYMY/pEhBWMGRY65RkQBB/OYzFppnAwxYc8xF8k+M87wTOFsiHNrP/CVA+eB0xLY82cuKBycOLs3UP6WWPls88+9nILfTceUwgQiEpMvcELFsOePLPYMy8PWDeFcosb/BnGYsJ4Du0K8sqUZKb8sTA206N4BmLQI4xlB8+w+vUbeDxMayF+0k75stsTzzbEDdZ1YaodHlO8zCF9lDvlEnYZSxV43uKBhTcHIg7PWl7kvPdef2+3mSGfGNHcI6yfhYHNOi14gNAmET2YjseCwkzBQSihfBDfiGt3z27KG68wpmNGd5Wi3bJIOt+Jg/EO3k2sU8OYiilXZcuW87gqVKjkokBYZ2p30F7q1avvUwVZdJ0d5xCWWFcoK88hQCht2LChlxvtK0x1Jz7GeYhrvAikrdAPsC4Q99yv+4HVWd6D+QHEMcoEkScsqs7/ST/3JX0hQjHHqIf4Fu5LYr8d6OfgkcV4lns2L+176oF7n7XQyAd9L30haUTMC2JoOlH45ptvviXx/6SQnZJJp/nAAw/4Q6R169axDrR24pf4m+wffvjBRaJWrVrFHipt/GYUQoj8Bg+xESPYsaSBD5R2BQMHHvC8EWaQy18GwXj2IODgkn7aaWf5IBUYsDNgQkThLS6DeIwLBB92IWEwzwJ97CCDmzKDJM7nwcvgORgobJPKHG2MBQYzzOU++OCO/nYSN3a29GTQios1gxDgoU24DFB4i8PbKwwZBusYSCwMiZHE23F+wwhgkIPIxaKZAfpuBoGEh+jDHHjSwcCffJAGhC+eBeSXMmQRQd7ysfUw6WbAhJFDOLw9Y8HJ+FSIKR4WO5vxVpdnB2+6madOOTBQYQpATmGaXdGi7FiTtau3ECL/M3z4D7E+o44bptnBjjL0E/R3YXoU8JYbw5E+DmOR6SPx6QzFvc+j32Fx5Hi/MyzW73zjRj/GBMYQi8gikCBWjB8/1heaZockPHfYeRGjlz4MzyD6NvpwngH03fTleEsgODB2Hjo07o2E9wpvqqPE+8fRHj8CBt5IeGqEsTLepOQDgYZ84g1KHDw3MNTpZ1msmXSzGxZb2y9cOC+Wr5/8Op5FPKtYMwdDHm8Znj30wRi44dnEcwxBi+cC06rYEYs0IJbwlp9FdjH6gPKML5q71j2qqB/67U8/Hejx099juLPuCv9HMGPHIfIehAjKi5cATIPD+CdP7KREWhGoeMZS9uQTY53nRpRixUp4WSCe4b1EufHcw7AN8JKFZzLx4QFDG6FeSDfpij97J3rcTHviWp57eCOw6DXPONoPeeEc2gtlyPMoO5iagrHcqlWLWLntfgMD1iuZPXtOrGyaJY5kD2nAg4l2lNWaRkAboWwx3Gnz1CFtHW8ynrf8Tn4QOCl7puCx5k24x2gX/B9Rg/JBTMXjh2O05fj07JKx36b5uIfwwj3E85spUhjfjCXCuIbnPlPFgPplfS3GL/G2MtrTw8s0POHIG/Gxtg/jHgQH6oZ7lvRyPuXACzDSQ10wnuLeo+1mHrcEuLcYm7CoNeexo1lYvBkQBAk3jFsQgWgrtPUwxqOt0M7Zmpx7grWNiBvRmfjxquOcaD/A7/F1irJ3ZZkyZXxsbFjfRerdQR4mTJjkoueuwgxwbzOmY/zHhh5RaBukDxH0p59G+f0Y2jtb5dNe6J8Q0BD7yNvO9+wwPxeRhXuWeyPAS0LKjXaBhxjtMYA4jIdm/L48zOuAe4b4eMFKHxVA1EFkou+I9p14qcUFyhbevmiXoS9lXSDSSt9MGmlntGvaBn+zY8qUCbH2VCs2bt/Zky0VyTURiPmQ/fr1c9W2Y8eOO4lAGFWTJk2yQYMGxTqSI2IddFs/tnTp0lgD+sl/mzFjRqwjX+gdAyp9tILoHKdMmRK74Sb6eUwp48HAzUx6WNyPqRQ0EKajESZhs5DUrt4GCCFEZvZEBKJ/YRDAwIgHDgMUPFp48DH3vGvXE33QE/pNBuM8oNimlQcRD18GSbho447NAASvH4wJFi7lYcruW82aNfeBKfEwgGVAwsAivuXtZt8xg93CGGTzHVEIoYl4wnQCBB9EGgbw7AKGEYSBxMOfhQEZuNBvsiYGbvi8ueLhypSKzLuN8IaOdPMQnzJlsg+mGAAwwO/c+Sh/0PNigDe/PMx5g0hZ0XfzF6MoPsiOe1NhRC1btsQf/qzvQDkgZjGHnznpGCmkl4Eh5+cUiUBCpD45EYHor+hnMVSiC7hyjPEib+EZV7Zu3d77klq16sb+FnMxm36H/g+PBPpPxJcw7QVPIYxSzqFf4oMRctxxx3v/RP+KAUoXj4FN342BvnLlco+XqWQYJ6SDfplxKdNqELej8KzZsAGPDBb1b+bTFjCKwrMDrxXCI+2IEAj09Jl4JiGOkF7+T9+L8ULfS97w8iRs8kR+SQNCP98pT54BPBN4Q45RR1/Os4JnBAIQeeOZiFhAn403FNO6gLLCIwaPpbjwUtqfJaxZRHmyeDB9MP0+U3xYHwljj2cAdRE38At7GnnucQ2L8GKM8szjucOzgbQxfZi1W6jfKKFu8ZCqXr2mG7i8dInaENgnhFG7dj2vD56leAaQboxiRArKE9GM+HjmUT48T3kus2U5aaNeefZSZvyeuQ6j7E8RiOcueaCdZCdE8bIIqDPaK2MN2hPiQXxb7ri9xTQfxgDsnsS6OIQLtDvKEJGP8qPu2rU7xMMJvwfhhbaBEMmzm7rn5U24hxhDxNOy3cckfOJk+BiH+ynaVqgnFpDGCwnBj7YSHzM08jipA87lGtoy6WnevIXXFWINQmB83MJY4de7pHH/cF+TJto97QXhgmPAWOOXcUtzP592wriLto7YxT3C2IuyomwRgRjXER9pZBwY7Qfi0wp/6QeyY3+KQIz9uK/pHxCLM4PIRntGvJs2jTzO8w/1QT/BNDfSH9+co1Cs/czfcc/Sz1C/9Lv0RdRXgPAoT2CMGu3DaVdr1qzydsJ9STnF7/Wifg+GMSLE+06m+MbLO4D9T/1RD9zTCJOMGSkTxuR8yAdekaQLLyHaSmjHWVGQRKCM2E2eVAe07BobbzfOPvtsb7xXX80WgIcnfolX9Lvvvmv//Oc/7e9//7tddNFFsRtooYtCfHhAUCE8HLt16xZ7+J3kRghGBQ39008/tW+++SbW4GZ7/DVr1ow1pmNjD2HePJS1t99+28aPH+8NiHQgAiFCXXPNNbEbSoN/IUTOob968smnrVOnLrGHQHw9mt3BIJSHHQMarsdduWzZMjsGFjmFhzT9Ia63DNiiO7FEYZDF200ervE56zsL57kFeaWPJh28EcfNf1cP110RHxCstrVr18XyUyo26KoQy9PehRUYOXJYbKBWxI4/vmviiBAi1Xj00SdiRmpnFy+SDWIzLxB31e9E+zmMwbh3wK/7doRvjA2EA/pvxIKspgLvCwgyTN9BCEhm348gwDOFFxg8v8qUOWCvwyUsnmUY5AhFlNmu0kn5Iq5QfghWnJ/scssOyhPjnhc0xI1ggxAUwA4hXYg0pAkjFrFrd+mjXfXt28fOP/9sNyh3By/Dv/rqW+vePb69/v6CssbQxtsNOwsRLTPUH+lnLHL99X90sYd1bbLzOoqHudoFNcqGcHM6DiAuBDzioq1gQyKoZNdW4u1qpaeP+4v6yK22wrgL8Yj7BNuTuBHBMvNLPxBfyzGn/cAHH7xpXbsea40aNUwcyZ4ZM2baW28NiNXLBTku65zwS3uP7xpIP5ZVe4+OVbm3Dzww9+7ZnEI+qCsEWeqAvOSsHt62I47oaC1b7rwbHGWTaiSvZSQROt1vv/3W7rzzTp/riWh01VVXuXCEskqHAnQIAwYM8PNobL169Yp1qOd7g7/yyivt+++/94ch3kH9+/f39Yh4i3DhhRfaiSee6B2REELsb9DGMQpwuedNZYUKuJvvmQAEvHXi7QNvNrITgICwmR7GGw8GI8kwAvYG3qyQ3ribcKl9GowQFm/c6tSp43/3VQASQojdwRSO3fU70X6Oxfez69sxqGvUYAv4Wt4v7w+jKG6YlUl630/fzRp1vJUvV+7AfQqXsHgpy9Q0wttdOilfPBTwpEAEyE1jknTxrKVueaZGBSDgxTN5qVWrlj/fEQDzm7G7J1DWeMBUr149SwEIEHMmTZro6wUxFQ8vIRZUzo54mJW8/mhDezIO4FxEhtBWMNZ31VYYI2E3MkbiXszNuuC+R6DEk5m+IisBCH7pB1hDav/0A/uLX9p7ba+T7Np7dKyKGJ0f80g90M7pj7nHU/m+3Vvy5Sga1Z3pWzSiyy+/3KeIHXXUUTvEGzpiFDfm6z766KN25JFHukh0+umn28knn+zX4AnE9DM8ioBOqHPnznbHHXd4GPy+KyNKCCGEEEIIIUQchJ/bbvuX9e/fN2aX/c5FIMQAIURqkS9FILx9UOfwCGKK2NNPP21Dhw510QcxB2UYbyCmf82ZM8e9e77++mt7/fXX3dvn448/9mlfTAELK/RXq1bNmjRp4sow6h8C056o0UIIIYQQQgiRrrCez403/tduv/1+nwaG5012S4EIIfIvuaqCILwwZ5I5nplhbh6dCO50nHfIIYf4mj10LiNHjrRHHnnEbrrpJl87KGwzF59vuMn/z/xKFoDiw+9s2dehQwd3tQPmJCIACSGEEEIIIYTYM1jrhl3g2ME0vvOVNtgRIhXJNREIrxvmhCLcsE5PFEQhpn8xz5AP5zL/moWkL7jgAuvevbvvGDZ9+nT38mEXMOaExuciFnIvn/bt2/u0MaaGMdXrjDPOsPPOO8+njgHn780aHEIIIYQQQgghhBAFgVwTgRBh2rRp4x47kydPTmzzyArzm41t20eMGOELq7FoGN5CTOfCw+ewww5zMedPf/qTtWrVysUiFnpmwS0W1kIsIgyEILaeP/roo10MateunXsDZbewmRBCCCGEEEIIIUQ6kWsiEKINHj2s7D948GB7//33bdSoUfbdd9/5FC/+z8LN9evX93V8WM/no48+sjFjxti4ceNs7Nix7kXE9aw4jgcQ07vOPPNMP3fgwIG+btCPP/7oYX355Ze+O1hYE0gIIYQQQgghhBAinclVT6CmTZv6Ll7r16+36667zqdtnXLKKXb77bf7/9nivV69eu4JNHr0aPvHP/5hxx13nJ122mn+wYOoS5cuLhYBawdde+21vtsXohLXd+vWzXr06OGeQ9OmTfM1gxCgOHdX2woKIUROiS+CuD3+RaQk7DCpOhQi9aE71rq0ItXY0zbLIyv+3BLpBvWuPk4km4xt27YltUfZ3QrxLADNVC+mdTE1DGGGaV3ly5f3NX5Yt4dpYghFK1assMWLF7s3D78zVYy/TPEK8YSt4jmXKWasN1SmTBn3FmJRaNYY4hjCEkIQ34UQYm9h+mmfPq9agwYtrHr1WppymqKwgcCUKT9ZpUplfQqxECI1eeyxJ6x9+85Ws2btxBEh8je8oH7zzT52/vlnW+3atRJHs2fatOn27bfDrHXrw3wWhHY3Th+2bdvqNu6YMUPt6KOPdGeJ3TFjxkx7660BdtZZF8TsbLWVZIEGO3Dg27ExY0dr2bJF4micVBRoc10EAgoKUQZjivPZ9j0rLx3Oo6PkXLx5EIiy6/jC+kKsI8R5nJ+TtAghxJ5Av8QuhJ988rlVq1bHGjZsInE5xUAAGj78m5jRWNU6dGjnLxeEEKnJ558PtnXrNsfu53pWqVKVxFEh8ifr1q21SZPGx8YSG+3IIzv5Mhe7g5fZU6dOs0GDvoxd09UqVqykzW7SAOzfxYsX2VdffWYnntjVGjRokKPx5pIlS100zMgoYc2atbASJTRG3Ve2bt1iEyb8FPu7ztq1axN73tRM/BJHIlAMCS9CiIIOovP48RNs9ux5scHZhsRRkUpUrHigNWnS2GrUqK7nlhApzNKlS2306LG2cuXq2De99Rb5FwxFjEneZx922KFWrVpVfxG+O7iOWRE//viTLV68zLZs2Zb4RRR0ihQpbFWrVrTWrVtZqVKlcjRe2bhxk2+6NHz4iNi3whrj7CPcf4z7t2/fYgcf3NZq1679q1kAEoFi5FZDw+uH6V/sCia3SCFEbsMDgZ0KFy5c5G9rChILFy507xim0BZEyBcCEHnU4EiI1GfWrFm+zMD69RLlkwUek3jXy1MyeWAoYrNUqFDeDjrooD3y5uFaxhoIQSyDwRgkHWAZETYGqlq1auJI+kBbKVPmAN8de0/XtcVOZi3dFStW+n2cX6EdM+asXLmyz+LJr3D/lS9fzho3bmKlSv3as0oiUIzcGlDTIbAbGAtKF1RDRQghchseyOzg2KZNG6tUqVLiqBBCiHRiwoQJviQDzwIh8grEXXaBxt4TBY+NGzfa559/bp06dbIDDzwwcTT1SEURKGVdaFCGp06dmq/VTSGESEWmT5/ubxqFEEKkJ0yz4w29EHkJ0+BmzpyZ+CYKGni3TZkyxcUgkbtoHpUQQgghhBBCCCFEGiARSAghhBBCCCGEECINkAgkhBBCCCGEEEIIkQakrAjEYtD169ff49XShRBC7Jq6dev6VqRCCCHSkwoVKliVKlUS34TIG0qXLm116tRJfBMFDez4Bg0aaJOnPCBldwdjxwJWjK9Ro4aEICGESBLscDB//nyrWLGilShRInFUCCFEOrFyZXxraZ4FQuQV69evtxUrVri9Jwoe9DHz5s2zatWqWbFixRJHUw9tER8jt0QgIYQQQgghhBBCiLxCW8QLIYQQQgghhBBCiHyJRCAhhBBCCCGEEEKINEAikBBCCCGEEEIIIUQakLIiEAuFTZgwwbZs2ZI4IoQQYl9hXvPkyZPt559/ThwRQgiRbrD5Cgu2CpGXrFmzxqZMmZL4Jgoa2PHjx4+3DRs2JI6I3CKlRaCxY8dKBBJCiCSCCDRu3DgfeAkhhEhP2CVy9uzZiW9C5A2rVq3yl/6iYLJ582a359etW5c4InKLlBWBaDRLliyxbdu2JY4IIYRIBkuXLrVNmzYlvgkhhEg38AZdvXp14psQecPGjRtt2bJliW+ioIEdv3jxYjl15AFaE0gIIYQQQgghhBAiDZAIJIQQQgghhBBCCJEGpKwIlJGRYYUKScMSQohkQ99KHyuEECI90Thb5AfUDgs+hQsXTvxP5CYpe1eVLFnSWrdubUWLFk0cEUIIsa8w4GrRooWVKVMmcUQIIUS6UaNGDatTp07imxB5w4EHHmjNmjVLfBMFDex47PlSpUoljojcImPbtm3bE/9PCrn19njr1q22du1aN1TS7Y01eV+5cqULYSVKlNihkLNQ9siRI32BLShWrJhVrFjRGjdu7A/yglpOc+fO9ZXlw8JxlEnVqlWtadOm/hcorwceeMAOOeQQO+yww6xSpUp+PD/AIrzfffed78Rx2WWXJY7Gt8VkpybyQ10GHn30UU8/+ahbt27iaP5nzpw59vzzz3u6+ZQtWzbxS97D9pRsi85gg7RxbwVoWyyQyT1Uq1atxNG8hbR+8skndsQRR1jz5s13ah/JgLZHGRQpUiRxRAghRDrBls2MQaLPQyFyGxYMpi0ecMABiSOiIEEfw5izdOnSKe0RRD5SjZT1BKKhYESmmwAEiB0IGkOGDPGtEwMLFy60/v3729tvv+1i0PDhw61Pnz52zz33+LGCupPajBkzPN8DBgxwg33YsGH29NNP2/33329ffPGFn8MD5Ntvv7Xp06fb+vXr/Vh+YcSIES4CIfZEee+997zeyF8U8sJuCalWn3Ty1M2sWbPy3c5T3C8vvviiPfvss/bVV18ljsahbj7++GNvO/kFxBnKkPQiUCUbxHUJQEIIkb4wJpEAJPIaxiISgAou2PHY85oSlvukxSRLjCUMZ/5iMOGRwF+MaJQ7/o+AggcNW89nVvM4L1y3YsWKHao0hnj03HXr1v3qerx2MH6jBju/cz1xLliwwP+fOU6uW758ucfJOXg9cQ7H8RzBKP3pp5/8//xGvKQRA5vzDj74YPdoOOigg2z27NkuJuBpEoXzuJZ0LFq0yMsnmg7yiWBC2KSR68k/34G/xM/xzNfyf45RpnyieaQs+J5dvkkTcYff+LurdOLlM2/ePHcp7Ny5s+e7Xr16NmrUKBs4cKB7SHE+9cO1oS74P2WMJxH5iG5PSDpIH3WcGfJNWJwTIHzqmTQSXyijAHERXriWeuV8yvOHH35wYa9jx46Js+NbYnIc0YT6o26DeMV5rVq1snLlyv2qjmgr5In4gN8JmzrKqryBY5zDtZRltBxySoifeMkfZUo6ouVAuYc6iKaDc0Jbpx6i14R6yCrtpJPwounlnMz3c5SQTv5SbqSTLXBpP9w7tBkExXC/AWWHEBcVXCG0ScqNusycvlDn/A39B3GFdkP8tBXSGW1LQFhcG8LPnP8qVapYy5YtXQhGnMqqnQohhBBCCCFEZgrffPPNtyT+nxTyo2fO6NGjbeLEiW6EYeSNGTPGVWWmUEyaNMkNbTxIpk2b5ufwG28/UCUxMqdOnWqDBw/26zDIMf74PwZd9erV/TyMuA8//NDzz/UIEhiniBZ4dDRo0MCKFy/uxhrx4JWC9wFhY3xyPvMh+YtBjADAOaRvypQpbiiSXqZ+4eHz/vvvu+sccSAkhLQOHTrUGjVqZL/73e9cCMJQJHzC69Chw47pQxigTIHhfPJCmsgbYZIOwsO4xEsFQ5VzSC/lSF7D9d9//72XKSJC+fLl/VqMXsL6+uuvvezJA0Z2KBvKgOksXMsUmzCVhetmzpxpX375pdWvX9/LAuN3woQJXkchneSHeMJ0FcIaN26cCyNMpyLPTJEhz6Sjbdu2rjL37dvX5xWz3glGOXnjHMInDASIUPcY9aQboa1hw4Y72nVID2mpXbu2p51y5ztp/PHHH73cEA6Ik7CoM66hjWHQU458eMtGuXAd05B69uy5QwnnfNoT9c71pJf2VrNmTS8jyobyJs1cT/lH64iyROgIZUc9cC4eHuSR/FCPiD7ffPONtymuI2zyznl78gaQsiIO8sdf0kJ41HVoU+QFUY7y58Nxyok0E3+oB9ob5/M79xrHaGPcQ6F8QhviOtoQ5UGbpL7Ib3b3M/cSYSGuhHrgWtoyZUx7Ip20n3Bv0x65x0gzUwwRs6hn4iYe8kmbpB0gzlBflG/odxCa+D/xkmbqnfriWsIgbuqhWrVqnpZoH8E1WfURtDtEoQ8++MAqV67s9wv5FEIIIYQQQohdkbIiEIYYRh9G2+7ifOqpp+zVV191gwrhAYMLAx5D7OWXX3avGoxXDC/EFQy/YFRhNHIta5kQH8YfggNTRxAEjjzyyB3iTu/evd2YxwsFAYBjCA0XXHCBnX/++VahQgWP47XXXrPXX3/d48QYZRoT52Lgcz2G4e233+5GIkYwRiDGI4Y5hv9HH33kHgDEj8iEcc/aPxiXTGXhHNYKIV2cQ56J99hjj/V8AfkgTxiRpAHj/5133vHyRCgi/cTDtDMMWQxr0sv5CBcYtqQBY5/yQOhi7SHKld/feuste+KJJzxtlCFljJHNmiqU7+eff2433XSTnXzyyV4uGM4Y3++++649/PDDXl4Y7hjIL7zwgodP/BjDeGpwPumkvCgbjGyM6KOOOsrbA+0jGO+dOnXyMomKQOSfNCIC0A4oo0GDBrkRTxoRXBAsnnzySRdnKFvCJX6m2PHbaaed5mVMGI8//rjHRxoRRD799FM31hHkyAd1zhQ14sW4p1xYdJGyQ/RDwEKkC1A+n332mYsYtFfqiLo89NBD7ZZbbvF4KGuEkzvvvNPjRNBDVKHeSCfnROuINHMNbQARgTySZq6nfXA+U58QUihX6jOn93O/fv3sscce8zaLsEaeWLOGcFm/iDjJc2YRiPi4lmuCVxR5J37EHYQVwrn33nvt1FNP9XuSuqf9vfHGG34fnX322V4P5JMypuzJC3HTXqkH4ic+2g5rKlEPiJQITqwbhVhIXhGaOJ/fubcRXTKLQAhstEnqh+uIByGNvLdr1849tEgj/Q71Tlj0PaSJNsi9zjHqi2v4jXTSdrkXEBHpc8gf1/Ch/Yc+gvIkrXznviX+9u3buxiULOjryAMfIYQQ6QcvknhZFF6+CJEX0AYZ7zA2EwUPXmgy5qSfyanNIZJDyo7wMQ4xoHI6dQVjD9EAwx/h56STTnIji+tvuOEG/z8G/3XXXecGPcIHxh6iCobptdde6wYnRmSTJk1yHG8UhAmmZSGKXHnllfbmm2/6mh7//e9/3fBFHCCdGOwIE8SFIYnogKByyimnuJF6ySWXuLjw29/+1tP60EMP2QknnOBxhJsJgxtDGVEFYxOvBoxYIB0YsYgyf/vb33bkHVHmueee8/hD/giL8zFeMWj/8Y9/uJGKAX366ad7eRIHhilCCtNm+A0vlvPOO88NfM658MILXSzBmEWwOvzwwz2PGMOIEYAxS7kznSsYuohtGOB//etfPQ2Ux3/+8x975ZVXdqp/8s3/eVAglmC4U87EhfCRGUSyu+++2+uAMMkDhjTGPPlHCMKgJ23UC+0NEJsQZEgjxj7xIloh9Pz73//2NkKd4Il1xx13uBjDAwwQcxAiKI8gXiDyUb7UTxTKDvGqe/fuLvpQL7TN4DUVhfzivUNZUUc33niji4OIJ7QL8ojQSDlQB5Qz6aauEPmOOeYYF08o0wcffNBFTNoDdc95OYXpUjykaU+khXLlGKIMdZ0ViFoInpQJcdLmaRsIoYgjlAvnUE60L/IJCFUIINQjAh9wj5Def/3rX54Gvv/5z3/2+wORLNQDdUrb4l7kPATHUP7c2z169PB2ivhK2WaGOkDwpR956aWXvNy4dxBMuFdDWwHqnHuWtsv5f/zjHz1shNLLL7/c00CZ027xNuS+5RhxX3XVVX7/UPe33Xbbjj4iTHFD+EKUQgQN5ZIMKEPKN5lhCiGESC14TjGGESIvYRzJC2FRMGFMy0vc6NhZ5A5pIwLhAYLBiCcBRjdv1zH2efPO2348KhBN8CbBWOQNP2IHhjIGPl4IgPGIYY2XxJ6CgYcxShi80SdOvgdPGLw4MFBJT/BS4neMcQy+rASAzNBZYoged9xxLiIg8uBVgYiFIIKBh4hB3vH24UM6yC+GcMg7xivgJdGtWzcXL0g3RifhIEIdffTRfoy0MX2GOsEw54Oii8gRoMy4jjIljYg8hIvoQnqoE8QJfkf4IFyEDNJGnWHo83/CJp3kAy8ZBCLAiwhh6/jjj/d8X3PNNZ63Xr16eVlnBq8q0ov3D9chGCDAMeCh7Ek/1+ENglFOmhEF6agQJChf2h6DJAxm0oQXFWkkP3gUcT7tB7EN8Ebp0qWLp4v8AeEC5bu3UK4nnniih0s7Yvoa9YboSXkQF+IM60ORJuo21BXti2mDlB9pR4wgHNJFfVAvOQXPna5du3rZEmfw+CH/iHtZQd2SJgQQhCPqgXuTuqU+yA9lSZvAi4i64fwglNKGovczZcH9Sl6i9zP1GsoagY/rovUQ4F5h+iBCFOnhnswM1+B1Q9khWiHkIrjRLog32ichKhEWnmTkpU2bNp4+dqkjHo5RXkxhDPmmrDiOpxjhEQ/54hjpoVyANkrfwT1AmSQL7i0GXBKBhBAifeF5w3hQiLyEsVt2Y0iR+gQRCFtX5C4pKwJhqGD48DcnYPBhuGFIcQ0CAw0O7wKMPaaIMJ2Ft/oYXxjNGMucgyiDsRXAwMZ43VMwWjGsMLAQaoiTzzPPPOPxESaCCkbjpZde6l5If/jDH3w6GcYxAsnuIAwEAbww8O7Ao4Q48SAIYPAjAjBVDU+GkHemh5E30hC8Jvg/BmgwljFm+SBaRMuAMsL4xSBFyOI6DPAA4XINaaFD51o8iSh/jF+MdLwfCBuxDkI68QiJphOjmzRF00l4GNZXXHGF/f3vf/fz8KAhrKxcmfFUwgMFjxziIRzCo76D90cQwBAoSCPlxaAIcQijHfEhTNNCzKL8SCOeQAhHiDG0tyCkkP+wZkwgp+13VyAOhrYNlCFCA3WCwADUH8fIJx0u5YooiXCBFxReOKSdv3TGCEh7Kixkzh9tmvuGPAaxLjOULZ5wCJ7ck6SP/FCm4YFAXSPC4tGGSII3VhAtEVWi9zPTFhH1Qj1wn+EBRVqi9UDbjNZDgGPc/3jZMZUOT7XMYghCGTvu3XfffZ6m4FmECEg+o8IZceExxu98+E47o16oD6B9Ulfkmba4qz6C6zIL38loQ5mh7qP5EEIIkV7wPM7pi1Yh9heMRZL5okvkP/bEnhfJI2VFoD0FQwsjDYIxhsGHZwteBky14sM6L0x5QojBW4XraJwYfgEM6DAlIwrGK51VMJ54eGJkBzD6SEPwmAhx8vnTn/7k6cCIZjoO4s3FF1/s06jwIGH9EbwNQrykPasbBkMRo5ddsvACwZjFAwTjmKlAgMFJvvBSQOQIacDQxnOIa/GIgGDcBvhO3Hz4f4D/kx7ipxzIezDigTKjHPkdI5iyYBoSZYXCz1bueDggrlDuENKJ11E0nXyuv/56X0MlpJPw8M6iDPngqYMXCgZ4ZsIUL0Q56hvRjPApd/Ia6g+DmzAQWMJUNvKIBwe/hXbEX9KNt1NI3xlnnOHTkphixjlAXsh/lCDSRMsqQLjRMs4OziHd4dxQP5nriO+kP9QTYhF/EcqYAhXSTrtDTEMI4pqcEsSlKAgbxEedZwaxgzWB8NhBEKT8aLNMnwr3EtAOWDOJewOvK9btIlzKFnE3nENa8fiL3s+Ey/3MjmqhrDkvcz1Eob6Y7sf9EXbfCtCuEf6YvkZcrGlFfISPWMXv5DdAXNR7gO/hE60b/s91u+sjaKfEA5QPgir3wK7yI4QQQgghhBCBtBGBomBw4QmAWILRhcGFcYUYgEHXunVr9wbgHLxBMNBZowQwvIJHSBTCxEjFYwQPIgw6vBNYTyiA8cZUFAxX/o/BS5x8mJITPBYQSxBCOH7RRRe5oYmYxNofGJkYkHi+EM+u1HEMacQJDFrSw9QV3uyQJ9KB4czfkA6McDwr8HRBINgbEF3w0CCdwfuIuCkzDFbKlaldGLr8H+OeaTwILJQz4hv5g5BOjHLOjZYXQgzppP6Aa8gP5YpRTN6jRnaU4HGBMIHgFfJMfUVFDIx3BCDaBCIVCy7j2YL4EH4nXdQb8eH5E9oRaaXsKYusBJAA15NOvHIyQ94QVhBLosJCMgh1T/y0adbdIZ+knSlwCCBhXSamvNGOd+cWjoiHFxHTv0gvXjt4eIV7LDPUA9dQjghRrMFEmjgWptABv9NmEEUQM5kWRvrDlvrUPeVMPdBuEa+i9zNtjHzuqh6iEB/t6JxzzvHpWLTPINJRVqSNvCGukgaEZOqfctpXKHPygWCVXR8RREXufab0IV5SHkIIIYQQQgixO1JWBEJEwDAMgsGegGGLUICBiJDCrliIEOxgxV++IxIgtCAQIASwWw9TiNjFhylM7H4UBcMRsQWvATx2OI/1ZqLzWDHsMLAx4oiDaTgsmotnA99ZPwaDH28HphMRH4vBsiYI6UWoIB6MakQQ1mxBmCC+7KaKISpxLvlAyOA8DEYMaoQl4iV+wgh5x9Nhb0UHwsboxjBlUVvKgfDJK/lHbAhGLPWAkYshi8jA8SCwAGIZa+jghUW6SF80nQhue5NOhAJEA8qaBZMJk7+UJ8JEFMoabyGmquE5hMCA2AO0PUQvvGgQBRHZyGtoR3wPgmB2sJYSdUoZINBFwSMG0YFpgYTL1KPM5+wtiBZ4mCH8kX/Kk/bGh7JgYW3iBtbeoj3yd1cgoCFUknfKgOlMTI9CJKE9ZIZ6QGhFzAj3AtcSRmbPKNox5YzXEPcmYlFYlyvcz+SF+5KwQhpCW8lKZNsVxEd49DHkgbYC1Dn9AmWHMIwgRZlRR6RrXyFsBLHQR4T2Ge0jaE98uH+ZGod4RjqTCe1a3kVCCJG+MJ7jmSREXsJYJCuvflEwYFzNC3bsepG7pOwW8YAhi7fI7oQg1tfA0A6eGQGmGWFIsZ4LhhbiDmuU4ImARwriD2/jyRMGKlND8ETA+MRrBFGGaUd4GJAGvA2YNkR4fJh2hACDAXruuee6oYZHBA0dAxKBBPEDsQjjFkGAODnGGiAY/fyfMBFHmBJCnFxPvplKg0jEuiXcQMSPyIOBzHbjwZsHA5k8IC5xHeICU1kQPIgDY5n0kA7yjlCDcU6aMKoRkIIRjxcEu24RDgswB/CWID7CpZwZOLBLGOWKgYx4gZiC6BPSBZQv+aD88N5gsekoGNuIBKQTwYt0MjUOgxvPCPJMXSAIUbbkO6s2iJBE/ZI2PL0QmCgrjHi8V2gjeHVQVvweBAbaDXll1y3aC7vK4SUTBY8Qyon8kjbyQ1vhGFPeeHghIpEPBDK8OQKkAy8p8kD80QEXaUGQQ5ChDBGhEMXCrlmIK4RJ3mln1BHlSB2RN66PlideLbQdrgseJdQXogttgDImHsqDe4u0Ex7tlLZDXZD+rKBeEMIQyWhHtH/COfbYY92TjXrifqCtEgblS7lQvngYIXZwPu2Itk575n7gA6SDewNhjbCoh/BbgDARa0I9UN8In9x/tFW8bBDbKB/SQFoDtGm81wiDeqYNIQBSvpzP/cCaU9w7DIwRYbj3KDPyRPum/kgn4hHX0qYob6YUkmauQRQkj7Rd6gEQvKgD+gfqkTZKuXDvU/a0j2gfQRpIK22Ktb/YRYw0R0Ub4iJNlAdp4rMnfTPnUt459Z4SQghRsOA5wMs7xhJC5CXYDWGpCFHwCLaWXj7mLhnbtm1L6jyTPTE08gsYekxVwkhFlMAwx2gK4BGBoYYRxpQvpuiw2xZG0q233urnBzC8MDq5BiMXYzArMOIwLhEziJOHbFBBMeAQLRAGiIt4EAe4SZIN4ZN3PlnlfV8gj5QFbYKy2BeDknRSP3hlhHTua3kgghEefxFFQvkHgiFNPSFQsdMYazUhxGUF7QgjH2EREYM05uR+QGBCsGCNo549eyaO5i607zA1CzEiOr0IkQGBjTWjEI2ygoW4EX5YxBzxiOlSoZ5216nT1qkHPIlCPUTLjXrgfkLQYK0lhCXWLcpqihmE+5nzqQfurf3RL1HXxENZkddk3TcB7h/yQL1k7iPoixDO8EJioXT6pSjh3mNKJsIRwjB90Z6KQUIIIYQQQojswVZJNVLaEyhZYBhhIGFkoTZnNubIU3BH5DyMVowvPCmCJ1AghMVvXJNdeXAe3haEiREZFTS4hu8IP/xOmvaHAAS7y/u+EMImf5kN+z2FsEgf6STMZJQHYZA2hIrMAhBg4OMZwy5rGOKsEYMHSXZlFPJLeHtSlhj4iE0Y9nig5QXknzd+tDnaZbSuECNZOwmPp+zKHU8ghB+8xjgv2q53V++hHoLIkfl8RDjEDLzj8DZisWc8vpJdD3sK5UQcpH1/xEGY9C1Z9RFhl7Tzzz/fpydmbr9cS94RJB944AEXjBCtEMWSPXVMCCGEEEIIkTpIBIpBmvlgOGWX/ujvvGVnnZ4wRQRjMArn7SqswK7iDL/lJJx9gbB3lY59JVl52B/pDOHxyQoWNWbrcgxppvOx5hNCSXZEw9uTNGKs413EVCSEkLxgV2lnKhPpI53ZgSjBfYFIhtdJCCcn5bCruIEpcXi7IAbhCRTdvS4rQrzZhZcs8jIORCGmgCEAIXhllQauQ6RCkGY6H1PKmCqHYIdnHYJQmMoqhBBCCCGESA80HWwvwIBifRU8fTDcs/IiEakPa/qwHhMiH9Og8KBQXWcNIhBTuhCMkj1vm2mATJejHlhHB/FC84ZzDvXC+kV9+/b19aoQkOi3mE7H+laswUT7plyFEEIIIYQQOScVp4OlrAiEEMOaFywkpTfZQgiRPQiaLHr/xhtv+GLW4WGFaMdC6IhALDjNVD4WAGfqGKKnFoYWQoj0hBcwYX1LIfIK1u2kLWZe+1AUDFgOg/VxeYGcyi94JQLFyC0RiAbDgroYLvLOEEKIXYMQxO6GrA/E4tkB+k/EHqbxsYsauwPyOzvLIbILIYRIPyZOnOhrYLLWnxB5BetSMvuCTUdEwYM+hpeUrImaV0tiJAOJQDFySwRi+2V2auJttTyBhBBi14SdAPGgDA8r+ms+9KFhEWretrHW0NVXX+3TxYQQQqQfbIzBrp3du3dPHBEi95k2bZoNGTLELrnkksQRUZBg3VXW/WTt1VT29pIIFCO3RCCU4X79+lnv3r19jQshhBBZw8OJdZvefPNNe+ihh3Z4ArHOEgtLsysc6y317NnTunTp4usHnXDCCVa3bl0/TwghRHohEUjkByQCFWwkAuUdcqERQogCzuzZs61Pnz723HPP+fzrsH1+27Zt7Q9/+IM99dRT9vDDD9tJJ53kO+DJu1IIIYQQQoiCiUb6QghRgJkxY4Y9//zz9tZbb/lbXRZ+5o3L//73P7v11lvtrLPOsubNm1vFihXdq1ICkBBCCCGEEAWXlB3ts35FvXr1rHDhwokjQgghArim4gHEAvqsoYbXzzXXXGP//Oc/fT214447zlq2bGnVqlVzr6AobB+vabZCCJG+VKhQwSpXrpz4JkTewFikdu3aiW+ioIEdz8tJlicQuUvKrgnEmhYLFy60mjVrSggSQogIbOuL18/w4cNt7NixvuYP28Cz0DPbcO4KxKN58+b5eZnFISGEEOnBihUr/FmCl6gQeQVjGdoi9p4oeLBEAWNOXkimshCkhaFj5JYIJIQQImt4qK5evdq3+OUNC4IOW8ELIYQQQgghkodEoBgSgYQQQgghhBBCCFHQ0e5gQgghhBBCCCGEECJfIhFICCGEEEIIIYQQIg1IWRFo/fr1NmHCBNuyZUviiBBCiH0Fl9bJkyfb2rVrE0eEEEKkG4sWLfIFW4XIS9asWWNTp05NfBMFDex47PkNGzYkjojcIqVFIHa9kQgkhBDJAxFo3LhxvrC0EEKI9GT+/Pk2e/bsxDch8oZVq1a5SCAKJps3b7YxY8b4LnAid0lZEYhGs2TJEt++UgghRPJYunSpbdq0KfFNCCFEuvHzzz/rZYDIczZu3OhjElEwwY5fvHixnDryAK0JJIQQQgghhBBCCJEGSAQSQgghhBBCCCGESANSWgTKyMhI/E8IIUSyKFSokPrXTOCyvHXr1p0+rJ8UJbvjeQ3piaY7+snLKdVZpSfzJ5llmVUdZv5wDnHimp7bZRPijeY5q/yTzrxIX7IIZZ3Muk0GpCe7tIXf8luZ0w72V1nyDNBzQOQHGJOIgovqN2/IiD3QkvrkyK0HBqvFjx492jp27GjFihVLHBVCCLEvYEwMGzbMDjroICtfvnziaHrDgoWDBg2yuXPn+np0PHMqV65sTZo0sVatWiXOMnv00Uf99+OOO85at26dOJr3LFu2zL788ktf6DVqxB5wwAHWtGlT69y5c+JI7kE6+vbt62sBZAcDQ57xhxxySOLI3kN8b775pi1cuDBx5NcQH3ExjunXr5916dLF6zI3xhjsjMLip88//7z94Q9/8LZFu+N4yZIl/RN48cUXfecm0tahQ4fE0dThgQcesCJFinj6W7RokTia99AWv/rqK79PevbsadWqVfN0Au3m22+/tXr16nmaixcv7sfzmrvvvtvq169vnTp1spo1ayaOJofp06f72nA8C4TIK1gPiLZ46KGHJo6IggR9DGPO9u3b+5gkVdkfQvz+pvDNN998S+L/SSG3RCAezBUqVPCBkd5UCCFEcqA/LVeunJUuXVpvZxKwO8kjjzxiI0aM8J0p+f7999/bRx995MIQQgVl9e6779qKFSusUaNGVrt27cTVec+cOXPsqaeesh9++MEX2ST9CEPkhbrOCyMP7wXKj8E9aZkyZYob2WwFzGCKcly+fLnVqlXLy3NfQQT6+OOPbdq0aR4f8RAf8Ubjw5BG/KReGzRoYHXq1LHChQsnQtl/LFiwwB566CEXGRgMly1b1j755BMXrhjn1K1bN3GmeR7ID8Z/1apVE0dTh7feessXHaZeky1c7Au0xSeeeMLefvttK1q0qNfFgQce6L/RTp5++mkrUaKEC6f8zQ/QlgcPHuxthHQlE8Ik/5SFEHkF7Y8+Ob8IryK5MHbCni9VqpTGnLlMyopANBQ6BAlAQgiRXOhbc/Iw5g0OngoY0fyf7YQxThm0YThzHM+YefPmuYHNMQT8EDbnYgxC2PERgYLfg/cFbwE5TliZ+3yEBIwgDHj+H/2ddIUdzjIb8XiSEh7xhPOj6eQ4eQjp5Pw+ffr4IKV79+52+OGHW40aNfxcPISOPPJIN5Y+++wzj7N58+YuHgTIE54E/CW+vUkncC5iAfGSPsoyhEP+wxarhEd8fOc8yg+BCmEBDwe8XfBmIJ0IHQhBoR6YXsL5K1eu9Gv5EDZeEhwjPdRNiBfWrl3rdcm1nIOXCmkO+eQYYQavlpAfyhMhgLQQD4Z2xYoV7fzzz7c2bdr4cX4nfUD4eGlQ54QbbUsB0sfvpJf4SCvlyvlZxYdxEY2vcePGPiAlToQX6hWxLEy7ySp/1Cv547xo/gKkibqg7rg+mibgunHjxtmTTz5p//d//+fiDuWJ9xZvSBHC+JAG8kza8VKhDZInwg91QDumfVAGxEEagWOkkd85llUa2QmKvNHuEDmiacwJ0fuZNhjaTCirwAcffOB/aX/kK8C5tNuwI1UoX9iT+4TyDPcJZR29TyjD6H3CeZxPmdK2uE9Ix6xZs7xNIOYS38yZM+2dd97x+7pt27Zez4RDHumjKFeORcuLY6SbtBEXwiJ/iYs0hTLieso7ms4AZUqZUJ+0P/ITrTva54cffuhx0HaT+SY9tDUh8pJoPyYKHvR5WT2TxP4nZaeDCSGEyFvGjBnj3jEYIghAGGOHHXbYDrde3qwPGTLEjU+MCQwYDCiMK4x9jK1XX33Vqlev7kYOH4wmjNsjjjjCDbHJkye7MUcceNzwAcL89NNP3WjF2MKIQtBAkMGI//HHHz19LVu29DgBgwrB6OWXX7ZjjjnGmjVr5sdJJwY3xhiGD+lkOle7du08ncTRu3dvFwWuvPJKDxOj+7333rM//elPbrwzteU///mPe9r06tXLp1hhXDK9ZOLEif5/jDiMduIlfgY+48ePt1GjRvkxyg1IJ3l+7bXXPBzyRRqHDh3q6acs+VDWCBeUDQLW+++/7+IA/+c8phRRXogU//jHPzyc66+/fifDGzBmX3nlFc8r8VIOeJgQPh5heKQEoQ1Dl7QSbhBnmDpFmsk79ULZUIannnqqlx1eNxiypJn0nnjiiV7OUSj/xx9/3NP/3//+1+MNYCzTvj7//HMPH6OAsBARmA7F1DyMYPKJKDdjxowdxja/UTd4nETFA+oF7y7yefvtt+9kPONpQ1lTz3wGDBjg4dHOMNrJH2Gddtpp3mYRk8gfxyibk08+eUf+ODfcJ6SPNFE2tFM8sIgXcYA4qAO8ZCgD2sUzzzzj9w95pD2Sl2OPPdZ/IyzSRp2SLu4jyox7kPqjTqmfk046ye8j0kjZUX/cD4QT0sg13333nf3000+eXtJI2zz++OM9/Jx6vdBGaLOUKWng/qZNVKpUyY466ihPL1xzzTUe99lnn+1tjDjJ56RJk/x8hBrKhbZCOZEW0sZ9QjnQfwDtkfZKuVHH3J/kEy+96H3CPUS9IILSjvBAo4zxkOO80J6pw5tuusnPQ5T7zW9+42ls2LChtwfuoR49etjvfvc7b2Njx4719kDbZ+xLv0Xb5j7CoCHNpAWhkXuSOiNv3OecSxjc14he3JPdunVz7yOupU65d7j3+Au0G9JCmZH+wI033uh1eMYZZ3g5CyGEyF0Yg6QaKesJJIQQIm/B84XpExgzGMP0/xgzGDgYLhi2GFwYcRhKGE0YXhhZeDtgQF133XX+lh2jEQOQsDCYCY81UjDS+GCkYixhGAJTNvr27eviCgYTBiThYzxi1CEekTYMJ9btwRjkXDwr7r//fjck8QohPaRz4MCBO9KJgIThTFgYXRjUeAhgVONFU6VKFRerSB9lgNFPfhAyMExJIx4DxMdbegw9jD8MNQx4DFXCxVgm70wz4TrSSRoIG5Hiscce87AQIBB4MJTJD2mkjPBiQBhA4EBoueWWW3YILoTHb3gyUD4IZlxH3ZAOzsH4Jj7S+be//c3ThjcE9UBeMf5JxxtvvOECB+nCsKVsEZ7wPIDbbrvNjWTCpKyoLwQb4qGMEB8QBPg/dcTaDoQfHS9Q3kxXo8xZi4d8BqgjBDc8MRAPGGwRFuWKqEE6yCPTvWgTtCUMadogaweSDuqbNhDiRAzAQM8qPtLx7LPPunhBW7r33nvt66+/3uE1gjFPvdMeEfiIh/zRBkeOHOmCAuVDGvjev39/D5P4SSdtkDRSF7QB8sF9Qj0iBJAnhCimq/EbwiFhkXaEI9or4XF9EIFuuOGGHaIE9URav/nmG08rgkYQZSgPyhqBM4h4nIf4RF6oZ7x5SCP1SDvNXFfZQZyIjJQD8dHeKBtEMP4iXlAG5JX80LbpL4iPY9z7XEO5kmbuDfJHGVEe3A+0V8Q/6ou2xj3xv//9z4Uy6pl2QrkRD+2EOiZuwkBsJlxERu4TjhMf9zP3CeFRz9Q532nnCDr0E+QNgRFhFRGHciRflC/lH0RK7nsEGu6dL774wtPMb5Q9cdGPkU+EP/6SV8qZfoKy4Hrqn3sGj6nXX389UbpxcZKypS4oO8oQCIvfKJuDDz7YjwkhhBC7ImVFIB6mDHQYEOZWnEIIkQ5g6GJgBCMjOzA6MSAxlhFc8PzAgMIAwqjBiGH6EUIPni8YlBhGGKrBUwYjB8Pzr3/9q79hx6DH8EXkOe+88+yqq65yjwvECY5jlGHscByD+dprr/XpPBhQCAMYary9x+DjLTriC4YkggiGGN4mGLW8sQ/nIC6cfvrpbsDiIYHRFxaIJZ2EgQhEeYS1fjACuRYj7ve//72XAUZgVATi+URYJ5xwgofDp0yZMi4yIXLh7YTBSFwYsISNYY9hyfowpA8PB35H9MHDCC8KyhKvB9JNmjDoMbpJI4IRni0XXXSRG4R4IVDe1AfGP8Yl8SNOYHwSH/WFBwf1waLElG3wjLj11lu9/P/yl7/YWWed5eUfDOBTTjnF6w4BAY8MfqceuRaBCU8byvPyyy/3usS4pb1Q/hjywRMFshOBKE8Mfby3aF+kAw8VjHHKBOGCODDg//znP7u3CfVxzjnneLlgoJMO2iHiY2jTuxKBMKgx1qlHPghwlCFtBLGM6YAIZbQl6vSyyy7zNkj4pBUBiPwBAh9x8TtTvfDUoJ7JD+ID5xEfIgj1hZhBWjiH+qFdUJdXX321iyjEQXugjZA22jbtk/uIMsBjjTpE9CLNiBDk/YorrvD6Id3UHfXI9bSXu+66ywWTiy++2K8nf7RL2iDpCW15d5BeBEPioJy4n6P3OW0ZLz0ESeqB+LlvEWy477knw33CPY5gwz2LNxDp4f4iLMoGUYd7iDRyL1CHhIuQee6553oZHH300X4uwiBeUngR0abpl0gj4h7ePkEQ436n/ggbrxr6EsaatDWEqqgIRLlz/5In6gXvKtoTZc7aPNQt6UdUou+hDSIW0zZYw4fzKG/uNfJNX0Jbp6w5n3uURZ/pO7jn8UAKbYU+FA8v7ifg3sdLinuRviFZcO+QJsIVIq+gDdJP5aQPEqkHzx7sefoZ2fO5S8pOwGOww0CGwY8QQojkwAMZ4wXjMycgVGCoBM8HwHDDWMEoxGgiPD4M4jBwMd6YHhHo2rWrG4P8jgGGWIQwgTGHkc5xjDkEFLwDEAwQhBAFuA4wkNghh7f3GHrEgwGLSINYRb7IEwY955FuDGnSSXoQrzAgSSf5wAjNnE6MUIxL1gW65JJLXITAQMOAJb7MAxjCweglfkQtdn7CyCQdeANhYGIAkx6M2+HDh/szDUEF0QZjGEOPPGG0UgahLPEOYdCEMYlHA3Augk0wrKOQFgQEwsBriU/wWAhg0JIX8o7RSzkTPgIGogEgVGBMk35+Iw9AWVMHlAMGNyIEvyHYYKST1uCZhCgSrtsd1B91TZ3iKYUHB/mnPkk7bYw6xBsCw5m4GFByDsYxxj0GBOdwfG/B8EdgIn+UPcIBaUCAoizJH0Ig8VNu1COCW/DcIO+kCdGKNFEfeJeQRuqWfNJWwj20NyBKUH/UPeIf9UE5c58gSnAf0e75P+2a9FOutHvuLdoPaeQeI71cixcW90lOIf3cH5QJZcX9jEDCXwSRrOqAsiPvCBkshM19gjdPuD9JJ3lCDKKcOA/DkLJD0KHd8jtlTbmTR/LBh3wRPvmkPoA+BZGH87IzLBFvKU/KAtElM9xL1B/36UsvveQiKnHTPqN9J+WIWE2boR0QLu2E8kGw4RjlhIcXZUP+EFDxEiLv3FfUFXnhd8Ih/OA1BeSHuHPaZ+cU4uVeFSIvoR+gjxIFE8RmXiwxBhK5S0qLQAysefAJIYRIDhhcGBw5NSgwYDDgomDI8MGAxFvinnvu2fHBEMP7hHgCGDFBtMCIRITgQ9hBWAnGGn0/hj+GHcZ0uA4Dlu8Yh8TBswERJXg+cAyRBUOKN/eIGiGdCAh4TETTiYGHmBJNJx4uTLt54YUX3HMDTxy8K7Iz3BFzeNOPNw1pIC9B1AoL6ALGLcc4Jxid5AWhATAKEQ/Ygj6aRvKIkRnSSDr4npVhyzFEgQsvvNA9ZfjgXYAQFIjuwEI5MfgOgkIIE4EHw5qBG0Z4iJvyD9eSDuoOkYZjoXz4S70hyuQU2iHpQHCiLeG9EfKPOIToQh0jhJEW6oQtyMM5iG94nBDvvkD+gmCWOX8hbI5TTuSPtCAiMrBFtGDKUkgTH66lXEP50TZou/sCAkH0PiKN4T4KdUBaiSukkXKlLhEnH3744R3powwR7KjvkMacQn8Q0gGkAZGY9kIeM4dH3eGpxDQt+p5wn5DW6H2CaILwwX2CQIJHFPcxAh3HKWuux+smWtaEh/AS4iVchLDdtQk8qKgnvNfoI6IQB30BojLtj3uC8qd/ojwDtAd+Iw3hO+XBJ9xTQHlRNnwIg76Dv6w3xvTVkBc8+BDJo5B3wg91nCzwjELQFCIvof/Hy1cUTOgvsefp70TukrIiEA/zMIgRQgiRPOhbw1vm3ZGV8YHhyAcjErHh73//+44Phh7TRPgtEL2e8KKfzGA4YVCSPgaHweAKogVhYYRi4CF6IDgh6DAFA2MOQxIDEKMrpBOxJ6t0Ms0HkSGAIYkXDG/nERZYw4XrswLDEAMKT4ULLrjAp0QxnQvvAsKJli9pxGOKcmdNE6ad4F2FoIMYhADBFBMWpY6m8Y477vBpVlwfyM4QpCwRA0gvXgx8+H/UEOb/ocwxUjFeEZrw7AovXBioYZhTD4gY4XzijdYX/49+h3BsT57bGNYIApQFZciUvZB/xDXKBO8X6pyw8XphWlg4h0Vz77zzThcKKMe9JXN+wvfosUDIH+2UcsQTBg+ykCY+TMFiehltEaGBcxE3M993hJ/T8sqqDjIfgxAmf4PAhxD5xz/+cUf6WAQZwQ0vPc7ZExAwokJI8HQinGgbA+5bxDzW5KJfCPcJ3nEIPNHy4D7lPqANcp8gAlHf1D33CWXNPY/wGi1r6p8polHBM6tyyQyLNHOvEx/3cQBBmbhpd0xH5R5EUCV9WQlL0Xj4f/QT4P/UCZ/QHmj7l156qU+xDHn597//7d+JO9zr3I/Ey/2aTBCk9KJV5DX0ATwbRcGFZ0ROn3MieaSsCCSEECJ/gkGGAYXQwHQCploxPQhjmCkYiA8YOHsDBhLGFiIS07OY5sHggSlTvCUPC8kGo4i4+T0szst0qWAsYWiRTv4i2DAlI6QTYSVzOhGO+M5xBJWoEZcZ4sQzAe8H0sP0D4xaBBXSGoWwiBORgp228PpBICBdGLhhag0eExi5nMsHAYG0UCbJhnxSzqQZA5h0kyemXJE+0oSYtasySAa0IYQ4RCCm2jCdJtQR6SP/tDcEOQxjBD/SztQxzkE04Dt1npWBvj+hfGiPlBvlh3BImkg/9Yq4hXBBHmnP5C9qdFOvGPp46xBGsqHuEEYoU7zNEG6Y8kYaETtJV/DSox2zThL33K7AYGMqF/c9A3sEE6ZyIHAhqJDfKJyPEET49A3cj7Q5vKgojyjcA3jHIVqxDhXeQGeeeaankWsoa37j2nCfUNbUA+0kc9y7g/MRx+gLEH1II2CQUp/UD/dBEGHpf5IxpYG00h74UHa0beqD/FA+/M4nwLQt0sp5QgghRE6QCCSEECKpYJCwdgw7abHgKVNh2G2JKVfPPfecizGZPR5yCkYexiKLqhIO64cwTYotsjGWeeOPgRTekmM8IRKw2xHGGwvzBmGHdGJUshAui8qSTrblDulkodd9SSfGJx4o7OZE/kkr3khZGfRhRyKmnSB4YLxiZCIMhbVe8JZgGgphkWfCY/rL/hAIMLgxqvG0YCcsyoU4WfiXcmRRaMp5f4tApANhgnVfECCoGxZbZmoY5UB5kgZEANoEBjFbhrNQ+VNPPeV/EdYwzvdHOe0K2hmeNIiAtAHqjnZFOb744osucpAmxDwEItZFwOskpJNFghEYmKr14IMPWp8+fbyNJxPqkLrkfmE9HsqXuiatLF6NqEZ6+Ms0RXZg21054kFCW6V+mM5EHdEfIMxEp4kB38N9QvxcQxkhOGUVD22B+5+pSpQbwgj3MfcJC0EjGOIlRBkTDvlh+ibC5e7SnRUIZPQhhI+HEwRxmfqjLXIf0sb2tq/IDGVCvKxbRNkRR2jL/J/7MeSFOBGVaWuI2EIIIUROSNndwXjDxGCZgRODbSGEEPsOxgWLjvLGeXfTC8L0FbwuMr+FZuoHYgbeKxi3GOeEi5HL23OMKLwe6McxEDmGoYU3AtMbSAdTosIzJawDFK7Fw4NrmUqCRwDpYM0eppJE35LzfwQAPB1YIwhRI+oRQjox0kkna42EdHI+RjiGK0YtRieiCEYoHjpZwTkYtKSNMBFxiJ+3+ayPhIcCZcIW6fxF3AliFXknH8yNx1uJaWshnRi7xEn4/E4ayTdiDHFRJuSR8BG1SDfiSYDfMGBJPwZtEMEC1AOeUAhPnBPKjzSFhY6Jjw/PW7wj2OkohMPvtBeEKgQ36oI48ZygDsN0IsqU43jwUI7ReqDO+Z1wMOyjz3XyjhiCVwlb1FOWrJ3EFCPCov1hOIddnChHDHS8USgz8hF2nArtibj4kD/ii4oTrENEOyWN/E55I9ARPnkJ+SM9LHxNnQPX8OFeCGlCsCB+2iqCHX9DeyV80k87oY2xflGYLsi1lC/lQHvE0Mdjhjqi3rk3Mfrx5CEsyoP7gvVi+I06JS2UESIPaQC+8xtthPOB/1Mu1CNrb5BG4qR+uDdJD+XOws6UIXnOaqzHPYoYQh6oB8JAPKIMWFwcYYPrCJ/7g/IM0+Foc8RBWdNWyRdx85e6C1AmCDqUB/cywk9IC2HiFUQYhBX6B/LLfUxdUiZ48YT7JFrv/MaUUsqQsSV55XfuJdJI2KSFuuX/eCGSFtoBdUC50D5Yc4z7m3iIm3uOeiadjF0pJ9oTwleAcuLa0HeQT+5F7mnioG6oY64lbLyq6DtIA+tgcd+EBaij0J+SDtor+Qj9TU4gX5xPOQmRV9CX0CeE/koULHj28awIXrsi98iIPbj2/NXILshqYLA/4GHNII8Hu0QgIYRIDogvGIIYKbsTgXICxlGY7sEDnikmUYFiXwnrAgUjbW8h30G4SHY6SSMDWQxdws1siFE+GHd4M7HbEAvBIhBkPo+yRLggjQgj1E/UiN2fkD4Ga5RNXg3UqKPQlqhvyhJDPTOIJBi+tAtEqSBq5SWUHW2AciRN1F1UBEOwYEtw7jvWmEE0yG2CAIsIRhq5n0IbRGjAE4jpV4iAWYHgwkLprO2DQMP9Q50RFvW1O7hPiJuyoW4zjyepe4zBsHsY6ypxn2SGsmaMSDsJZb0/xonEQXrJI2LWnggse0LIN+2FcgmCHrz77rteL2yRjzCbGdKHCM39QJtC0Av3ze7Si4AaBEMh8gr6BdqiRKCCCc8dxpy8RIr2bakGz4FUI2VFICGEEKIggKcU4g9T1jC4mJYm0guEK96GMt2HRcoZEOcnRowY4R42CA3ZiQeIQHji9e7d26cyRRdiTgakgWlm7PLHW2N2y0p3EIzxqMILEg+hrMAj7vXXX3chj6mvrDeGRxniKHWpcbsQQuwbqSgCpex0MCGEEKIg0LdvX58qxBpK7CQWpheJ9AFjHO8uphLhVRL1EsoP0CaZcrQr7zg8VqZMmbLT9M5kwppITANj57Bzzz3X14FKd5i2xjS7qNdWZhB7aFN4SDFdj/XPWFcoLKKOt1RueRQKIYTIH8gTSAghhMhDWO8jTMHBWEvmdDkhcgu8mVi3hp3PELSSLSzgKcV0SNbOwetF90nOQaBjLSp2VWPBbAQjvA4R95gmxhpDeAmxDpHG8UIIsWdoOlgMPTyEEEIIIYTIP7AoNVP28KhiahiCGoYLXkR4biEAsag5C6Wz1hKCtNbcFEKI3SMRKEZuiUAsJMWif+yikJ0LrBBCiD2HnbLYCYjdYYQQQhQMWOgZIeijjz7yxaIxXJh6iFcVY2kW8GaKGTugsYMaf7UwtMhL8GJjV0NESVHwYJrq4sWL3SsxlaelSgSKkVsiEKvFs4gm2+hmtTuIEEKIPSf2TPDdZjASEIOEEEIUDOjf2aGO3XjY3QwYt/NBDMIIY0FvhB/WGmKMzc5jQuQVjEMmTpxoRx99dOKIKEjgoTh48GBf642dC1MViUAxcksEolNggTt2ocir7WqFEKKggZHw7LPPWrdu3axu3bqJo0IIIVIZ3rgjALEwNLuKsTA0hgteQKxHxpt41nM6/vjjXfxhrTI8h7p3754IQYjch7WshgwZYpdcckniiChIMC2VMSeL/aeyt1cqikCaRyWEEEIIIUQBBQMFD3reuN94442+3T+7t5UpU8bF/p49e/qW+6+99ppdeuml7gWkhbeFEKLgIhFICCGEEEKIAgprbrz33nt266232vr16313tR49eti9995rL7zwgl1zzTXWvHlzrbEphBBpgnp7IYQQQgghCiAsn8Aab/379/eFnm+66Sb73//+Z1dffbUdeeSRVrt2bd/SX54/QgiRPqSsCMRi0LiwspCdEEKI5MGioEwVEEIIkbrg9cPaP6yd2atXL7vyyivttNNO80VYGzZs6OJPduNo1gfCY0iIvIS2i1ApCib0P/Xq1ZMInQek7MLQmzZtsoULF1rNmjUlBAkhRJJg7QjWi2CRULYLFkIIkZogAjFWpl9nvLwnu+myiDQbBVSsWDFxRIjch13saIu0X1HwYMF6xpzsSpjKQlAqLgydsiKQEEIIIYQQQgghRF6h3cGEEEIIIYQQQgghRL5EIpAQQgghhBBCCCFEGiARSAghhBBCCCGEECINSFkRaMOGDTZx4kTbsmVL4ogQQoh9hXnNU6ZMsbVr1yaOCCGESDcWL15s8+fPT3wTIm9Ys2aNTZ06NfFNFDSw47HnsetF7pKyIhCrxY8dO1YikBBCJBFEoHHjxvnASwghRHrCjj2zZ89OfBMib1i1apVNmDAh8U0UNDZv3mxjxoxxu17kLikrAtFoeEvB9pVCCCGSx5IlS2zjxo2Jb0IIIdKNn3/+2Q1wIfISxiJLly5NfBMFDez4RYsWyakjD9CaQEIIIYQQQgghhBBpgEQgIYQQQgghhBBCiDQgpUWgjIyMxP+EEEIkC/pW9a9CCJHe6DmwM6yZx/SV6IdjUcI5mY/nB/YlbXmZr121w+zqATiWF+ndHbtKczqifiZvKHzzzTffkvh/UsitiuTG4QaqU6eOFS5cOHFUCCHEvrJp0yarWbOmlSxZMnFECCFEOsEaHWXKlLFKlSoljojRo0fboEGD7Ouvv7YRI0b4gsWsm1ShQgUrXry4n/PDDz/Y//73v3xpo8yaNctefPFFW7BggTVr1ixxNGf06dPHPvnkE89njRo1Ekf3P5QjZVirVq3EkV9gLZlPP/3UBg8e7L8zZilUKO7fQB6pK9YUKl++vBUpUsSP5weee+4534CjbNmynrZ0h76Ge6VYsWKJIyI3SFlPoFKlSlmbNm2saNGiiSNCCCH2FYT8Fi1a+OBfCCFEesKLAAwz8QsIPO+++64NGTLEpkyZYsOGDbN///vfduONN9qoUaP8nNWrV/tvLGaMgJGfePvtt120qlKlSuJIzkFUmTlzpucvNznwwAOtefPmiW87Q5r69u1rDz30kItUCxcuTPwS393uzTffdLGOF1v5iXr16tn48ePtiy++SBxJXxDnsOf10jH3SVkRCFWYjkEuZEIIkVx4O5Wf3poJIYTIXUqUKOEvXHcHnvnsJIbHxYYNG9wQnzt3rq1fv95/RwjhGALCsmXLfrULEFtDcx0fhBPOQ6gIU2X4P+GxI/DWrVv9WBTCX7NmjZ8zf/583z04XMv/Q/iZ4djatWt3Sg/XkUY8ZkhzZvFg5cqVHmaTJk2sZ8+edvrpp1vXrl3t22+/dUFo+fLlnkaui6aVeBAlZsyY4XkM6QPOJY1Z7chJGfJbNCzyiwcM5cROnqQnCudzHfkjL8RJ+ZCf7777zr2WSD+EsiNuriONc+bM8frMDOVEXEHYIg+UB+mYPXu2i0PRfBE/YWaubwhxRsOiHIg7CE0hz7zsL1269I5rCJd65kP8tAviQPBBfAt1RhmQH84J8QDXUxbTpk3zv5nTx3fyTziEQZoQm0J7Jl2UP22E86JhBzhG3XAO6ctcR61bt3b79aeffvI0pjN4bmHPa1ZP7pMRa6hJnZAoUUYIIYQQQoiCD4b+q6++6uLCihUrXOTA0+Swww6zcuXK+RQijG0MfaZ71K9f33+rXr26X9+vX78dIgAGM4IJU45OOeUU/45hj9GNGIBHyAknnLDjJQUCER44P/74o1+HDcL0mmOPPda9mBBBxo4d67+deeaZfg1gvH/11VcuNvTo0cNFBsL6/PPPXTQhLcRHPo455hifaoSxes8999iYMWOse/fuduGFF7qxT95OO+00P+/yyy/36x9++GHr1auXfzgfYz8IRKS9du3ang88bhEZOIc8E24A8YKy46XMUUcd5b+TH6Y/IRwQN+VJWJ07d94xRQtPJYQO8kC5Ed/RRx/tQg3TkC666CIXsMgPaerbt69VrVrVRQvi5LrKlSvbEUcc4V7BgTvuuMPzRp6oP6bETZo0yYUZ8kVeOL9Tp06eLqY7UTft2rWzli1behicR/ugvRx//PEuRpGP6dOne33wG+nl+rZt27qHSGhXb7zxhlWrVs3bBOmmThAOXn75ZY+b+C6++GI766yzvI0R3k033WQnn3yyXXrppS40MH2PNFF+pIW4KTfqjnIkPMrp448/9vbJecQdhD+m0CHsTJ482dsO7YOy5TjXEh7tiHqjXhGUaEfEceSRR+40pe2RRx7xeqcuTjrppMRRkapEBdBUIWXXBBJCCCGEEELkHRi9119/vU9vwRsHUQiD+4ADDvDpUxj8wYME74uJEye6rYAwgBBx22232dChQ92zA3EGIYC1XBBuCBORBfGD/yP2dOzY0cMHPHAQMTDsEQ+CSEK4GNwIFB9++KENHDjQDW2EFOImDaSL9HTr1s2PYbi//vrrLjIA8RIu+WnVqpUb88SHsNKoUSMXKDD8EE5IA1N82rdv79/xuEEQ4YNYghCFaIA3CXFyjDAQEcjvW2+95esNIbyEaTFMY3rhhRdcSEBYIR0fffSRp5v/U56IMpQL/8e7hHzffffdvkZO8M7Bo4uy+OyzzzwPhFW3bl2Pg/r6xz/+4eVBvogL4QNxgrJE7KFcKR/STN7IU8WKFb1MyQtiCkIJeSTOhg0buog0depUFzoQ2A466CAXdqhTptIhkhE2ZUYeBgwY4OERF+FRFqSDeuYc0va3v/3NBUHSjMiFOER+OYYIQx4RpSjTBg0a+PWUA+IN9UI5EC51Q3jUHed8+eWXnh9EH9osbSwIXghjiGIco5y5jjgoB8qH8Am3cePGnk/aLwLSa6+95mUCiEGIgLRFBDHSDISF+EVdIhAJkduk7HQwOjw601RU3oQQIj/DAIuBmBBCiPQE4QYDOKdgFF9wwQW+KPLVV1/tU8mefvpp92Jh3Zz//ve/LjjgcYGQgcEcxvCIA0yrYm2XW2+91U499VR7/PHH3Qvm2muvtccee8wuueQSFzUQERArSFv//v3dK+SKK65wYeH+++93DxuOI0oQFwY6BvnIkSP9OkCcwobA2wTDn3AffPBBF0euu+46FwFuuOEGO+644+zRRx91MSA8E3k+IhQFQQsPFcoKsSKrRbQRn26++Wb7z3/+Y//85z/tT3/6k+frnXfe8XARKfBcofwQnYByQQgjbYg7CA2IH5TPoYce6h4ut99+u4fXtGlTX+yZPGAbAcIcYg8iDHF36NDB04uXFHFHIS7SQRnee++9LiJ16dLF3n//fRcpQplFIZzevXu7ZxRpIA48rUgDohtCB+mkPBCDCAcQT1iX6JBDDnFPLc5DAKRO8eCh/ignREXShKBHmJR5NJ20sf/7v/9zcQkQqc4991w/l3pGwMsKBETq98477/Q4KEPEuG+++cbFpADlSFr/9a9/2QMPPGB/+ctfXKBCKKQ909aeeOIJFwK5Ds8griF9d911lwtltB/C5y8i1DPPPOP1EtoRYhVhMv0tnW1Z8s69GNquyD1SVgRCOUWpzqpzEkIIsXfwQOatFfPvhRBCpCd45uDZkVMQDhA08LZB1MG4xTjG+wGjHE8KjHmEDZ4viBLB8EOkwHDGW4TfEWf4DS8dhBmm2uBdgqhDmjCkCRNvDQQUDHMgbqZpITBxHt4XiDMIQR988IELR1yLlw1hIkZwDG8NvD0Ii2tIK6IMYgdpRsjgL+AJgljC1C3yjKFPOvk/3imZwZuFtBA/nj14/SAaEQ7lhBCAVxRThvAiId/YOHjecAwvJIxkpiGRLr6TNv7P9UyFIr+kMQgMBx98sH/Cmk4817kGMYlPFMrhxBNP9HKm/JlyRflT3qSB8sgM11A2CC6sxcM0M8QcRA7SAXgdMVUKkQ4PHOw1RBJEIsqKKWgILZzPX8Qs8sSHdPDBSwqhjWNAOvHy4bcoiEC0PTxqCA/vnqwIgh9eUS+99JI99dRTLhBStpRPAK8epvghYpFXBCsWSqdMmKYI5I+0IGRxLeVEPWObIk4RD+mmTGgD1Cn3A3UP1A3Xkvd0hvKgzGjjIndJWRGIxkKHLRFICCGSB4NFBi4SgYQQIn3ZUxEIUQARBhijYxgjnCAQ4OGBcMLn+++/d++L6Jt/DOJwLYYxRj5iBX/5Ho5jkAfvpLBWCwY7H+AcDHeEFYxwDG8MeEQNvDgQTRAkyBvHEZ4IL0wPwoMIj6CQVrxWEF1CGgBRCaEJTxDWM2JBaKYqMQ0qK/CWYfcwhAfSixDBlC/SEkQb0kGZIKTgZYQHDL+xBhLCF+WJIILNwxo40fLEiwYBhfTzAbx9iCcKeYieE0BAYToUokaAuiAM6jArDw3K78orr3QBjHV2CJv4qB/yFcCTijRjryHO4HFDXAhUhI9AwliDdoa3V8gTH+JGBEMkIQ7SicgWTWdmzjjjDK97pu0x1SszTPejrpiuFQQ02g4CThBngPwg3IR6J0zKhE80fo5TnuSRMBC5SCfx4EEU8kLboy6j5R/+H21b6UgQgbhXRe6Ssi2PTokbLtxMQgghkgN9a1YDPyGEEOkBhm3UMN4dCAAYwBBEBIQcBBOmQP31r3/1D4IIU3Hw3AgGMH/DtcD/wycQvodxP+FjkGM8BgOS5xaeJ6QdUYL4mXbDtB3EHgQo1p7hWoQTxBgMeQQswmYR4T/+8Y870spUJ4QOvJnCWj2Ei2DD1CLEDLyMMosoQFoQl1g3BhEK0eScc85xr6GwKHYAcYPyYCFt1v3Bu4bveJoQLuWJKEFamfbEFLloeYZpYfwOWZUn4hiiHM/3KJRnKLMA5yDOkJ7MIgVhML0LYYMpYXyYysUaP+QjOnZgnR7KB08lppchzlDGlBftBQEGARCh67LLLtuRJz5MC/ztb3/rQlAQ/qJtLCvw5MKrjLRTjlHII+sBUY+0x/POO88XZQ6eRZntycz5Jt6syhW4lnqivPg/YtQ111yzIy9MCWPKHEIQdQmIUJzLNemO7Pm8Ib3lRyGEEEIIIUTSwLDH04YpRniAMJUGIYS1UfCYQUjhsyuDfncg7iAy4JXC9C6MSAQKdscifuIkDozuED8CENOyEBZYTJj4EQCCWIFog3cIohFp5RzCQDRCgAD+IiRwHn8ziwVREC/waOF68k28ePhkXs4CAQEBA68jPH2YhoWYgdcREA9CCYIFU+CYShXKk3STFj7ZpYXjiER4T+F9EwXRBg8dpsSRXjyR8LzhPESuzFOvOB/RDc8k0kS+EHUQWZjiF4WyJx/ANDjSzrb61A8ggJBHygfPHabFIbiRL+qMPIVzcwKiH1PQKB92ByNNAQRN8kRZkGbaJufj+YzX2L5CXmlHiHes30SZhHZE2ZMX8hnqCK8h2gD535f7QIi9RSKQEEIIIYQQIikEUYPFgvG+YErYs88+6wtF85fpTlGPkb0BcYbpRogULM785JNPevisq8MaQQg4wTsHDxU8cJg6hdiBmIIIAIg6GOx4LGG89+nTZ0c6WTMG8YLpWHvqqYBhj+GP9wfToSgDFnDGIyZMA4uCQMQaRayBg/BB+kkX4OGDqPab3/zGBSTWFmKh4fBB3NpVeZJHFopG4OETjZ98IUYgjj3//POed6a4IcaQ9uBdFOA7a+Mg2OCxRFrI1/Dhw7NMA8IWgh1iHX8Rr4KwhAiDSIRQgmcRi3CTBuqScBH39rSdIMIQJ6IMAlwAryPEH4Qgyow0Ewffk+GFQrng4YVnFGv/sOZQqB/KlB3QKHfiIk+smYUwhVCUytB2ENtYIBsRNhllKXKHlN0inoZGZ8082swdlBBCiL2DBziu3gzgGcAKIYRIP/BUwGsB8WFXYMji4YExi7gS1udByMDoxmMEbwueK3iKEC7iBtOpCD88b8J0KAxkRBfECnb6CostM32GDx4iGPkIGyxizPl4GxEHAg/pZZcyPGSCCISdwJQvNj1AvOjRo4enNUBYeGswjQgDng95ws5ATGDBYf6yGDVeOaSVNGcFXiWkkzQSJkIHCw+zEDR5wk5CvMIrhC3hw3QghBFsG9YZYsrU8ccfvyPvQDiER3niqUNZUnZ4LxFG586dvTwRF/BI4VzyDMTJ/1mUmb9MZ6OeMN5Z94h0hEWa8chBzDj//PP9vGDXkXeEN+wuBDTKgd3MKHPqlGsQc6gTBKcA8VA3pJdFlfHUidqK5JGpaohELDRNeAgKTCGjjMnLggULPBw8k/CcIW6gnEk37SwsLE6d86G+aIOUC22BtPM7eWbnOMJEAKJuSTPtl7ZDvHhMIVbxnbCYrkQ8hBEWIQfqk7RQTnhFET7CGeIT9U0+aEch/VxLHfE7YiX/RyhN5bEWIhBtEqGTdk75AeWWE/uc62nHtNc98foS+05GrPNMqmSXWyIQroh0Vlmp1EIIIfYORCAGbAx+JAIJIUR6glGOgbY7ESgnIG5gfGP0srZNMOKTBeEj4BA+osK+2CJMicLgR9xCXAmi1r6AWIE4hNiE4EE6oxAXv+M1xdpBeI4cfvjhLjpkBflFqADKM6fGM4tekze240f4QaRA7Pnd737nAg32FGMA8o3otCs4DxEFox9Bi/FC5nIP9Y43DNvy//e//3VxLCuC+IegQL4JD1GFOGiLeEYlA9JEWVPPCFfUyf4gCEd4/1Ce0Tpi+3+84RA+LrnkksTR1IU2gNcW9Uv7RnjDqw1hjLrkHsrc5gO0fcacCKvJ7hdyk1T0gEpZEUgIIYQQQgghUhm8Rdg9DGEAcYfpbVEvoGSBRwqeP0w9Y1FkRCCmmDGFie+spZNMEAaYZsaC3Hjq3HnnnbITYzA1EFEIIQ5Pp4IAohciJouU442G8MVUv1NPPdWOPfZYFyup+4Ja/6koAqXsdDAhhBBCCCGESGVYxBgBCEGAXaXwvtofHioID3jUMD0KLxs8b5hVwTQrpl4l2xODRa6ZBoZnSK9evdxLRJhPH8MLCKEkOw+ZVCNMz6TtMi2MqZR4gTEFk3W1aGd4muXEy0zkDvIEEkIIIYQQQog8gHV9+CDSIASxnk1u2FN4b+C1wRpNeGqENZSSBQIQy3fg1cRi0ghPomDD9L0vvvjCBUAWCw8wNQyRiHbAlMDDDjvMBclUngIWRdPBYkgEEkIIIYQQIrVhHRemDwkhRE5h4Ws8gJjmiDiCNhCETbyBmHbIYt4sJM4i6Cz2neoeURKBYuSWCMRCUjQythssKK50QgiRH2DHC94K8tAWQgiRfrB4LiIQb/WFyCvCot94kIjUgHWt2IENTzAWxg5gr+MNxoLcLATN4tHdu3d3DzjqN9meaLmJRKAYuSUC4W42bNgwO+aYY2SoCCFEkuBBNnjwYGvdurXm7wshRJoyceJE30GJZ4EQeQXT5GiLbC0v8j+Ix0OGDLFXXnnFhg4d6k4biD+8WMTjBwGI6WCsE8Vi4fyG0MxueOwyl6qkogiUsi40KMOsah9VGIUQQuwbPMh4e8OWtkIIIdKTJUuW+G5SQuQlbD8+ffr0xDeRX2HsiG3ODmHPPPOMO2qEqV8sgt21a1e77rrr7L777vPFz9k5jPWAtmzZYpMmTfJrRe6ieVRCCCGEEEIIIYTYY/D4GT16tN166602YsQIn/bFmj9///vfrX///vbggw/67B08gkT+QCKQEEIIIYQQQggh9gi8tb755hu74YYbfEoXHj+vvfaaPfLII9ajRw874IADcm25GJFzJAIJIYQQQgghhBAix7BuGFNHWasX8eff//63nX322dayZUufCoYApA2c8icpWyssBl23bl0rXLhw4ogQQohkULt2bZ+rLYQQIj0pX768dmQSeQ47R9WqVSvxTeQ3EHjKlSvniz0z3YspYCz+nNNNm7DjWTCa6WMid0nZ3cE2btxoCxcu9I5BQpAQQiQHFvebO3eu7wwmIUgIIdITtnlm8xXtEinyknXr1nlbrFmzZuKIKEjQxzDmRDhKZSEoFXcHS1kRSAghhBBCCCGEECKv0BbxQgghhBBCCCGEECJfIhFICCGEEEIIIYQQIg2QCCSEEEIIIYQQQgiRBqSsCLRhwwabNGmSbdmyJXFECCHEvsK85ilTptjatWsTR4QQQqQbixcvtvnz5ye+CZE3rFmzxqZNm5b4Jgoa2PETJ050u17kLikrArFa/JgxYyQCCSFEEkEEGjdunA+8hBBCpCcIQLNnz058EyJvWLVqlU2YMCHxTRQ0Nm/e7Pb8+vXrE0dEbpGyIhCNhrcU27ZtSxwRQgiRDJYsWWIbN25MfBNCCJFu8CIAA1yIvISxCGMSUTDBjl+0aJHb9SJ30ZpAQgghhBBCCCGEEGmARCAhhBBCCCGESDJMc1m+fLl7OzCDgf+zpAVTrwFPiK1bt+74vifsy7VCiPRGIpAQQoidyMjISPxPCCFEuqJnwb6BODN8+HB76qmn7JZbbrF///vf9vTTT9u33367Y/rL6tWrbeXKlXs1BRsxCVGpoK+nonZYsFH95g2Fb7755lsS/08KuVWRdKx86tSpY4ULF04cFUIIsa8wGK1Vq5aVLFkycUQIIUQ6wcYrZcqUsUqVKiWOiD2B3Y4eeOABF4AQfOrVq2elS5e2mTNn2sCBA+3UU0/1Z+wTTzxhn332mR144IH+3N0T3n33XXvxxRetVKlS1rBhw8TRggXeTth5e1o2InXg/sCeL168eOKIyA1SVgQqUqSIVahQwTs+KYhCCJEc6E8ZjB5wwAFWqJCcRYUQIh1BoOBZULRo0cSR5LBp0yZbu3atv8jlhcOMGTP8WLFixdzYx6tl1qxZPnWKuPmEZxHCVNi5kmvnzp3ri1djE3A9ggG7mi1cuNCvwajMbCMwfYqw+RAv+QzhEzfhkjbCjEI8XEsao+kJaQXSwG9cz/l/+9vf7IgjjrCzzz7bjjzySGvdurW1b9/eDj/8cGvQoIHHhSBEejGCEdwIk3BIN15C5CcsnMtzOeQHkembb76x0aNH+7U1atTw/JBu8sH/o2mlbMJC3yFvhEnc5IHfOD/EnV+g/suVKyeBoIBCWytfvrzGnHlARqxTSOpE0vzUcQghhBBCCCHyB4gWH374oVWpUsWmTJniYkanTp2sbdu2LnZ88sknLvSUKFHCRZdjjjnGOnbs6ALJnDlz7Pnnn7fatWv7/xFJEDwQVDp37myTJ0+2iRMnuqCBcHD88ce7CIPoEQSit99+2+bNm+diC8fr1q1rZ5xxhqeHraqZqnXQQQdZly5dPL1ct3TpUnv88cc9LNKKrTN16lR78803Pa4glLVp08bTW61aNVuwYIELPn//+9/tnHPOsZo1a/o5gEhEGIMHD7aHH37Y89KyZUtr3Lixe7z06tXLvvrqK/vhhx98qhjnkw7y/Zvf/MYqVqxoI0eO9KllCEGtWrWypk2bWvXq1d3DaMiQIV6u5IHwgij1yCOPuACFIEUZIEBRXngoET7G+NFHH+15FELkHO6xVEOSmxBCCCGEEGK/M3v2bOvfv7+98847LsQgmCDYIEYgSkybNs2qVq3qggYCyAcffGAjRoxwQYj1b7gOIQcBCGEIjxfElJdfftnGjRtnZcuWtcqVK/s1n3/+uYsdgCjSt29f+/LLL90DBtGHY0zFIjy8chBmEFAQYIgbiPe7776zL774wj1+8FYgD0zFQtAi7aSVsDhn0KBBLqjgUdOoUSMXcgYMGOBpnDBhgocbXpjj3YKAxLnMbMAbIsxwIDx+Iy+ET7wfffSRiz7knWv4nQ/eTOSba/Hm+f77723o0KFeXgHEMsqXNPz8888ueCFicR1CEfWA8EbahRAFn5SdDiaEEEIIIYRIHSZNmuRCDALO7bffbl27dvXpTHgHIdycddZZ7u3Srl07955BuOAtO141CCgIKggX1113nXu9IJCMHz/eRY9LLrnELrroIvdmIR48ixA3WI8HAYdrjjrqKPvd737n1+IFxFQoRCC8gRBDEHxWrFjhvxE/4smjjz7qXjLHHXecH/v666+tT58+dvrpp9vFF19shxxyiJ+PKES8eAORRgSkn376yY8hbrEe0JIlS9xWwpuHdCFc4Ylz7rnnusdQixYt3EOJdDN9DA8hxCSEsVGjRvn0LcqmWbNmnj/KhOlmv/3tb90TibDwpkLoIl1cBwg/iGB4DbF+EAtWkw8Wq8YziE+HDh28DBCShBAFm5T1BEKpRiVPRfcrIYTIz/BGVG8DhRAifUFE4LM/QFBB/MGLBsEBjxXWBmIaGCIGnix82P0KDxiEDqZkAZ4vxx57rItIXItHD8IMoku3bt38d0QUxAz+T9h4CzHlig8iEIIN8JcpXsQd1hFCYEG8wYMHTyXixjuI6WpMxyKNiDlM90KAQvghrcuWLXNxhzQz7QwvnyuvvNJ3BTvxxBM9PryObrvtNhdeOIfws4OyR0BCBEOk4lrSNX36dI9jX8Djh3VVyW+/fv1cDGIqHR5G+e3ZT54Zk4iCCXY89rzGnLlPyopAdIC4Mu6qAxVCCLFn8EBm4BkW3xRCCJF+IFLgJbM/QJzBEybMHkBoYbFo1gh67LHH7L777tvxQQDAmyW89OUaBJ/grYLgg+DChylSAY5DELMQaRA9WOw6nBfEEAxQRCbOwxuGa/FKQkDCMwibA08kRB+ejayvw/lPPvmk3X///TvSikCDd08Uwrv66qt9LSOmkP3lL3/xKWOIO3gcZcc999xjN954o4s/2Drs1Ma0Lzx69tX2QWjDqwnPKNZAuuCCC1xAu+uuu3xaXn6CssbTSxRMuOcQUvG4E7lLyopANJaxY8dKBBJCiCTCQBv3dIlAQgiRviACsfZNboAQw3o4eOHcfffd9uyzz+70ufzyy3d47+wNiE54DPF8Q9jB8wAQd8I6P/we1vFhoWmEKaZVffzxxz69i7V5OA8BCk8mvI+YzsbizNG0shA0izRnBd5LiEKIWkzlwkOJMBG2gsiFIMU6RohPp512mgszv//9761nz57uiRSdqsV10WsD5IPjGNjA7whO4TuQllNOOcXFqWHDhtm//vUvN8ZZcymUT34AEYh1jETBBDsee14iUO6T0tPBeDuQueMTQgixb9C34oIthBAiPcE4i4oG+xNEFcQXxvQIEngJseU5njekgWdS8OzZG/ASQkBhLRwWi8Zjh7jY4YvvrK/DGjzBqwgRB88bFk5mqhReMqQJOF6/fn0XUVjHCK8ariW9CDR46iDsIDYhqDB1DLEHEJYQNBA2SA9xcT2/s1ZQsGn4i0CFrYM4hscSYhWLS4ewIGxvj2AXtYdIG55VePVwHFGHtBBGCJv4MLxJN2XPdDfEsvz2AijYe6JgEton9Sxyl5RdGJrODfdA3hrQaQkhhNh3eCCz+CSDZdZrEEIIkX7gBYQAg0CwJ3ANXi5cz25VjNGjtgGLJDPVivE7W7EjnPBBEGFsjwcMHxYuZjcsduoiHJ5JiBjvv/++T83iWo6zjg0eLIgtLNIc4mILddb5QWxhwWQEHtLC8w3PA3bZYq0fxJrzzjvPPXSCPYGwQnjsTIbQwhQuPIVIJ7+RVv4iWLF2EGsCMW2L3cEQWFjMGTHlueee82Pkgb94FXE+nkYsfo3IhcBBXOSZ35gSx4LQCFSs08PSF5QFcSAAcX6PHj38Woxn8sii2Jzz448/+iLblAsLUTPVC89exCPEKaZ6s5U+8RMeXkDEy/Us1k3+WCOJ8iJ/+QE8mJiWSHsRBQ/6C+5J7hkEUZF7SAQSQgixA4lAQggh9lQEYs0dPE8QRhAwmJKEUBGmJgUQMhApEDrwoAliA1PC8LbBAwlPGcQO4sdLqHnz5i7mBG8Bxv5MxyJsjvHcYopVx44d/XfgesJs3LjxDi8dBBK8XPGAQUBhfaDDDz/cp0XhcRPSifBD2Ig9TAU77rjj/P8BziVM4iat5Im0YsRSXmE6GGWCKERa+CBEIcCwExmeN4SJZxFxcT3h8dw99NBDPe1cg71D2imrLl26eB7Y9YtpaZQjaQniEMfY/YuywjYibj6Ez+5f1Af5Je14JVHHlAVxh3MQgYg7vyARqGBD25MIlDdkxDqcpM6nyi0RiAXZcMNkK0k6ayGEEPsOg1Bc4BkIMlAUQgiRfuCVgkCAMJAVPCv4nWlFeKMgAOGNwnc8dfCu2Zt1fAgXgQbjH4EDw3BfpoJlBcIKwgnCx74YnohPiC8IKoRFevkbBSMXbyX+Yq8g+uTUy4byDdPLEMP2xDuHtCEAcT3iEFPKojYav5MmyhnhDfEpTC/LTyBU0a7OPPPMxBFRkKCNMubEuy1MuUxFuJ9SjZQVgWg0uEy2aNEi6Q8HIYRIV3iQ4T7O4J3BqhBCiPQjbGGO50kUhAPG4AgfTGNiShUvZdkynWcG4g9TnTJfJ8TegKcVC2XjDSYKHvQnzOzBYw/PtlRFIlCM3BKBhBBCCCGEELkHU71Y/wbhB+MN7xGmPTG16ZprrnEPfaZqCSFEuiARKIZEICGEEEIIIVIf1tBh8WQWDmbLdKbn4AXEh8WPmT7E+jMsnsyUjlq1aslDXwiRVqSiCJSyC0MLIYQQQggh9g9B/Ln77rvd+wfPH9b/YY0b1u3B8GEKx2mnnebreQwcONB36uIYa+OwLfm9997r4bBw85w5c6xPnz722muv+do/bLVO+E888YTvVsV1eBS9++67dt9997mHEbtyzZ0711555RV79dVXd7ruySef9N2tuI41b4gvXFe5cmWf0kZ8fLiuXr16Pn0tXIcXE58QH+uNsr169DpEMOJjhy+uY+FrriHOAQMG+HWsg0R8TInjGtLKdcTHFvNPPfWU79TFdaxBRHz333+/73ZGfJQpeXvppZd2XMfuZeE68sZ6Q8THdey+Rnnzl+tefPFFv45p3JzPdVzPdUzRC9cRD/FxHXXAdUz54zp2COM60huue++99+yBBx7wfHEd6SW+F154Ycd1lMfTTz/t5UPdsdg21xEf5Ug6KVfiYzeyMMUwXEd9RK8jPq5jcWrqkfjYZY1pQ1xHOwnX0cZYy4gd4x588EFvJ8THdcTHdaz9xHWsK/TMM8/4Lm3ExxpLxBeuIz7a6euvv+7nER8LbHPds88+69cRH+eF+GjPhMO6Sm+88YanK8THmlqEw85sXEe6uO6hhx7yha4JByGV+MJ1xMfOecQ3aNAgv45yD9cx/TJcR3y0R65DeGU3PK7jPkWU5b5hd7twHenkvuU67rdwHYsyh+sQb6PXzZgxw69D7A3XsQYW13Gfc92nn366Iz7u/4cfftimT5/u9cJ6VH379rXHHntsx3Xsdke9IChz3d6sGyaSg0QgIYQQQgghxE4gnGAMs0AxhjnGNeIPggMCUDBSMR7ZEQsjj50lMexYjJjzED34jY0GOA/PIQxi1gDBcCR8wsFwRvzgOoQCRBauY2oZxiL2BXFlvg7DOcTHdcTXpEmTX13Hrl1cxznhuhAf6SS+6HWkE4M7c3zkkesQLbKLj/wRH8IX53Cc6xCTovERNsfDddH4QjpDfBjVHAvp5Di/R68jPsImPNJDfNF0hvi4DsJ17DwWrssqvuh1xIcwQBq4LqST+s0uPkQXCNeRTtpWNJ3R+Cg76ie7dEbjC9chsHFdiI908luIL+QvXEdawnW0WeJD/IJo/nZ3HfFxHfdDiI/ryB/tPavroumEzNdljo+2R7lE0xni4x7hOr6H+NiBLlyXVf6i8WW+jrLOfB3/5zzqNhof6WTHuXAdwhLn8p37OVwX4uPcEF+4jntF5A0pOx2MBhreEOS3leyFECKV4W0fD/swQBFCCJFe8PYfgxQPFDwk8PRgQxbWBJo8ebJ7T2DUYmxC165dfetztn7nGiGSAaIjbRFPK1HwQGTDkw4xCFEpVUHcSjVS1hMIFzNc31AaCxcunDgqhBBiX+BBhvszb2548ySEECL9YCoI4g9v7PHqaNasmR1xxBHukcFLAp4PeBZgoPPcYIt4XtBizKW6QSfyD7zwp21p2lDBhD6DqZl4F+nFY+6Ssi40KMO8ieAthBBCiOTAYJ43vWvXrk0cEUIIkW7wdp61YDKDGHT55Zf7mih33HGHnXTSSe6lwdSPjz/+2NcAYe0gpoYIsa/w0n/atGmJb6KggR0/adIkt+tF7qJ5VEIIIYQQQogcgxcQU79uv/12X1T2rrvusi5duviCuCxYy9QxIYQQ+ROJQEIIIYQQQoi9pnPnznbjjTf6jlMXX3yxzZs3z6eTpeJaGUIIUdCRCCSEEEIIIYTYa1gjiGlh7GjUpk0ba9u2rS8QnVtrhQohhMg5KSsCsXiUFoUWQojkE7YEFUIIkZ6w69fe7MjEjr1lypTx3XvDFt9C7C2Ii2ynLgom2PEs+q2+IvdJ2S3iN27caAsXLvSOQUKQEEIkB1z32fq3UqVKEoKEECJNYSoXW8TzLBAir1i3bp23RQlBBRO2iJ8zZ47VqFEjpYWgVJz2mrIikBBCCCGEEEIIIURekYoikNYEEkIIIYQQQgghhEgDJAIJIYQQQgghhBBCpAESgYQQQgghhBBCCCHSgJQVgTZs2GCTJk2yLVu2JI4IIYTYV5jXPHXqVFu7dm3iiBBCiHRj8eLFtmDBgsQ3IfKGNWvW2LRp0xLfREEDOx57Hrte5C4pKwKxWvzYsWMlAgkhRBJBBBo3bpwPvIQQQqQn8+fPt9mzZye+CZE3rFq1yiZMmJD4JgoamzdvtjFjxtj69esTR0RukbK7gy1atMj69etnvXv3tlKlSiWOCiHEnsEAY+bMmbZy5crEkfSGLYE//PBD69Chg1WtWjVx9NcUL17ct/MsVEizioUQoqAxatQo27hxox122GGJIyIv4Zlbu3ZtK126dFrtxIwX0JAhQ+ySSy5JHBEFCbzOn332WTv33HOtSpUqiaOph7aIjyERSAiRSgwdOtTefvttd0cV8QfZ3LlzrVKlSlayZMnE0V/DQJRPkSJFEkeEEEIUFBYuXOje9rVq1UocEXlJxYoV7ayzzrKWLVta0aJFE0cLPhKBCjYSgfIOiUBCiLTm/vvvt6efftoHGiVKlEirwdXegFHAdFzKifIqXLhw4hchhBAFBaZpgJ6JeQvPXKbKVK5c2W644Qa76KKL0srukQhUsJEIlHdIBBJCpDVBBNq6dat16tTJmjRpkvhFZAVeQgMGDLBGjRrZkUce6R5DQgghChYzZsywTZs2WdOmTRNHRF4wa9Ys+/rrr32RbolAoqAhESjvSFkRiEVLR44caYcffrivSyGEEHtDEIF4y8Yg49hjj038IjLDQ2706NF288032xFHHGGXXnqpNWjQIPGrEEKIggJr5eGFguAv8o4RI0a4kfzVV1+lpQi0dOlS37FUa1MVTFh3bNiwYda+fXsrU6ZM4mjqIREoRm6JQLy1Rwg68MADcy1OIUTBI4hA1atXtyuuuMKOP/74xC8iMzzkGJBef/31dswxx9hVV10lA0EIIQogTEGiz5e3fd7y/fff22OPPWaDBg1KSxGIaYm0xbJlyyaOiILEtm3bbPXq1S4ApfLyAqkoAqXsti40lHLlykkAEkKkJHgyPvTQQ/bEE0/49qe8cQXeivBAZNeyDRs2+DEhhBAiN2FjAAlAIq9hTSoJQAUXdpjFntf6krmP9vYVQog84KeffrIXXnjB+vTpY1OmTNkhAnGc9c7eeOMNn3olhBBCCCGEEMlCIpAQQiQZ3ELx6GHK6sqVK/0TXOsDePmsWLHCPX5YfJPfEIK+++47e/LJJ+3xxx/3NQAIhw8us2LvofhixRyrB3ZboY4SPyTge/RY+J75POD6WJV4eJnZ1W+wdWv8N/5mhjRyLQ5g/J45br7vKg9CCCGEEELsjpQVgTCIMKJScQ6eEKJgs2TJEhs3bpx98803Po9/8ODBPv1r3rx5Luhkx+zZs23hwoV+DsIQ/8cbCO8gdlDIDyBmBUFqX6fj0n0jeKxbl/0naF/sVoz4kdU5fLITXYhjzRqzWbO3x8pxu40ctd0mTdoeK9t43ITP7zNmbre5cxHi4tctW8bCqNtt0aL4dyD+hbHvU6Zstx9/3G4TJ263xYvjcezqNyCuxUvMpk6Np2PaNMLe7vkiDStXsRtP7NrYb6NGb7fJsXC4nnwRxs8/s0vML3mYGMvDggXxeIUQItnwUiJsEy9EXsEasLsaN4nUBjsee14vOnOflBWB1sVG/WPHjvWHlBBC5CfuvPNO3+7yN7/5jV1++eW+i1bPnj39L4IOg5qseOCBB3x62Jw5c3w7WKaL9ejRw8455xwbP3584qy8g4f1t99+a8uXL/d53PsqAiGMDB++zb78cpt98UXWH7QvRJDZs7fb0KFZn8Nn8uTtOwSjKOvWbbd3B2yzc8/famecvdV+c8FWO/nUrXb937ba8B+2uwD04UfbrNsJW+2CC7favHnb3Qvn0ce22fGxY/+68Ze6+vqbbfaHP2y1U3tutbN6bbXzY2H984attiV2iv929a9/C1VNPv/+jy128mnxdHDeX/661aZP326rVm2355/far3Oi10b++2832y1k07eajfdvNVFpfXrt9sHA3+dh+uu32rffZdQmYQQIonw0oIXE0LkJayRyLqJomCC0DxmzJjYOEdvtHKblBWBaCwSgYQQ+ZEmTZrYb3/7W7vjjjtc2Pnzn/9sVapUce+gd955x6ZNm5Y4c2fYdr1t27a+6yE7JRx88MEeznnnnefX5yUIP+Tltddes9atW/suarVr1078unesWLndHnxom91+xza79b9ZfxYsjIs7X3y53e6+J+tz+HwwMO5Vkxk8b0aN2m6FY0+7iy/IsGefLmy3/ruQde2aYZUqxs9BZHIBKaJpIa1sjx3jNx4zeO48+vh2Gz9hu3U6zOz66zLsT9dkWPt2ZjNnbLfH+G184re/xn879BC8peIePK++hoeQWZdjM+z2WzOsx0kZNnKU2fMvbLMBA7b5b+UPNLvi8gx76vFCdvO/ClnnzhnGepg0lxEjtnuaLvxNhj39ZCG77T+FrHv3DKtc2ZMrhBBJhRcREoFEXsOUeYlABRfseOx5iUC5j6aDCSFEkunWrZsLOCVKlLCff/7ZXZkRdvg7ceJEW7p0aeLMnTn22GPtkEMOsfLly/tuGIceeqhvW9+7d2/fwj6vwDPppZdeci+lFi1a2O9//3vr2LGj79qxL1Qon2F//Wthu/XWwnb7f7P+1KieYYViT6oux2XYv27I+hw+p5+eEUtPIuAIxYvHjy9fbvbd99vto4+3ubdPzZpmlSolTkqQnWPTho3xa5kuVq+e2YknFrKepxeyk09GTCrkHkVzwm8nxH7rGf+tR49CnvaxP2736WaMcZYs3e7flyzZbuti34d9t91+XsuOl/HpZN8O226fD94eayPbrUEDi7WDjFgezIoVM1u5gu2Ct9vHH2+3ebH4qlcziUBCiP0Cb+iZlixEXoLntHZKLbhgx0eXGRC5R8qKQEIIkd/gYcZU1SFDhtjbb79t7777rq8HxFQujvM7i0Fn98YDb58KFSq4uMKnYsWK1qhRI6tfv74LSnnBjBkzPC/vvfeepwMB6Mgjj3Shal/Bvhg/bruNHLndRvyQ9YeiQutnDZ8xY7M+h8+sWb+sHxSlevUMO+aYDOveLcNKlozFN367Df6CKWLbbcrUnYWfbYmpW4w3o15FHEeUwSOoXLkMF6YIt2rVDKsW+8tvW8NvNX75rWbNDA9/xYrttjGW18JF4mlcuzbDSpXMsIPbZ1jdOhnWtEmGdTs+w446MsMKxc5nTaFPB223d97ZbvPmb7dq1TLs6KMy7MQTYteVNl8PKORh0uREIoUQQgghhMgBEoGEECJJIPIgmrz11ls2cOBAF37atGnj06fwBGIdHd6s7uqNB+vshLV28trTkbwg/nzyyScuTv3hD3+wrl27JkUAAoQRBI0xo7fZqGw+rOkDLKI8bhyLJmd93tw5Wa8JhCdOjermAssJ3QvZ4Ydl2KLFZp9+tt2nihUpYlaiZPzcNT+bTZ223b75ZpuvQRRAvKlVK8OKFY2nY0rsOqaHsXD0tNj/a9XMsKLF4r+xoHP4jQWoqcJqVeOiD+D91KZNhh1ySIYd1tGsRXOLtQ2z+vXNjjkaMaiQtWqVYdNnmH3w4XabPz+eB4SlIxN5OCyWhyXLzD4bFItvct62ESGEEEIIkVqkrAhUuHBhN6r2dWFSIYRIFog7M2fOtMWLF/v/Wd+H9Xy6dOni07ty0l8VK1bMP7g/z507172IZs2alevu0CwKOmDAAPvoo4+sdOnSdtlll9kZZ5zh/08WB8SCYspUr16F7Nxzsv6ULx/3pmnRIsN6np6R5Tl8EFWYUpUZvHQQjxBnipcwq1U7w3CqqlDe3DOIqVaVKmZY1SpmK1eae9f0f2ebL9gcKF7M3GunWbMM3zXs44+32euvb7O33tpmgwdvs3btMqx54rdPPvnlN85DmCLtLVqYlS5ltj5WjS5WxYJnxy/WIWIa2Nix230HMzx98CZCcGLNItIXz8M2F5X4jiBVMpYHtLhSsTCFECLZ4H1aSh2MyGPwimb8JAomjIux57HrRe5S+Oabb74l8f+kkJuiDB1DtWrV/O26EELsDUOHDvXt21mIuUOHDtawYcPEL3sOnjvLli3zHbQWJfYWZ/rXDz/84FPEmAbGlK+jjz7aVq5caV999VXMqC/u31lMmj6NxTgnT57si0cjxPCXreJJFw/K/Q15YCFG1v9hEety5cr5DmfsUJZsYtm1evUyYnnPsKZNs/4gevBYqVAhI1YGWZ/Dh+lXWT0K4msBxb1qWNfnhx+2W7FYmEytOvqoQrH6iAW+3WzzJrMFC+OfmjWIN8MyCsXCbsIaT4V8qhdpQCiaOctswkS2nTc7sGyGrwFUsWKGrcr0W5kDMuy4LrFrD8zwD1vZT5gYS8OI7TZyNGsMZVjjxnFPoTE/mn3y2Xb7fnh8G/gysXDP7JnhXj+IRsN/MHt/4C95KBIruxO6ZdgxRyfyIIQQSYbnIs8AkXcwDhg+fLh75h511FHuXcxYIZ1gnFRZC+AVWLDjsefTrV3nNRnbtm1Lqi+5PHOEEKnE/fffb08//bQvvMwizOx6tS+wiCFbxPft29cXVGYA3bRpU6tRo4Z71SDm3HjjjT6gu/322/0N10033eRbwZcsWdJ34WI62fPPP2/Tp0/38A477DAPk0WZ9zfE9+CDD/pC0I0bN7arr77aTjvttJTu2xFRWFto+fL49u+VKsXXB4q+eOL4ypVMD8tw7xqmiTGVi2yHrIfZeatXb3cvHhZrJix+39VvAc5BCFq1Kn5y5coZHg/wG9eRBkDYIYwgbJEHnMGWLcs+D0IIIQoW33//vT322GM2aNAgu+GGG+yiiy6Sh5YQ+Yy8Xr5hb5AIJIRIa5ItAgHeQHj04O3DGyzCLhKz9teuXetvOljwmW0xOY83IJUqVfJpVvSfiDDsKIY3Druz8GBBHOIcwtqfkJ4XXnjBXn75ZWvZsqV7ADGV7YADDkickbrwfEY84S/CSVZeQ/zOIyx8sgNBhg/nZBZhdvUbhN+B36Px7Oo3yEkehBBCFBwkAgmR/5EIFEMikBAildgfIhAg8vChT9zf4k0ywGsJDyQ8gJo1a+ZlkaxdwLKCnb4efCiheIh9gkWvL/mtFCEhhChoSAQSIv8jESiGRCAhRCoRRCCmbZ1//vnWqVOnxC/pAx5AX3/9tb3//vteDtdcc42vPbC/BCCYM2e7ffJp6j008yOsiXREZz17hRCioCERSIj8j0SgGLklAjFNgrUzWChMC0MLIfaWIAIxBYut3OvUqZP4JX1YsmSJ70TGtK8rr7zS2rdv72sYsUuZEEKI9GPNmjUWsxFyZUMCkT3pLgKxMyrjM6bEi4IHfQxj0AoVKqT0wtASgWLklgjEehl0jOyqI0NFCLG3PPLII/bEE0/4dKiqVaum5YCXfhvx6+yzz7ZevXrZl19+6WsCadAlhBDpyaRJk2zTpk3WqlWrxBGRF6S7CLR48WKbOHGieyeLgsfGjRt9zMkGKGyUkqpIBIqRWyIQ2y/369fPevfuLbdIIcRe88orr/huWCzczDbohx9+eOKX9AFvSt7CNGrUyN/KPPvss9atWzerW7du4gwhhBDpxFdffWXr1q2z7t27J46IvCDdRaBp06bZkCFD7JJLLkkcEQUJNkxhzHnuuedalSpVEkdTD4lAMSQCCSFSib59+9p9993na+Fce+21dsIJJyR+SS9C3y0RSAghhESg/IFEIIlABRmJQHmHFtMRQogIiCHp+BFCCCGEEEIUfCQCCSGEEEIIIYQQQqQBKSsCsRg0C5kWLlw4cUQIIUQyqFWrlpUsWTLxTQghRLpRvnx5bQ4g8hymvtWsWTPxTRQ0sONZekCbPOU+KSsC0SmwnTOLuQohhEgOTA1r0aKFlSlTJnFECCFEulGjRg1/2SpEXsKOrc2aNUt8EwUNtoVv06aNXjzmASkrAhUvXtzq1asnTyAhhEgiiEAM/PfHA5kFHqdPn26rV69OHMkZLFY9f/58GzlypA0bNszGjRuX+CVvWLlypW9OwKKpmVmxYoUtXLgwy9/2B2yvOm/ePJsyZUriSBzSsXz5cl90cdWqVb7Nbli4kPTPmTPH62LGjBk2e/ZsW7ZsmW3ZssV/X7BggW8PzfUi/8J9QV1+88033t5ScWHKZEMZ0L/8+OOPXi4//PCDt/+cwHU//fST379bt271+2Nv+ivuG+6/6L0XmDVrlt9v/JbfYcfIypUrJ74JkTfw0r927dqJb6KggR2PPY9dL3IXrQkkhBAiV2AnNnZ1RHjYEzDC3n//fbv11lvtlltuseeeey5PDV4My4EDB2aZj+HDh/tvGHq5AWLOu+++a6+99lriSBx2lEEwmzp1qo0dO9Y+/vhjN2yB9L/66qtejq+88orXy4cffmgzZ860DRs22GeffWaPP/64i24i/7J582YXRH/729+6uBDqN51Zv369jRo1yu644w7fSenee+/NcX/DvXL77bfb4MGDXVTj3njppZd+JbDuDu67cO+NHj3aPv30UxfsgPvsrbfessmTJ/t3IYQQIi+QCCSEECJXqF+/vn/2dKoZWxXzVr9ly5b2xBNPuHGXlzuafffddzZgwAA38jIzdOhQF2X2VOjaW7744gsXAjp16pQ4Eufbb7+1r7/+2o1NxByEKUQDIP2IaohBeFjx9y9/+Yv9/ve/9////PPP7s2AICTyLwihmzZtcs8t6laeQHEh56OPPrI1a9bY008/bQ8++KA1b9488euuoSyXLl3q7R/RBi8ePnjb7Qnce3y490aMGOHpCXVz6KGHet/AMSGEECKvkAgkhBAiVzjyyCPtiCOOsGrVqvl3PBeYhsRbdwwvpotNmDBhp2lIeAExJQOqVKniLsPMIQ8whQkjeOLEie59E6Y0BZh2QRjEQVx4yDCVizgwFPmd6/Ee4Hi4nnOZEoVRGcSTAAZddgZ3+C36O0ILHgF8+H9mjw0MTqagMBUFwxFvhiikHWOUv6QbbyPOx/uD8kIQ69ChQ+LsONF08AmeCMB3Fto8/fTT7eabb7a7777bvYLIPwIRYWcFU1wo5zFjxtjcuXN3CpM0h3LODMf5ROuGa6lXvJQICwM8CvmlTVA//M55TH0i7VEw0DlO/NQn04AoF75zLtcjkpFmyi6aBv7PsXAt9U35EzeQRsKiXpYsWZKlpw1hMB2PciGd0XNCvWUlplGWxJk5PcRPXqmDzO0OCJNzxo8f72001O/uoG4Jl3bOfRJNZyjr6DH+T56jAgjx8B2PMcQNyiZzfVNmlAPlzb1DHqPwO9eHespKYKFOyB9xEAblEs0jbYky4D6g/Ye65i91QbqZPkJfwadQoUKev6zaIHHtampWiJfruJ6y4rooQTwiL5zP7/wNn+j5CFIsuEwZ0N6EEEKIvCAj9nDa/ehhD8itt7MMqhjINGzYUOsCCSH2GqbC3HfffVauXDm79tpr7cQTT0z8kp5gtCDGVK9e3UqXLp04mhyYYsQz4uijj/aFHjFMESEaNWrk05qCKMNaFOecc44dc8wx1qdPH5+6hMHIQqWHHXaYX9+lSxc/9vLLL7uhSLoJmzUsrrrqKhc5EIuoXzxhSpQo4dM6MAjPPvtsF2QwsjHQEGYw8jCqr7zySjcMEQ6C0EH6/vnPf3oYxHHbbbe5x8wll1xip512WiJ3cZiuRnxXXHGFde7c2Z588kk3eDFGuZa/Bx98sF8LlAH5w2gmD2x2wDPt0ksvtVatWvnaTG+//baLM6yNgPFLHs444ww3wPGQwrsKTx6OB2666SbPX7t27Tx/eCi98MILHh7pxwA96aST7LzzzvM8YuBS3t27d3ejlrLo1auXnXzyyR4e083wbggGM+XFjh7XXHON1xdCCdNeypYt62kPYwHipt5JI3VKnWAAP/LIIy6EsCMIggNlTL00bdrUr2M6D0Y1xjuCSNWqVe3MM8+0Qw45ZCcREFGP8qNtUGfkhXzgcYEg8Oabb7o4QFumvMgfbYfzaT933XWXp400kTc+fOc8RBNEBkSmAw44wE499VTr0aOHx088XI94RtsN7Q/x4bLLLvP2h0hBmbDQOvUFnEeZ3HnnnZ5O+huuQ/SgrZBG2hl10L59e4+zQYMGHh91j3cLoiVpYMFU2tOjjz7q04+4p6JlA7SBp556ygUVoH3xQYz4wx/+4MdoD+wIePzxx3u6qVuElD//+c/2xz/+0QVG6oIwuJ+4P/Dmo6y4Fykr6of0PfPMM952aGdcg/dez549PQ+km3rnL2mgLIiPNkgZ8f2NN96wIUOGeL0TBvmmL6JvRjyhPPGi4b6hrTEWRFTu3bu3txPaAh5wlAtthfQdd9xxPg2LPCF80taAfNDOuB9JIwIZ9w3tkLb/n//8x9sm/6ddki48AJkyRpqA+4Z78PXXX/epZ9wLN954o9+LbF5C26A/eOmll3aMVZ9//nm/H0nbb37zGz+WH2EtI/If8iryBvq4xx57zAYNGuResBdddJE/C9IFxgXcu/QhouDB84YxJ+MJnn2pCs+vVCNlPYEYKDFAy+pNmRBCiL2DBxkGaeY3+MkgeFpgVAMGHMYr69VgPB111FFukGEAsh4HBiAGGwtVY+hhiGGQYjjyGwYfaWXw0LVrVzeCEYQweoM3B4Y6U6Yw5hGQTjjhBB9McvzLL790IQKxBi8ljDSMeoxdRALC5FyuR/TZk+lRGMBM+yCNTZo0sWOPPdbFh8MPP3zHjjuUNeuDIF6QB4zwjh07uiGPYY9RSz554RGmffE7RjcvQMgDvxNeVAACwiKvGKLk7/zzz/+VQBBgEEbdkD/EjqwWBa9YsaKXPXmgXBAReAazfhCGMCIq6cW4RTwL8J2wKQ/ix3hHuGNQH8IjLK5BAAjPdPJK2Dzr8R6jbdAGMueTcDD6MZAQHAgPQYF2QLvi/G7duvlxyglDHjGLPNPOSB/x0Kaoo8aNG3t6MdQRCagvypL2xHVhmh9lxTm0Z9oo4fOX9ojYRroRLQgLI450AvEiGnAdeUUMwSMKsYr00A4JizZDWEzb4zw+lBvlRHlxDoIT4WQH13A+63BRdqENMnUwalAh4FFepBlolwhnTMMk3bQxRMr+/fv7/UIYfBBXCAfBBRENwZY2iQAXziGtDOy5DoEIYY6dYPgNkRMPGgQSRC/aBmIN8Ye0BsEYsZD64D6gnYXf+VDvtFvECu4L8kpd0274TvwYGbSpaL9GnAg0pJ087griJw7aCvUSxFBEHtoFwlcQiWlvfLj3qM9zzz13hygKCG6ER3rys+GAWJlba5sJkR08X3h+i4IJzynGEjxzRO6SsiIQjSYMkIUQQiQPjDGM9twCjwY8LC688EJ/y4k4gHGOocXbfIxFjGKMOjwjMNQRklh7B8MbgYNr+YvQgzGKtwEGN2BwHXTQQe6hwpt3jEY8Q3ibSlwXX3yxeyPgDYAAxLQzPAY4fsopp/h5eHXsySCFN+gIB4gGpBdjlvAxCDEMeXZhkL7zzjsuoCDsINpgPOIhgscDxmmoB/JAXvEyueCCC9zA5HqMSASazCBeUF6UGx4llC+CQyCIJ4htiBkIZxinlA2CXGYoV9KIgY9hjyBHeEEEQkQhnzybEfaA8v/888/dSwRhBkOYPJFn0keayC9/MdwR5YLoAJQ7gsUlCY8rBIesPH85Rp1RX7QfRAZEDT4hfMQC2g7GOoZ/EAkRicgv9U0bwgsEARBPMYQG2gteJm3btnURgjDJF+IFAh7HOYd4aUPUC14h/I4QwYf/IxwA5YPQQV2SH+qPqWQsRoy4RloRnfDAQlRAYMAjgzDee+89L3/i4kPbZFeV7AhtDGGGdCCkUY6kk/LIKQhe3BfkgTb8u9/9zr26KBfCRBxB7EKII03UF3FQH7TpSpUqufiDIEr54P1EW8ITDZGGNkKfQ1oRregPEC4pC8qWOLlfuf+4r6mz0B65F8466yxvY5Qp9zNtnnZMf0D/gcdQVITZG8gjbZ46o31TJ5Qv3oXknXZGGkkb9x3pJx2I2uQ3Kl4iDnLvUCb5GeojCPZC5BX0P9Ed9kTBgn6Ufp1no8hdUlYEEkIIUTDAUMOIx5jHIEdQwODDeyAIAlEQWDCgeBGAURkMYaaCIbBgSPIbb/qB8JgWldnDBYMO4QIPFT4YbfxFsMDLAsONaS9cHxWVgkGZVdoAwx7RhvRgjCK2IFhFvQjIA2/aMdAZ/PAXIQCxCYECAQTDPwhPCBMYlNE8BM8NPDEyg5FJeZIH/kYFIEAMIS6EDMQFjHAEKkSGrKYBkla8aBAwEKjwjCL/QagiDsQ6jHHEHAbu1ANeJhj6lC3p5RjeBZQzwgJ5pkw4n7RSzqFc8QChfrLKXxSMfAxv/hIG7YY4yCPlRxx88NoA4uIcIN14VyGkcS1/EaQoA8KkHjmHY/yf66gv2h9lhsBG+wDqiLDII7/RTmh3/MUbiPaIMUPZ0W4RZvD+IV3km3gQfUgr4gLx0JaIizARyLguxEeaEBuyEzgIj/wg2jHVCfHtk08+8emJxJtTyDPxU2cIVCE+/lIm1D+/066Z9oZgEn7nGuqTPNBWKGPiJ4/8pU3QNmlfXEd9ExZpZdpXuB8Ig3uRe5Zr8Er64IMP/N6iXMK9ub8gL4hTCE5MzSSNtC/qCbEEUS2Uy+7uPdoz54b7VwghhMhtJAIJIYTIUzC4g6GE0YThCBiXWU2XwCDE+wQQRTBEgevCzmMYZuHNEh4VCASZwRgLAkMwWAmLDwZcOE6agkEOpJXjQWQKkC6OcR4GLeIHa84QLl4Q//jHP3wNEkQSRKAgcjHVBnEFozYYtggQeAiFdJDOzHkIZUZYewoCBGudsDYNa/aw7hAeHkFgiIKB/dBDD7nHEFOXyBtiD/WGIUseALEBQQ7jHg8odiQj3Yg5CBb/3955gFlVnft7zaBSFEFUQBAQEFAUe+9dk2iiUaOmqBhTbpKbcv+5SW7K1ZuemG6JmhgVe4m91wh2EJEivUhVAelIn/9+1zkLjpNpwDAzZ877Ps95Zs4+e+292l5rfb/9rbXIG8qF6zGth99TmhHtELnIq2RMc5+qpqZVhnzAuyLlFWIEQg9CDKJHugcf8hCPkZR33Ct5cAB/KX/ineohUAeAuJPfpIOwxC+dx1/iTPlTPzkXEYjr4+5OGpkKxu+IgwifiFTEF1EGca0wrvyGsMa9+Z3rE68UV75z7eogjUyRYt0txCDKmDVF/u///i/mSyq3lN+FzxppTN+JB/lJvpC+yvCcJjEnCXGFUO7peSX9heVOPcGrh2sjALNOEUIX3kHE+/vf/36cKkd+I8Lg3YPXDd5cP/vZz+KaRXizIaIVxr8yKY2FkP6awlSGvMZjDIGR5wCPIOKPMEUdr+oeVZHyNtVBERGRhuajPbWIiEgTB6MYUQGjCyElvVHHUMXQBrxwksBT3yDOYIDjgVAI8cBYxbhjCgz3x1ODhceZKoOQQpxZ74e44jlCWpjycuWVV4YbbrjhIx+mB3Gv6kD44Hrcc2PB0wjBBw+dtEZJVUYsBiteD0zPYwoQIhZbyTO1ivCFBj9GOlNmEB7wMGKNH7y8WO8IEEzIF+7N4rkshFyYXhbcTaLH5kC+IAYiJrDzWeE9+LBod4rTpkDZI+BgyDNFLHlrUf54+pAn/E6eIgTywZsF4QUBBG81RDTOI57El/pM3rLwc2FcWZAcwYj6jNiCmJLER+5buQ5WhntQBiz+zP25Pte64oorovhEGqin/E3eNPwlXUkkog4ST86valoGwhBpIH549KTrJBBhyQ/q13e/+90oOhamkeeDaXXEAy88zmEBZsQfxND//u//jt5SXBfB5ctf/nJcoBrPOqac8ewwfa/yfQvhmSQvCoVb2o7C77XBNXhWmHLGGiWstUR5MNWz8DmoDQQ98raqaZwiIiINQdGKQAwiGSz6JkVEpP7AUMOjI3nUNEVo95muxdt3vGrwpMGoYroJwgPeFwgsW0oEYn0hvAIQdlgjBgMasQTDlekhGKoIJEyBYZoXvxEXDEiMfb6ThjTFizQgsnAcAQRjFk+HZKRXB+ICYHhvKpR3VeJPIcSJ/GV9EIQOxAemcKVFiwsh7fTNgwYNit4veHmQbqDfZuct8g8hLE3P4vqIDhjWNaW3riBIUDcw8FlMmb8Y6XyoI5TL5twHcQdPKp4ThBXW9CF/WKSZqXUIGghhiEXkLUIbwgtrBeHlhbiHGAY8Z3gmIQr96U9/isIEYYgrnkwsaExdQbQiTXgLkU/cj7qH2FZdWigb6gaeK+QB8SZePDuFggn1kPOou1wXYYkF0tOUsSTuES8Wd04eeoXT6qiLXBvRjfBch3sifvGX+CNG3XzzzeufGcodEYUpg5xPeqkT1HviSh6RNzwXQB1BkKQekrd4HSGQcZ3aypP8J75Mi+Nc8gYhKdXBukIesF4TcUaEQthE6N0Y8FoiT6gXtT17jQnlST0XaUxof2j7pHlC/8YLm7p4/Ur9UtQiEIs/KgKJiNQfGCUYVk1ZBCKOGIn/8R//EQ1SvBpYKBfvEjwVmHaFUb2lDCxEDha8xVBnO3rujZcM06UYrLL4Ln0TosB3vvOdOM2KuBI/jE5+T9OI8KrB2MUrhoV2Wfj54osvjoIAawLVBGIX18CoJh+2BKSR+CFcIHgwXYftull8GzEHA7wQDEfWycHgZmCH6EN/DVyL6WKEZz0VpvqwWPfAgQPjVvMY5YgBmwtxYnFtpg2xxg4LPuP9w1+2AEdwq000qAnqFc9HSgdeNlz7F7/4RfTKYrt+DJdU/8gnxDFEMcIhEqVpVeQJ9YkyR/ChnuDpwnc8YpgyRVwRHb/2ta9FUfHyyy+PeYZXT1XTHBMIPYgmTAEjn7k2nkWIptRX6iBxZIFlQJjjuly/cFoXdRmhg4WcyTs816i31GvKDCEIQYz6S10kntRjfr/22mujuIP4yXOJgMj1iQ/n8/wg1CXx6Y9//GNMPx88gPAG4n9EHAQlRCTKkvA8W2zLzsLLiFCV62IhrNWEMEu9JW+5N2LTpowhWayc8sC7ieedtqaukE7KGRGI9beaMuSXIpA0NopAzRvGMNjzaZwgDUeLyy677PL8//XClhp0V4bBSdqOU0RkU2GbXgwb2hO8FliYtNQhL2oyqKoDwx8Dh794vlQ2sLguBjEGG8Yw7TjrgOAhgHiAsAP8xVuB4xiqXAvxgDfnyYMCML4Iz3QV/nJddnQ64YQTopFN/0BYjuPJwGAyURiXdC7xJR7cN03DSnFkmgqGPAMW4sRUDs7lPD4YTEwTQSzBqE/9EwY8nilcA4OKXbGYPpKmgmBI8n9hOjgPAYXrpPRzb+Kb4gUMmjC6MZ4Jg6FdF7geHhYY7oX5mSD/k8cO8SHNGOEIAymtDNrIZwRD/ieeQH4hxLFwL8IIBnPhOjJcG88Trku+8OHalANpJl7kG9fj2pR7TeveEDeuR1jyMQkX1C/qB8cod+JNeZEmzuV/ziX/Ea3IO67FMcLSDnD/BL+Rx9Qj4st5XCOlgftQP6l/7JhFnNP4hLrAOaQF8ZD6RRkkSCvX4hrEkw9xJw7ElXDcjzhSBnyIA/GjLpH/SZhI90zwHeGBaxIHvLK4Pws8cw3geLov5UIaEdGoH4g//E6ecH/iyP05j2eUOkq+EJY0UJ84nw/1hGtQppQB3zlOWM7n/tQz0ki5AHFN08u4H78x9ZB7JY8f8ovfCU9c2ZGMvCKfeYbJO65HvBJcM92XuJCn5B3XTwIRZUxY8pO/5CfXSe1Vgnuw0DvxwyuIZ7OusJYQW+8TD8Rg4txUIT9SmyyNB56LLJDO+lO0LdRPyqZU4Llvys+JbB6pv099tzQcZVmHu/m+1wVUHoCIiDRleJPNmhQMynmzz1tlqTtMD8LbgKkkeK5gbCGYYGQ11MAN0QlPGAbGDfk2CYMUbws8FDDqGchUFr4wapnywvQT8oP4VSWwcR3yEg8BjE+uVRcwKPF2wSBlfZQtCflMHIk/QkDl/p504qnCos+s9YJnFCJAoeBRCGllyhHXIc1bwuAk/7kPcSNPqyqjzQXvFu5B/OtabtWR4prqcmVjL9Wn5B1UlzwjDB5KXJuyIFzlOsj1CutfddflWtQDvGg4jzpdefCefucaVdV3ngXKPaWhsH5wjLBcg3CIL4Xlxe/p+oCgw+91GXsSlnaCe9NOcd+NGbPyjLLmGFvC47HE2k54FCUxrS4whRKPMMQzxCuR2mBnwWuuuSZOP8arD8/ThuznRKR26F+KDWU3ERHZKDCGWNeCxVgZmLI7D2uBsK0zhh9v0RvyzR33whhs6IExBiRGOt4PlY3VBAZy8nrgnKoEICAswgrX2hghgalFLJ7bEGknn/GmIK+rMp7xSsLIZet3vITw0qhOAALqCtfDq6MuYsamQP4Tbzx+qiujzYXyIk82VwAC8oE6wPWqetuf6tPG5BlhuB51kDpWVR1MQlxt1+Va1DWuxV++V4b8xmOouvpOurgPZV+5fhAPBJrkUVS5vPidfOZ3PlyrqrpYFZxH3AjH37qGSyD2sQ4QC0LTxuFBtjECEJAevAHxOhUREWksilYESm90ilF5ExFpyuANwBv/QviOpwBTffD6wRBijQ+2aB40aFAMw1ogTLHAeJOGAUObKTvnnntu/kjjgUcY4iBrFbGeDYa2SHOBMedrr70WnznWFULM2ViYDsiUwY0VjxoDxP7KC7+LNDSMPRhfSPNEe77xKFoRCGMEl1o6KRERqR/oiNn5pvK247S5eP2wKOtZZ50VPX/YpQivAdbEYHFmPFLwNJDShPVRmCbD4tFpzR2R5gLeTVdddVX49a9/Hds6PJaaM2lnOZHGhOnW7EYpzROEZjYrYIwpDUtRi0BUGkUgEZH6AxGIxbIRgWhn2b4crw4WMWVnJbZY5jfEH6ZlsOYLuzyx1bmeH6UNog/Tf/hs7FQbkaYOdbqU6rcikDQFEIF44STNE+x47Hmm20rDUrQLQ7PlKNMRWJTPBdJEZFNxYeiPgus1i/qy205a8wdDgMVUC9/UYAhh9OP5w7l6AImINB8++OCDONX0Bz/4Qf6INAalvjA0O44OHjw4DBw4MH9EmhMs8s+Y8/zzz49r9xUrxTidTRFIREoaRaCPkkQg1nWhnWUNDDyD2NoYEQgPIHYnYo4+7T1bK7Mteo8ePfJXEBGRYoctyZnq+5WvfCV/RBoDRSBFoOaMIlDjoQgkIiWNItBHSSLQKaecEtd1YUoAawQhBLHoL99xzWabZtp7Fjg988wzwwUXXBC3Kd8Suy+JiEjDMmTIkCj8n3rqqfkj0hgoAikCNWcUgRqPol0TiKkITD9oKNFJRKRUoG1FzMHrZ7fddosL/n7nO9+Jb4QRh44++uhw8MEHR++f+fPnxy3i77///igQuZuMiEjxwxpvvmSVxmbrrbeOO/JJ8wQ7vl27dtGul4alaEUgOqZ99tknNg4iIlI/0CGz2HPlQReC0J577hkuvfTS8Lvf/S7uAHXMMcfE6QLAm8onnngiemmuXbs2HhMRkeKkS5cuoXv37vlvIo0DL6UYe0jzBDt+3333jRuNSMNS1CIQlcapByIi9Qci0N57713jQs+0v4cffnj44Q9/GAYNGhR+85vfhOOPPz5cf/314amnngrz5s3LnykiIsWIIpA0BZiqz4spaZ4kEUivw4anaEUgcCqYiEj9U5e2lXNw391hhx3i9LCf/OQn4cYbbwydOnUK7777bpznLSIixQltvONsaQpYD5s3lm/jUNQikIiINC4IQdtuu21cRBqX7bRWUMuWLfNniIiIiIhIU0ERSERE6gWm57K7A+7bTtUVEREREWl6FK0IxA4077//ftzOWERE6o+5c+eGVatW5b+JiEipsWTJkrBo0aL8N5HGYeXKla4z2IzBjseed2fZhqfFZZdddnn+/3qhoeb1LV26NAwfPjwuWue2ciKyqYwZMya88sorcQ2bbt26hV133TVst912Yfr06WH06NFhwYIFcWoTHdWUKVPCyJEjw5o1a+IUKH4bP358eOedd2Lbx45aM2bMCKNGjYq/saNWTeGmTZv2kXDpfoXh3nrrrbjbFuEWLlxYa7iKioowefLkGI77sdgeA/nqwn3wwQfrw3G/ESNGxOOdO3cOK1as+Eg4FosuDJd2Z0zxrHy/qVOnxt/Z/pNw5DVbyheG434p3OLFi8OECRPicagqHPFI4Rg01BaOwSPpIxzxqS3czJkzY/oIl+5XXTjyuTBcul914TCqCsORn7NmzfpIuPLy8vXpQ4hjxwz6u+rCIdilcNyPcmDQXBhu0qRJ68OxjX8Kh7cW/WdN4agXpI9wb7/9dhysVReOZ2jixInxQ7h0v8JwfFI46ldt4dhtjvQRjnpYW7g5c+bE9BEu3a9yuOXLl8f08SkMl+5XUzjulcLxHLH+VWE44prS9+GHH8ZttvlbXTj+pnDcj3aC+xSG41lK4bhPCkcZULdrCkc7QvoIN3bs2JjOyuHIR9JHOinzcePGxXDpfoXhaAsLw3G/msJRjqSPcLSTtYWjnpA+wqX7VQ5HfSN9XL8wXLpfTeG4XwpHO89zUBiO81I4ngOuw3NYXTiew8JwtP0859WF4zlP4XhmyffqwpEPtP2kj3DkE+1M5XC0R9yfdoY2gvpPuHS/wnC0Q4XhuF914V599dUYD55/wtEn1haOdpr00f6m+1UXjna2MBzxrCkc/URhOPpE+qHCcBxL4eiHqOecW104zi0Mxzn0s9WFq9znE/fqwhEH4sw5dQlHHaHtp+4RLt1v2LBh4cUXX4x1jh05WUSX9qJUSGXFNHNpftDevfbaa3HMyXMuDUfRikA07oMHDy65xlBE6hcGsIhAaTC28847hz322CP885//DFdccUUctCEMMbAblN8JiwFb37594yDvr3/9a3jkkUfiFCjWxCEcW6hjCBKOgd0tt9wSfv3rX8e2ql+/fvFehHv44YfjwsrsfJHCTZgwJYtD16xjDOGmmwZlcciF437Ela3YH3rooRhur732zsLdF37+8yuygffk0LVr18wgKcvC3RJ+8pNfZO3x1lmc+mYDqLHxfg888ECM54ABA8J9990X78dglV1gGAgTz5///OfRIDrssMOyuEwLf/7ztdm5D4Qdd2wXw91///0xHEYY4TCAbr311vCzn/0sGnt9+vSJg91rr702nosBQTvN/X7/+99HQ5hwnEu4n/70p/8Wjrwgnvvtt1+8BuEYBBKOvKgcjrgQ7t57711/P9L6hz/8IRokhKPMUjjSmsJdd911MRyGMvd78MEHYzgMMMIxKEnpo3/bfffdY54R7p577onhuB9lQjwJx/pIGGm33XZbvB8QjgE+4e6666714ag73I86QTiMH8JxPwx/wlGX2HntzjvvjOH22WefGO6Pf/xjrIMMnjAYUjypcync3/72t3DHHXesD/foo4/GcBgahMMY4X6UO3W8d+/esc4T7vbbb48GKOEee+yxGA5xinAc53fCYdQRDqOGcFwvhXviiSdiuDfffDOGIx6E+8UvfhEHf4TDgCMc8Sc+hHvyySdjOF72EI5yLQzXq1evaEgTjueScNRPwv3pT3+K4ViknOeE9BNPRICePXvG+v33v/893HzzzevDPf300zEcBlcKR35zP0QV7pfC3XTTTTG/ieczzzyTPSN/DkOHDo1TITt06BDv98tf/jKKMoRDQCEcC6en+z377LMx3Ouvvx7vt+OOO64Ph2hBPBFSCPePf/wj3o9d+5577rkYjkEz4WiviCfhEBEIhyByww03xE8K969//SuGw7AnnoSjHqZwu+22WzQyCcM9qYcp3F/+8pfYRhKGsCkcxjn3QzAgHHWUcHvttVccnxHu5ZdfjmGIK/H81a9+Fcdv3A/jjnA8E4SjHRwyZEi48soro9FLOJ4J7kc4DOIUjjzhmU/343zCEZ548uwSjnaX8zEgCZ/C8XwS7qWXXorhiO9OO+0U29B0P4QJwhFfwtH2Eo54kh+F4XiBcPfdd8dw5AfhyB/K/Oqrr44iDeHIf8KRr4TjRWaKJ/lPOMqDcFdddVW8H/0K4fj+/PPPx7rCedyP/ojy5jqEo26S7ykc9Ytw1DfCkX+0W4SjfhGO+pbCEU/CUZ/JJ/KHsqOcUzjqM+Go34SjXtFOEo7nh/vxPHE/6j/hfvvb38bnh3xC/CMczxvh6G8JRz6xuyThaL9ol7kf4ehLeX4JR3uZwvGcE47nnmcvheN+tA8pHM867TP9APGkPaI8aZ941ukPUjjaI+JJO0Pbwjgg3Y/2j3CPP/54vB/9MuE4h/aP+yHgcL8Ujj4fUZh40o4SrnCMgaiaxhiEIw7Ek3C077SL1BfKphRFIARvymv//ffPH5HmBM8n7QXPBP2VNBxl2WCxIv9/vdBQIhCdFx3LJZdcEgcBIiKbAgNpBocYp9/61rfCxz/+8SgSYEgzKKNNQ+iAdIzvfPjOB2Od7/URLrO/w5Sp5ZkBEcIO7deFo4/ecA7nVw734YfrwgsvrA5Ll5ZlRkaLbOBYnhkTa7PB9OrMcG4Rjjxy62zQ+e/h0v0qxxODnoHoaaedlhkXu4aJk9aGrl1CFo+t6pQ+zgG+b0y+NMVwfOdvMYTjw/diD8d3jhd7OI6n7w0VjmOcU+zh+EBzDscxvjeVcOm8wnAIXAg99AUbE47PptyvruE4zvdiD5fOqS0cgi8vcRAAf/SjH4ULL7ywpOweXrpQFwcOHJg/Is0JRGheBpx//vlR+C9WeLaLjdwoQ0SkxGFQlgZn6Ttv2/A2YZCWBmq8oUsDNs7hd86rj3CPPNIi/N/PysNll1eEK6+qCA8/Ur4+HNepHI4+Z+XKsnDvfVuFq64pDy+/UpYNIMvC7DktwpVXbx2u/mt5mDVr4+OZznnu+bLw57+Uh0cf4/51S186tjH3a6rh+L9YwkFzCMcxKPZw6ZyGDMex5hCOY809HMeaUrh0rDAc//PZ2HCber+6hkvPJBRzOP7WJRz/pzAiIvWFrYqISBNg3boQhr1REcaMqQg9e5aFb3y9PFz4hQ1N9NKlFWHevIqwcBEL4+eOZWPG0KpVWfjYaWXh858rD/vtl/PEXL2qIrz/Pgs8h7Cq0lp7a9cyx74ifPhh7p6FICpxfNWqrbL/y8PiJSFeh3uKiIiIiEjxU7QiEEo5c3aTWi4isqVYuLAiTJpUEcaOrfozc2ZFFFAQVaZPrwjjx1d9Hp9ly3JiSyFr1oQwaNC68PrQirBocQhz57FWUUWYNq0i/nb1NevCb65YF674/brw2+zvn/+yLjz6GG7jubBMIeOe8+bmL1gF779fEZ56Khf+it+tC7/+7brwjxvXhXHjcveYO7ciPPIIv1eE5/91UHjo4e3DlCnF594qIiKbD+uysW6RSGPC+las1SXNE+x41hjDrpeGpWhFIObDsjgabpQiIluS8eNDuOceFniu+vOvF3JCCqLMY4+vC7fdXvV5fGbNyglGhSAeTZmaE4C4xsIF7PAVorjEbyNGIDSxIH5O7HngwXXhjjvXxf+XL68IL71ckd23IoyfULVog/A0dFhFGJTdn7Dz5nPNdeGuuxGTKsK47Dpvvx3CjTdncb8ji1/oH0aN2i7eX0RESg8Mb4wzkcYkbbohzROmRGLPI/ZJw1K0IhAr7rPLgZ5AIrKlYVrUzFkhzJhZ9WfevJyQw2fOHMSbqs/j8+GKf/cEQsv+9FnlYbfurOkQwl57lYXPXlAWTjmFBUdDOOLwEE46MYSTTywL++2TO3/suBBefHFdWJFdrzZmz64IQ16sCEOHhcCL3U98LIRDDymL6Xrq6XXhqScrwvA3K8JbI0PYtWsIl1xclt2zLBt8lQVlIBGR0oNdrNhpTaQx4aU/Mz+keYIdz+6D2PXSsBStCCQi0lAceURZuOx/W4Qrflv156KLWMCZaaohfPObLcKvfln1eXz26Mfij/kL50HoYT2fHXeiQ8wJMYcfXhb69i0LS5eG8MHCEB58sCJcd/268MRTFXGtH9YFQlTCc6iyqFSZ6TNynkSctmRJCA9k13r77YpQsY71gUJ4e2xFeOeditCmNYJTWTjiiPJw/vnlYc89G2a3RxERERERaRgUgUREauHxJ9aFiweuCZ/8VNWfX/1ybfTIWbkyhP/5wZpwzrlVn8fnjeG5qWN1YfHiivDgg2vDoFsqwnvvhXDssWXh3HPKQv89y6Lws2pV7QIQpHO2ahFCu3YhdOlSFrp3LwsnnlAWPvGxstCv74ZzWGxaRERERESaJ4pAIiK1wG5dp51WFj71yao/hxySm8aFF8/Rx5SHM06v+jw+nTrmPH/qAmLR+3mvn+3ahrDLLrkpZ7Pn1EH5KaB3r7KwW4+c1xAcdxw7ipWHAXuH0GHHELruGsLuvUNYtpxt4SvCc8+tCzfcsC6MHLlx9xERERERkaZN0YpAK1asCBMmTMiMmrxVIyKyheize1k468zy8NnPVv055picCMTnpBPLwmc+U/V5fPDCqau3TZs2ZeHww8rCjh1Y1yeEe/9ZEV57vSK0apU/oY7ssktZOP74LJ5Hl8XrXHd9Rbjy6nXhzrsrwtRpIbt+WTjwwPJw6MFlUXS6/u8V4Y3h68KyZRVBxyARkdJj7ty5YQ6L3Ik0IkuXLg1TpkzJf5Pmxpo1a6I9j10vDUuLyy677PL8//VCWQPNJVi8eHF49dVXw+67754ZXpnlJSKyCYwZMya88soroVWrVuGwww4Lffr0yf+yAdara9euLOywQ9WfbbfNCTt82rbNLahc1Xl8tt66+ilXLVuWhQF7l4VDDy0PPXqUxfu2bx/CjjuWRW+ePfYoCwfsX5bFsywceEB23iHloWfPEK+7/35l4ZCDy6LgQ5PYqVNZOPoozi+P12ifxb9bt7LQo3tZ2LljWeiSnce0soMOzP7uVRa6ds19uN7iRW+E44/bNhx+eOssLiwSXR52760cJCJSKkyaNCnMnz8/7Lrrrvkj0hjMmjUrDB06NEydOjUcc8wxcScldlQqFRAjR48eHfr27Zs/Is2JlStXhiFDhsSdCN0hrGEpWk+g1atXh3fffTesY26EiEgz4OSTysIlA8vDUUfmBCCmjSE+nXN2efjiJeXh0i+Wh/POKw9nf7o8XHxRzgOJ3z95RlkYeHF5OOCA3KLTCEFf/lJ5uPAL5aFz59y1O3TILfrMdb58aVn4UvbheqedWh66d0Ogyk0Tu/SLZeGwQ8dk/y8NF5xfnp1XHk45WQFIRKSU4GXrwoUL899EGgc8RN5///38N2luYMfjcYhdLw1LWZb59broQ0N5Ar333nvhnnvuCZdcckncPlBEZFO4++67w+9///vQvn378O1vfzt87GMfy/8SwqjRFWHJ4vyXEmFdxbrw+OOPh4MOOih06tgpfzQHzfv++5dt9HQ0EREpLng7v3z58nDqqafmj0hj8Prrr4drrrkmPPvss+FHP/pRuPDCC0vK7pk8eXIYPHhwGDhwYP6INCeWLVsWbrjhhnD++eeHjh075o8WHxV12aWliaEIJCIlTU0i0Fe/tjaMeKv0FkdetnRZaNW6VWhRaS/7rbYqC3fd0SJ07ZI/ICIizRJFoKaBIpAiUHNGEajxUAQSkZKmJhGI3blKbcYprrk33XRTOOmkk+Ic7crUtKaRiIg0DxSBmgaKQIpAzRlFoMajaNcEYvGovffe20WhRWSLQfOyzTal9YmLUw/oFzp02K7K3xWARESaP7vsskvo1q1b/ptI47D99tuHPfbYI/9NmhvY8QMGDHBR6EagaEUgVHBWyFcEEhGpP/Dm3GuvvULbtm3zR0REpNTo0qVL6NGjR/6bSOOAl3b//v3z36S5wU53++23n7N6GoGiFYEQf3bYYYdQzvY5IiJSbzDoKqUtaEVE5KNglG277bb5byKNA2ORdu3a5b9JcwM7Hnu+8hqUsuVRQRERERERERERKQEUgURERERERERESoCiFYFYhXvVqlX5byIiUl/QtrJLmIiIlCZr164Na9giU6QRYSyyevXq/DdpbiR7vhh31yp2ilYEYtvKt956y4ZBRKQeoSMeM2ZMWLJkSf6IiIiUGrNmzQrvvPNO/ptI47Bo0aLw9ttv579JcwOhecSIEdGul4alqEWgkSNH+pZCRKQe2ZIi0F//+tdw3XXXhbFjx+aP1A3eEj388MPha1/7Wjj33HPDj3/840Z9azR8+PDw1FNPhWnTpuWPbOCNN94ITz75ZJgxY0b+yJbl/fffD/fdd1/485//nD+SY9iwYeH1118PU6ZMCaNGjQrPPPNMfLMPb775ZrjjjjtiWRR+HnzwwfDuu+/Gc2qD637ve98LjzzySFi8eHE89uijj4bf/va34bXXXovfNwXKdeHChbGsud7KlSvzv/w7jAMWLFgQVqxYkT8iW5LRo0eHH/3oR7Huf/jhh/mjjc9zzz0Xx4PUyVTvE3/4wx9i2/Hee+/lj0hdmT17dpg+fXr+m0jjgAi0sWMGKR5w5qD9bkp9SqlQtCIQ7oFUGN3HRETqF9rWJBjUJ+zywWdjd3VEdPnXv/4Vd4X8zGc+E0455ZS4lX1jgZGJYYnRWZlXX301PPTQQ2Hq1Kn5I1sWBBcM306dOuWP5HjllVfCSy+9FCZOnBhFn8cff3y95yxh7r///vDss89GwS99SM+yZcviObVBGW6zzTaxTFJZICBNmDAhzJ8/P37fFOjTEf14M8j1apqWSJ24/vrr4wBStjwYY9QTymVLtA+bAvWFuk0bQd2j3r/88sv5X0PYddddYz3Hc1w2DtoLl12Qxoa2RoGg+UIbzgsdlyBoeIpWBBIRkeLioIMOCgceeGDYaaed4nc6/aVLl0ZDA48P3tbz9pljCQZ/GJ5z584N3bp1C0ceeWTYb7/98r/mroHnCOEQHyoPJLgu1+AeXHfy5MnRmOV/PEj4nfB49XA8hef3OXPmxDhVNnjnzZsXPX2q8pYinvxWmAa8VZhWwYf/K8eRQRD3njlzZjSwKxtefC9MA2INcSYeCDyEPfTQQ/Nn5yAeeAnx2wcffBCvnV6aEI7r9e7dO3ziE59Y/zniiCNChw4d4jnci2sgZpEHladet2/fPpx00kmhT58+oWXLlvEYnrnkZ2F+cU/uT54Qn6qmcBOOc8gf0kX+UDYcT3GuDPEjH/C8SmVH3qS85S+CFvWCPK3pWgnuSb6QBrybSDtlTHoIyzHykWty/8Lr8Z2BLH+5L3GiPvIdUv0mHyqHBb4TR+LK9blGOoe0EK+qBsrEjXiRr5zPp6Z4Vkd6TvhLXpK3xJ84JbgXvxceI048J5Qd5xfeizila1aGvCZs5bqSni3+Vq4rXKvwmeWe5BNppf6QbuoYnxSPww8/PF6LNmRzxEkREZHmRIvLLrvs8vz/9UJDvZ2l42eO6P777x/fLIuIbAoYB7w9btWqVTjssMOiUVvKYDwhLCAQYOjXJ+Q1RhzXbdu2bTSw//nPf64XM/Bo4Y0+UxC22267KEjgdcO0IIxqvE/wPEF06NixYzT8Xnjhhejxwpt+XMYxfPmNczif6w0dOjSGx0MA0WDbbbeN3iOTJk2KnjLcg/OIw/bbbx+NS7xlqBdMgcF47NmzZ7wefdzgwYPjfeh/9thjj3zqcuCdglGM4IUXAudyjOsQP4QFjFgELSAPiD/n4f0ybty4aIC3a9cuxrNFixYxXsSHeKU0tGnTJhrL5NmOO+4YPvnJT37Ew+r555+PgsEuu+wS74GhfOaZZ8b+knvRhx511FHx2O677x4/xLd169Yxji+++GK8F/0seUV4yoRy4z4Y3Ewz4zv357rEi7Lba6+9Qt++feM5TNXhWlxj/Pjx8TqUP2kjLzHm8Z56+umn15cJ8aXMMeD33XffKvt4vD4IQ52iziKuIbJ07tw5igfkGffmL+eQp8SVfKMOVQXlTRkgFJJ26hT1gftzHcqRv6SD+/Mb6eB63INyJH2kh7zgWogciCp853f+stYKdZS4kAfUB/KNNPM7dYV6iYBDXlGOlAPlRvooByCdhLvzzjtDr1694nnUh8J4Up8K41kdPAPcm3yirpF2roHgQ3jiSv2jLClfPtRnvvN8ET/ygOeCOPL8UR5ck3C0JwnqBXEkH7p27RrrOHnENDPynfQTb8KT/pRe6jT3IV2UFefwnHCc54l4JgHoxBNPjHnLMa5JnSJe1HGpG9Qt6hhtgzQePCc8Y7TLxxxzTLVtYnMlvUShv5XmR+qv995779hPScNRtCIQhgSNApWmlBpDEalfMFwUgTaAAYUhjuiBAVWf/OUvf4nGLYYfRhteD9/+9rfj4JZ7IrbwlwEvb/0RKTB8MZ4ZCGOQ0t7jSUT8MBoHDRoUDXKMPIzDIUOGhB122CHstttu0RC9/fbbw6233hrPSQJM9+7dw9133x0FJAx+ro2gxJo4GN4YoZyPQc//GLrHHntsFBEwWIlTbSIQvyGo/M///M96YwpDl3AY6wcffHA8n7TdcsstUQAhzfzO/YgnQgrG9z333BNuvvnmGCeM9CQiIcIQ7wEDBoQDDjggXi9BWjGQOQ/jn3LFgOB/4p/EGIQ2RDg+pI38RQBgDSHyhvygzMgr6gNlh1FOOf3yl7+Mx1I8MfiTCET+kxf/+Mc/ogCH1wdxQqRAGKHvJi48e7fddlsUHogj55JO4nD88cdXa/Dw3KbyA65PvnBvxAHWPCKdHKN8n3jiiTh9jfiT7qr4+9//Hu699954f8YX1DfSQZooA4RCyghxAuGBvEHcoF4wPfBvf/tbLJ+UXvIweclQj8hz/udc6g1xIU4cZ3reTTfdFOsJQgZCEvFGLKK+c+9f/epX0ZMOIYOyouy5B8fPPvvsmBcIQun5wZOLeDJeQiSiPlQ3RuPe5BnPEHWQtPEskR6ERO5JPAtFIPIfgYU0UrcpE+7Xr1+/sPPOO8d0IPJSxpQlbSxQ18lrnvejjz463gvBjvzjWuQddY46QHyp3wiPrO/D1K/0bALlg5FIu01eUYcoX/IJCI9YSjowMKhPUjcoP+jRo0f8K41DqYtA9O30T/37988fkeYE/SzjCfpExhHScBTtdDAqCg1hTW+2RERk48BowsDDsG0oMPy+8pWvhGuvvTb87ne/i4ILxiwG8ec+97lw+umnx2OXXnpp+NnPfhZOOOGEaDheddVV0UD+4Q9/GG644Ybw85//PBqg/MVQxyAEBpEYiAgSLIDM1CfED44jxmCQ/ulPf4rXRzTivl//+tfj+d///vfXG/R4z9QVDG8G7XhYfPe7343pYvFm7nPxxRfHcxj8kGb6MxZZvuaaa6JB//nPfz788Y9/XC9EAHFF3LrxxhtjGs4444w4/Yk04uFQmS984Qth4MCB0Wg466yzYh6laVuAoY9BTXzSB6GBa5InLADMQt4//elPY7zob0kLYkZtECdEARaJRnz43//931hWlAtiAPnAoB6BBuGNv6Sf9X04ry7i43HHHRevdcghh8SyIo4IbtQHhAcERhaXpmzJ41NPPTUKPAgLladUFUK8EXaoT8SF+yAAwXe+8514n1//+tfhG9/4Rrw2ggT1BShzBDKOk3cInAhSiCOINFyTNCLGIIZh3CGIIebddddd4dOf/nS8J/WOukgauDfiCeVIXcATBnEHCI9YxG94YyGmEZdvfetb8f7Ek/8RShF3Ujyrg7Qj9lC/EGwpJ+owQg+CU2V4jhACOY96S10hHqyJRdwRB/EiQexBIATqBuIg4hfTOhFmeFapG3z/xS9+Ea688sr4nPOdsqPupzIjHgg85NEVV1wRRaTLLrss5i/5cOGFF65/vhIIoUlglbrTpUuXKJiLNCa0l3vuuWf+mzQ3EDQZX/DSTBqWohaB9tlnn5JSw0VEtjRJBKpvL6CaOO200+IbfdpzvA54q4/hh7FbuGZIAmMYgQTPB7yFiC9gwCJ4ME0FAxlxATDqEQwqpwkPAwxKxBE+iB/EAcOSt1J4WyC8YMzi3YHwVFd4QYGQRlwROjCCmQbD9RnscJw4IqqQZs7HwMd4RrDiXhjgaW0hxBSmuJCG5M2B0Q5VuVBzHz6kgWtjdBdCehFMeMufPlybcxEyEDTwzsADCUMcQx2PmCRA1ARxx/sCjw9EAMqBtDH1C5GAa/PmD+8MPtybPAcEj/PPPz/GLaVzYyD/KCvqEwIOkHZEMUQ86k3K06rA2KBOkRcIDwiUiDjEm3IjHXihILyleki5AvWPMmJ8QtypQ3ilpGtyjPThBUUY6jhlSDkjUhDHNBBG0CANeMTg6UJ8SA/1hXsiplB/cKNnKiDXIW7UV8qP/ykD4skzRJhUX6qDek45UG+JK2Msni3KnHKqDPcivx977LEoTiJkkScIY+Q1dYk8oHwRHIkzdQFRifzEW450EzfqSsoX4k548o6/hUIbYVj/qrDOU5e5V/Jk41MI6SE8+S11BxGIshNpTFIbKs0T2mtEIL2AGp6iXhi6cP0DERGpHxq6beVNXzLcMOaSxwpiAYZjZTBqMUz5jQFiMpwJxzQUjuMxkEQgBhcYrJUhXBp4YPQSng+GOvEADEtEhMK4pPzB4K0MwgEfro1RjZcE0yp+8IMfRGMdzyJc+0kDBjTGKbsX4WGC9w8fpocx6CVP0j25Xlq0OZHiUVUe1Qa7iSGM4XGSPhjh5AfbvuM5RDwQDsgPjiPupDytCc5DNCIf8ArBuyWljWsjDADiBnHHoE9lSJoQwSob8nUFoYn7c83kzcY1SS9lishQk0cXAgp1Cogb6eB6TC3DuyalA28ZRBrinfKfOBcKjdQb8o5PEuGoZ/xP3aEO4GWGOEFYhC/qG/BMEH/qHXWZ4x//+MejKIRohCCHWEKa8JKjnIgn07UK40m9whOG8qutnpBnKe1AvvHcUEerEs4oV7xwmGqHmEM6yQ/yNz0blDV1mXjhEYSwyLkcJ/+oT+lZZoomHkgp7ngM8QxRj1Lcyd9UrnUlhSXvpe6QX+aZNAVSXyfNE8u3cTDXRUSkUcHATcZGoeGB8VcVDBjS+iYYnBi/gOGZvB0w5pOQwPlJ1CmE44VGTvpe+TgUGtAYoVyv8hQZDHYMetKDYIPByrSt//zP/4zTqxCB8M5g/RWMX9LAvdiVi2ksX/7yl+OHaUxMr2GNKtIBnJcEggTXJ54ICRtLEiwQzdIHAx6RhGlf5CtxYZoNacCjB4GsNiEByBvSBuwgxvSclLZvfvOb4fLLL4+CU/L2Id+SuMT1EXKq8gCrTCqjwjiRX9yfa6Z8SdekfpDGJDJWRWE+c33SwXe8xPDUSen46le/GqcuJa+hdD7hE3wv/CQ4J8WZuBCn5KmS6jxxRyyhnKhvxCF5wOBFhZiCxxMLkFPXEG84h++V48lUKzyLUplUB3lWWexJ9RmBpxCEG+KAp8jAgQPjVLaTTz45eo9ASh9xQ8jh3izkzVQ9wqRd5QqFM6aXXXLJJevjznQ6pvgRPoloVT0HtZFEtvQsiYiIlDqKQCIiUlRg5LOoLgYn00jwjMDoxLOGxWoxMplilQzH+iZ5gLCGTlp7COMd8YSpQnidcH8EKYxWprAw5e2UU06JxjrT1YD4M80LAYTjrG+DIITgwDQeDOgkZFUF048gLeBaHyBG4KFDvJkKhAGONwh5XNt0ogT5TvkwDY8wpBMBg7SxgDX5wzXJI9LJWi2UI/mI8MGC38lLqCYQERBX8DBJ5yJmcT/qArtzcZz8ZToSZZYWtq4LXJv4sQg5AhLhUhmRHu7DtKbNqWcIPMSJtOBRQ1yJM3WL6V6syUI9IC6IZkzRwgsorbvD+liIIimeiGekM8UTIZHr1yWe1F3WTEIIIg5Mw6LcuT/XKIR4sq4T9ZZ6wjNBXWXqHHUowTGeR8r9lltuic8n0zDTbmGIS9RjngOuR3pTXWGKAF5h3KNQXNtYqF/chzwSERGRIhaBGGQw8K3uTbGIiGwaGGPJu6YpgkGIYYiHCkYqa5FgYLKYNGvvXHDBBevX2dkSYPRijGM0s9gvC/Km3ZUw5vEOwfOBdVRYU4ffWZQYA5i+Cy8YzsMDgi3a8Sjid3YxIw2khakxlT2NKkM8EADwCEnTbzYXBAQMcbxCiDcLE5MuBIm63oM4IcZQDnitkCauxXVI2wMPPBBFBAQQ1qDhuvzOotykG/GB32uDeCKMMNWINWlYe4lrcU3KPuUpH9atQVxgGlJdRRuEF+JIPUOcwouF+Kf6xt/NFeAQJ4gT2+GzQxj5wLX5HwGFKXtpyiKQNry1EIlIB54/KZ5MF+O5ve+++9bHb9CgQfEvglFtohp5Tt5TDoRhgWviQH3leSoEQQzvsHQ+5cYW9whIlcdliC+kD1GOZ5f0Iu5AEnTxXkKAoo6kD+WGeMf1aot7dRCWRbF51kp958eNhbKkrok0JrRLCP3SPKGNph+trzGM1J2i3SKezokFEZnrvrGuwSIiCd5cu0X8BjC2WLMGkaXQ+KwLdOJp2g3GXeW39wgCeCRgBCISMLjDQMOQxRMgrVuC+MGCvBi1GLcYsLTzeA/g7QD0NYThN7xI6A/wyuHa7BbFfbg/Qg1xQTApNGRTXFivBCGB+zIFCkGFNVaS5wPTchigYLSmbd/JGzxZmGaCsEMdwsAljsQZjx/qE/dGAOF30okohPfIueeeuz4d1DfuwQ5RGPZpNynEoiOPPDKKSQgwpAVjnPAJ8ob7Ej88LdK0mtrAkwQBgbxK8UhwnPxCCGT7ekQ2PCnwLMGYJw4Y/+QV10EMo1xIL2XGgC55hrClL9chjhj4eEAhGpAWFjnmXlyTfCTtlCPXROjgOkxh4l7EpyqoL3i+kHeIf9QbFvqmTKmDXI9duMh77sOUO+JUnXcVZY+4wTl4KyXII8qDcuF6lBHXpv7SZlCPSDtxwcsleWhRruQd9RSvFiBdLIRMHeI+PAeUG/Fj0WfqMdcmj5hK97GPfSzWuQThiCf1nzxkIepE8gRirSCeYdJNviPoUX7cq7oxGmseEV/qF/cnT5m6+KlPfSreh2cEry7qGmkk7giZPEeUHXEiPHGmXKi7hAHKmecLUQePONJEXBJch3pFHnIt7k1e87zwG88jzxbrIfEcUm/TtWuDaWsIWjxn5FXhgtJSMzz7PFOFz4I0PLT/pbxFPHWQNtdFypsnvLjAi5p2hvZeGo6ybECyaa9XqqGhRCAG+7yhZP74xhoqIiIJ3mD//ve/j8YVa1BgoJQyGKl4tyBk1GXQhdGZ1l/hrTGGJ4YkxntDrcGBiICnBgOI2tY9qU8wbBnAIERhXHLvyoNz8gdDlDxCtOGcqkQNroORTToQmDi3LuCd8tprr0Uj/5xzzskf3XwQOFJ8EMQwwje1f+daTO9CmOE5q1wvqHPUHe6HoEJe1sdYgjznuggqTGni7+aAEMT1qG9cjzKqzzEP9Yk33uQHwhDC2qZQGM9Ul2pLO1uyI8B99rOfjXUJQQahhrKq6UUbYiDlxvURaCrfh/rPOQiBiJ8sqI13U3XPKWVGXSEPqCubK9rgdfbkk0+G008/Pa45JHVnyJAhsV0/9dRT80ekMcBAZoF3NhBgbTnE7FKye9gFFJF64MCB+SPSnKB/YMzJrqDJQ7QYof8uNop2OpiIiDQ+eAbg7cIA7bzzzoueD7zRaSgBCDByk0dFQ4IAgPDEtCTEi6rezmJAkx8IaggH1Xm14C2BdwPerRuTd7wZZpoTnhj1CekiT0kbcd4csYNrkQeISVWlDeEAUYB78Xt9CSuIKKQheYVtLpQvZUhZ1rcABFyPuBLnTRWAoDCePBMbk3bOxcDEu4uwNQlAgEiDhx3lW9V9aA8QYhB/uCaeWjUJtaQbryiE5Prw2sGDAO88vA1FREQkhyKQiIhsFHgZsO7If/zHf4TPfe5zcato3taxow8eRBixDQ0GdH0b5XWltnun32uLX13PKwRjnyk4F110Uf5I/bGxcamJ2q5Vn/cqpL6vm663JeIK9XXtjY0nghGLgON9s7FhazoXEYa3+IhEv/3tb+vUNmzMvWsDb3GmsyGuiYiISA5FIBERqRWmBbAAL9tN/9d//Ve4+uqr43fWK8DzgG3NmTawJRdkln8HTw08KxpDeJPmA7uMsc175TWiNhfW+kEcRoxh3aqGXvOB6QV4bdkmiYiIbKBoRSBc510UWkSk/mHaDovRsj4HC7QOGjQoXHHFFXFdAtZiY40NFm1l7RHaYXaBOvvss2O4qqZEiUjThsWs0xSw+gRRmDWGEIOYZlZfHj6y5cErTA8qaWwYixRuiCDNC+x4poJj10vDUrQLQ7PQJHPNqTgKQSKyqbgw9EdhcTsWiKVdZZchFqNk9zQ8fvAGSrB2B4IPwg8eQIhBIiLSPGCRcnb5++QnP5k/Io1BqS8MzcLB1EXsPWl+sHkAO2YylmxoT9H6pBgXhi5aEUhEpD5QBKoatn5m5ynW82B3K3aJYrchplUgwtNx0+mxkC/ridS02KuIiBQfTBP8+te/nv8mjUGpi0AixYAiUIYikIgUE4pA1cN0MBZ2ZfD50ksvhaVLl0YRiLc2/E+nt+eee4ZvfOMb4eSTT45vcewDRERE6gdFIJGmTzGKQC4MLSIiVcKUr3322Sd885vfDDfeeGP4yU9+Etf2YKFV1vrAfRdB6Fe/+lUYMmRIFI1ERERERKTpoggkIiLVUl5eHtf+YcHYAw88MO4Mdv3110dhaN9991eaAPAAAEVYSURBVI1vJFmf7fLLLw/PPfdcWLRoUT6kiIiIiIg0NYpWBOKN88SJE+O6FCIiUj/g0srOX4WLQAPTvBB8OnfuHPr37x+nf7FWxE9/+tPw1a9+NR6/5ZZb4rSxhQsX5kOJiEgxwlpw7777bv6bSOPA1POpU6fmv0lzY82aNWHChAl6kjcCRSsCYaCMHDkyblEsIiL1AyLQ6NGj4yLQ1cG6QDvvvHMYMGBAOOmkk8L5558fhaDjjz8+7uTx3nvvxcWjRUSkOMHDk50iRRoTvIvHjh2b/ybNDex47Hk2H5GGpWhFICrNnDlzwrp16/JHRESkPkDEqetbGdYNYhthPIMuuuii6CXEsWJcJE9ERHIsXrw4LFiwIP9NpHFgLMKYRJon2PEIzjp1NDxFuzsYDcI999wTLrnkElfJF5FNJu0OhnBx6aWXRm+WUoYO+a677grHHHNMXPhZRERKD3alwgCnL5DGY8SIEWHQoEHhlVdeKcndwSZPnhwGDx4cBg4cmD8izQm8x2+44YboUd6xY8f80eKjGF98KgKJSEmTRKD58+eHww47LPTp0yf/S2lCR8ags1evXqFdu3b5oyIiUkowFYz1OugLpPGYNWtWGDp0aJg3b54ikDQ7FIEaD0UgESlpkgg0bNiwuBMWn1KHBffJh4Zqz0VEpGmBVyjYJzYulAOfLl26KAJJs0MRqPEoWhGIucrDhw8PRxxxRNhmm23yR0VENg52wnrmmWfiX8l1ZO+//35o3759aNmyZf6oiIiUEoyzER/oC6Tx6dChQzjjjDOitzKbM5QK7FI3adKkcPjhh+ePSHOCTURefvnlcNBBB4W2bdvmjxYfikAZDSUC4aJKB0Xn5FsKEdlU6ICYClZ5S/RShl0aEIBsW0VEShMWasWw8UVr02DrrbeOnhKsX1hKXrqrVq2K4zPFyOYJQvPChQvD9ttvX9TipiJQhtMHRERERERERKS5U4wikK95RURERERERERKAEUgEREREREREZESoGhFINyumCcqIiL1C2tBME9bRERKE3aJZP1NkcaEsQhjEmmeJHu+GKdTFTtFKwKxSNhbb71lwyAiUo/QEY8ePTosWbIkf0REREqNWbNmhenTp+e/iTQOixYtCm+//Xb+mzQ3EJqx592cpeEpahFo1KhRvqUQEalHEIHGjBmjCCQiUsLMnj1bEUgaHUSgsWPH5r9JcwNnDkQgdqWVhqVoRSDcAxGCdB8TEalf6IyZCiAiIqUJxtnKlSvz30QaB8YiCgTNF+x47HmXIGh4XBhaRERERERERKQEUAQSERERERERESkBilYEatGiRWjbtm0oKyvLHxERkfqAtnWrrbbKfxMRkVKjZcuWoXXr1vlvIo0DY5Htttsu/02aG9jx22+/fbTrpWEpWhGoTZs2YZ999tFQERGpR+iQ+/fvH4UgEREpTbp06RK6d++e/ybSOLRr1y7sueee+W/S3Nh6662jPa/g3PCUrVu3rl5XVm5IzxwWkSovd0abiEh9QttKW66npYhIacKCrXwcZ0tjYj1s/jQHe546WmwUtQgkIiIiIiIiItIYFKMIpKwqIiIiIiIiIlICKAKJiIiIiIiIiJQARTsdbPXq1WHhwoVhxx13dJ6oiDQ48+d/EN5/f2748MMP80ekmOjQYYew8847hW233TZ/RESKEcaD06fPCEuWLA25IW3xueVLqcBae7kdr3r37hVat25VZ7uJej537rz4Wbt2bf6oNHdatNgqdOy4Uxyv1HUzJNbYYWw6efLUWFdyM5VsFzed3HPbokV52G23HnG3usrag2sCZTSUCLR06dIwZsyYcMABB8SVxUVEGgIa+gULFoS33x4fpk6dkbVFy/IdrBQL9N2dOu0U+vbtHXr06O72syJFzNSpU8Pw4SPD/PkLowhUz8NakXoDEwk7aZtttgoHHbRv6NNn9zrtirRy5crw/vvvh9Gjx4WZM+eENWtyIpBjj+ZLMqe33nqrsOuuu4S99tojG7d0zOrONrkfamD58uVhwoRJYdiwEVldWRfHrdaVTYeyKC8vi5/99x+QjR13j9vaF6IIlFGTCLRmzZr4O+pZ5fNQLfnwW108e6jg48ePD3vvvbcikIg0GLRjjz32eNYGrQ27706n3Dn/ixQTY8eOzozGOVkZ9gwHH3xQ/qiIFBt///s/skH5Ppmh1MPxoDR5sHUWL14Unn76kfCZz3w6q7dd879Uz8yZM8Orr76e/dcyM0IPrpMQIM2DlStXhOHDh4a1a5eFY445OnTtWnt9eeed6eGBBx4NJ530iSq9VmTjQeRBexgy5Olw5JGHhv7998z/kqMYRaAGqxW4o73zzjthxowZMRMLIeMWL14cRR3esNeFNm3ahH333dcOX0QaFAZwM2bMDLvv3jd07Ngpf1SKjX79+oeWLduEDz74IH9ERIqRVatWZ0ZxS8eDUhRgkLdps2305qmr4bhs2fKwaNHicNBBhykAlRgtW7YKhxxyRGYfL8zs57otP8A4lReWTHdXAKofcF5Be1i7Nue00hxosJqxYsWK8Mtf/jJceeWVYeLEifmjOaior776avjOd74Tnn/++TrPdbVii0hjQAdQVvbvHo1SPNB/ML8b914RKV6K8AWslDgMHRCA6l53Obci67Na5L9LKUG5l5e3iPWmrlC3HKPWL80tPxtMRcFomjVrVpgzZ86/LaRKw7ZkyZI4r3vRokXxu4iIyJaFDt1Bkkhx45hRig9NHdk4Nna8YgWTmmmyrjR4Dk2aNCnceeed4eqrrw7XXHNNuO2228Kbb74ZfyuEaWaPPfZYuP7668N1110XHnrooSg2JXetcePGhVdeeSUMHz48ehpxzj333BPmzZsXfxcRERERERERae40SREIT6ApU6aEO+64Izz55JNh5MiRYdSoUeHll18OY8eODcuWLYvnIfJwHoLOI488EoYOHRreeOON8NRTT4VBgwZFIYipZsOGDYtiEtd74oknohjEzmKV1yYSEREREREREWmuNEkRaNWqVVGoQbTZa6+9wiWXXBIuvvjicMIJJ4QuXbqsn5PHlolJAGrXrl0455xzwnnnnRfPufHGG8PgwYPjgtOIQUOGDAmvvfZaaN++fTj//PPDqaeeGnbYYYd4HRERERERERGR5k6TFIFYM4hdwtjpAbGmX79+cSewM888Mxx33HGhQ4cO0Qto6dKlUew58MADw7nnnhuOOOKIcMghh8Tz+PvAAw+E9957L16zdevW4bDDDgs/+MEPwvHHHx8OP/zw0LZt2/ibiIiIiIiIiEhzp0mKQIgzPXr0iFO5Pv/5z8ddxZjG9e67765f5wdvIaaCsa7PtGnTwn333Rf+8pe/xM8tt9wSxR/WFErrB+EdtPvuu7tSuoiIiIiIiIiUJA0qArG//urVq6vcAp71ediyF+8fPkcddVS46qqrwllnnRV3FfvNb34TBaFrr702fPDBB1EMwmOIv9tss03cPg+Bh8+2224bDj744OgRtNNOO8Xrt2zZMt5fRKShWLJkcZg9e2bWZs3PH9kAQvbcuXPDO+9MW79LyIIFH2TnzwqLFi3MHSiAdnPGjOnhtddeCYMHPx9GjhwR5s+fv14YLzbefXdOePDB+8Kzzz6VteW59dlI06OPPhhGjBgev4uI1Ae0xbSfEyeOzz4TwpQpk2N7y8tGycGY+uGH7w9PPfV4eP/9nBf9loA+iz7uzTffCM8993R49dWXwtSpU9av99nQUA8eeODe8MwzT8Qdiosd0jNt2tRY1ydNmhCmT38nzpwo3Hl5woRx4ZFHHsjGEy/njzRNGPcwfho+fGhWV57K4vtS3Ayo8i7TDcV7772bjVv+mdWVJ4t6XdlVq1bHupFrD6v/YH/XZzqpg4xxq7pX4Yf6O2nSxPV5Tfst9U+Lyy677PL8//VCdZ42dLQs7Dxjxowo0OCVk0AYwtNn8uTJ4cQTT4zrALVq1Sp06tQp9OzZMwwYMCBOB8PzBw+fjh07xuN4+eD1w/SuU045JV53zz33DP379w/77LNP2G+//ULnzp3D66+/nnVo74e+ffvGa4mIbCoMSt54Y3jo1q1X2Hbb7fJHq4YBFgMt1ibr33/v/NEcc+bMDk8//Vh47LEHw7HHnhjKy1tk3x8Pzz//TOwoe/XKtZEMmMeNezvceus/soHqPdlg6PU4gHvjjdeydvPRMHPm9LDrrt1D27bbx/Prk2HDXsvaz1figGuXXbrkj9YPM2fOiGlfvHhR1l4fENt8jIE33ng9bLNNy6wt3yt/5pZjzpyZYeuty0Pv3r3yR0Sk2Bg6dFjo0qV72H77dvkj/87Qoa+Ge+65PTz88H1ZO/NiGDLk+Sh2vPXW8NCixVZh5513ztqCbfJnN18w6OhHpk+fGvNru+029GGI8ffff09YuPCDbIzdK3TosGP+l/qDl7gvvPBsuOGGa8OLL/4rTJ06OevThoV//evpzD54J84E6Nixc/7shmH+/Lnr++k99uif5cmWXypi3bq1YcyYUZlNsldo1672vpsXPtOnz8hspz3zR6rnqacey+r6bdnfRzO768Usb5+NY42JE8eFnXbaOSv37cPbb4/K8v+FONbYd98D8iGbFvPmzQ3PPPN4uPnmv2fpGBKFQsY/iEHvvjs7rgVLehoSXuqRv0uXLsnKbt9s3NI6/8uWZ+LEt7NxYc+4JEptLFy4MIwdOz6zp/f5N7ucMSUvIH/+859kdeOZ2BYOHvxcHHvy/aWXBsdjfObOfTfsuONO2TPZKR9681i9ek0YNOjv4e67b8vf47lYPxGDX3rphez7v+Lx8ePHhgUL5se/CECMB2sbbzcUEyeODd277xq1iGKnwTyBttpqq3DkkUdGlZ3duqZOnRqNKYyL8ePHZ4U+JApDiDaIO4g9TPXq3bt3XMvn5JNPDl27ds0qw5JYubkeIhGiDqowHduuu+6aNeB7xOvwkDj1S0QaE96mjh79VjZ4m5Y/soHly5eFyZMnxgFwzpunIg6CGZzhJQMI5LwRufnmv4VRo97K2sddwhFHHBOOOurYcPDBh2dtXd8oCCGkFL7lqy8mT54Ujadp06bkj9QfeEJ98MG8+EaYATEsW7Y0vsXkr4hIfTF37nuxvV25ckU49FDWjzwiaz/7RIEd78ORI9/Kn9m8WbVqZXjllZeiF05lj1PE9yOPPCbrWw4L7dtvmY1T3nrrjfDkk4/Gex9++NFZX3ZcvOeAAfuFHXbYMesL6r8fqw1eoOT61EObjKG5OTCOmDJlUmjduk1mPx0RDjjgoGzs0CUz8p+NdX369OnR9sLDpil7WPACKucp/GGsK0cfTV05Nuy99z5h++3bZ3Ulf2IDgjBKXTnwwENCy5at8keLC2xj1sk95JDDsnw9Kn66desR68OsWTPWH+OD+MKGSvUFM3769dtz/fX33nu/GB/Kunfv3dcf32+/A6IgS/tw0EGHhDZtts1fQeqTBvMEouDZjYst3hGA8AhCvGFL92eeeSYzZCbExZ0PPfTQaMy8+eabWWP1aDwXkQjhaPTo0VlF7RaOOeaYKAghBDENjOO4rM2ePTteh53F8P7BtRRhiGshKvXp00dPIBHZLDbGE+jtt0dnRsaY0KXLrrFjK2T+/Hlh1KgRWVs4PXz2sxfF9gzBBVdZvID22We/sHDhgvDgg/fGgduJJ54azjvv8+HYY0/IOs59139oLxGDeHtJ+4u4xBuzkSPfjG61CEo0y7yx4h7sqohwRPuI4MI5vG3BzTlrwde/TeeNF9POMJK4LtN0GSAwYGYK7nvvzYneTAwi+ctULgwt3uTi1YMwhdE1atTI+AYSb0yuwcCJdpv7kV7y8LDDjowDVoQu7kF+7bvv/jEewOCEKRwIZEzjQDzi/JYtt8niVh7TmOLC/2+99WaMC2+5a3pTpyeQSPFTF08g2uF33pmaGSD9w7e+9b1oxNF+4okyZszI2G5xrJAN7c7orN2ZGL/T7tD+MaYFxGzaMtqusWPHxOvlRPyyuAQBbR19BufQfo0f/3Y00jFsMcQQXhIcnzv3/SiQ0A7Sds6YMS2+EMUIol1N4F3PVGI8ImhTWfKAF6i0g2PH0u+8HeOCNwVepsQFAYy2Hw9M+gmO8WIVDyD6D/oH+hOMvvbtO8R0AtflRQD9FW059+DFRepT1qxZnV13fP4l7QdRgCC/OY93E/QZ9CGEeeyxh6IAdeqpnwgXX/ylsNdeA2JfhwiE99EOO3SI+ZIg/uPHj8vn7ZT4EjjX9reM1wTyjPzi/qksKGtewpD2ypvA0LfNmjUzi9u6fB+O8FQW7434RZqAMsJjdfToEbGPJL/pY/AYIw68pCGNo0ePjL/jlUv/SjmlvKuOLekJhEGNF8Xxx58cLrroS+GAAw4OffvukT0nr4VJk8Zn//eLdZK+f+edO4ZDDjk8hqPeUWeoO5Qz9ZF+vG3bdjFPyG+mlZHX1HHCFsJ4hfEMf5MXGeMc7kOd5NrpGSosP84h7yg/ypL8pIyYmsh9Pv7xT4bPfe7ij9SVHj12i+VV+ExQ3sSdusfLM8qKulQo1vC8pLECf9O4BXGU8CtWfPhv7QhxoL5Q3owpqFM8H9QVnm9gPEV+EXfiwP+8zNpmm1br47h27Zo4bqLcqS/VtQPVUV+eQHwnTrR3Bx10aPyQZuo6Y7Rf/vL364/36bPH+vwgjxif8nzRjnA+ecK1Cr0oKUPSR5nTbuD8kSuHlll+lcfxarp+7959Yr1jut/ll/86fOxjZ8TjCH2dOnWO7Sz5jH6AxyZlRBzSs844lzHh6tUrYznn2rjxsa1iGiTjQ+KXnmmgHcq1x7l2kvMovxTH2mhOnkANJgJxHNc9Ki9izdChQ+OW7aNGjcoaqwXh9NNPD2effXZcwJlGdNw45qs+El555ZWsoN4OI0aMiF5CZ5xxRmZMHR4fPD54/tCYIQRxPQSfkSNHRoODaWF4EuH2RkViOhjfRUQ2lYYSgXA1ZuDxu9/9MoYfOPDLcSCX2ljaNDot3tQwyOU4HRmGxkMP3Ze1nUPigIQ44ObOQJyBGQO022+/KQ7I+DCtjPsyyKYz7tOnX+zQGRy9+OLzcUCPpyWDN0QdBgXc75VXXowiUW7A/3Z0LadjJY60zXTqjz76UJx6waCHeGBM0KG3a9c+duZ1EYGYPoCLMG7Kr79OPEfFeGPEdOq0S+zguccLLzz3b3FhgFHTlAZFIJHip64iEGtg0P4cffTx8RjtJ8bnhAlj47QSvCzTEJZ2h3bk+eefjkZ1MmJpd/DIpN2hzcWAYHrKs88+GdtMRB7aSdo1ptDSTvOS8oknHo7t5YgRb0QDCQMU8NDA8AKmmbz++stZ+EmxzaQNpz2jje7evUfeKMoZnRjjd955S4xT167d4tiaNpW4EmeEFtp0jLVcu9s+CjK5qR7/in0FaSH99Gk9e/aOwsTdd98e2+Bddtkl5hUCEYLAAw/cG8PSRtOW8wKB9TcRAjCcb7vt5pi/xAfvVqZC0xch4tCnYFwhMDEFDM9YPFl3261XTDv5iGjC9SgTwFCjz3n++afidBHygDIgv1etWpHFb9cYhrD8xrohtP+kl3LjXOJBOfXq1Sf2SYmHHro/9r0IX+QdNsJ9990TBYLddusZ40HeUGcoE8qN87k2/TbiA1NkEJqefPKRrO9hjb43s3LlZcd7sS9n+kyh4VmZLS0CzZkzK/Z/CCbUwTZt2mQG+eRYJ+hbyY/KIhB1jbpBvaOc+U6Zkh8dOuwUy5DypO9nSt/BBx8SxwqUAWVLHrGuEgY6gg11hLyjPiJAUR8Q0qhTPENcj7gR7oknHsnqzqQYJ6YFMS4ifzgHUQBPla22oq7gsUZd4QXPBnGFeDGdnrrC2IN0Uo8RSynjJGJRh6saKyAwUGe5Dp4qhWX35JOPxWsi1BCHRx5BnJqdr9et4tQwPL6Zckf+8T9CBLYt+UtdQCxG2Hr88YfjOXjEjRs3NgpMCJDkR2oHqqO+RKCqYNxJHaZsPv3p8/JHN0AbgtiCF196HmjHEHyoA6STsuT5oD2kfgwb9nrBM7sqK4dd1z/vCYQy6gVjwc985nMfERYplweydmfOnDmxfaIOU4+ee+7JrK5MiYIm5Tds2KvZubl8pPyob5Qzz/+SJYuy/O8c2zLui2jFuUyVJB1vvjks1oOcYF2RtSs5B5Oa8szpYJsBXjx//OMfw7333hvX87n11lvDww8/HL7//e9Hrx0yHsXvnHPOyQr/gaxDujv86U9/CnfddVe4+uqrw2mnnfaRB4VG4KKLLgo33XRTuOOOO8Lf//73rGO8M17//PPPzxrqHcMFF1wQfvzjH8cpZSIixQCdFR0qg2oEpLqsz4Axw1oAL7zwTDj22JPCF77wxbhe0EMP/TP88593xjcyvClhgHfvvbdHo6Vfv73Cxz/+qTjQu+22G7MB9dD4xodBV9eu3aPQ0rfvnuG4406MXki5NzIt4qCBzpa3yosWLYgDB9488oaMjvWuu26Ng6GTTvpYuPjiL8dwTGtLg8S6woCCcAhUvCU6++zz4z1+/vMfx4EDxhAdOGtKPProA9ng54Nw1lmfiXFh4CoiAgzyMQoRtTHyEcdpxxh3IiAVjvtp22h3EM1PO42XlBdkbdiOcR0NxGgMv9xal4OzseegzCjoGS699Gvhc5+7JOy330HRc2fNmrXRSMKQuf76q6IR9JnPfDaccMIpUXy5/vorM4NiQowXII5gcNJGIhKcdda58Vw8G1ksH2EKEEgwMGnrCZu8TkgTRtw+++wfLrzwi9kY+AtZu942tv+8GGC8TFuO4IXQjnFNu47BjrHNeh3jx+fEMtpVwNhi/Q7a+cMOOypL38AoLmBw3377zTF/yAcMufvvvyv2Hz169Aynn/7pzKDrFPOQtd6IG8bVTjt1jAYhRhjrv2EEIxbwO9dJ8DL48ccfCf/4x3Uxvaefflb45CfPjobmb37zs2iwIj4Bnv6sI4LXLMb5Jz7xyWy8/7Es7xHFXs0b2rnyX7lyVRRu5s17P8uPnOCEN8a4caOjeEf/CBjot98+KOYbQsrAgV+J/QpG6urVq6LAcN99d2V2zA1hjz32zOyMizL75viYDzfddH3stxsTqhTiHuMI8hvRD48yyrk6rxMMaJ4D6tznPz8w/uVF1B/+8Kssb3L1lBc4lEFOCBgVrw3kCfUUIQWRgjJDmLv55utj2eLNc9ZZ50Xx5he/+HEUCDgO3JfniPzkGTjppNNi+bFWEZ5I1DVETQQ26ht1nLQllixZGr2Gbrjhr1EoOPPMc+L9eM7/+MdfZ2UyZn08C8ctXCuNW3guKFPq6syZM+O5QH1hPMXzyrV57hGYEJHIW2A8deutN8apa3hd0Q586lNnZ3nZPqvTuXOoi/ffn2sHdt21Wzj33M/F/CW9tAM8c/lmoElCPBlD3n33rdEbi3aAqXkjRgyLac+Jex9m+fpwuPHG67I6UpY9r58OZ5zx6Sx0Rfjd736ePbNvrX++6gLlnMtrnsuV8RjCEHXvscceiONIxoO8RERY+9OffhPLleea/OUF6Z13DsraANqf3OLWtDVsSPK3v10d20HCn3LKx2P5XH31H6OQW1i3mjuNskU8DQjiDGv37LbbblH5r0p1Q+zhbQQePCzaV5N7JQ0b5/bq1Suqc4Wqv4hIsUFnyds/mkbeZNTmLsygi0EYU2Ivvvgr4Zxzzo9rLXz7298LzKdn0MJAC3JGT/sozpx33ufigOnMM88NPXvuHt/U8tanW7fu0WjhLVa/fnsUiEAd1revvAHC4PnhD3+WDaROCkcccXT0OGIRR4yICy/8UjbwOyd20v/zP/8X30oxeOctWG0wIMKIuuOOm2M43NoRgYjHF75wSTaAOjUbHD6RDepmxPO32mqbbHByQIzLCSecHOOC8CQiAhgCvJm+445bwm233RQFHQSa7t13W++pmdodjIf+/QfEdof28bjjTsi3O6dEkQbjGIMwZzhvH6fqsvYKa7Ag9LBuCAYzxhEizCWXfDUa1rShZ5xxVmakXBC9gBAu0ppowFgWT6X/9/9+GO/FuVwXb5wkLDCVhTaU/oH1e9KirXiQ8jYdw4bjtP/f+tZ34/QLPJQQvfr06ZuNvzuGLl26fkQESl4VhdCn8JacN+oDB341pot1Wb7+9e/E9pfpICwmm2DaEF6tGIinnfaJLB7nxTxEGEii0oknnpK145+MfdWXvvT5LG+PDd/4xhfDLbf8Y336EBs4/8Ybr83y8fisDL4YDTWmRHN91jK5//6740uSBAITU/0uu+zX8dxPfOJTsd/h5QGLfwMeIxitvDTA6GcNkqog3UOHvpLFZ1KcsvbFL34lriN1/PEnZmm7OBx44KHRCwLh6Utf+kZML+WN+ICogNCBZ0tjwvgBUYN8xnMHQ/3xxx+KAh4CYFVQFxgPMFWP9FLvL7vsl1E4wTuN+o4QglcGHwzuJMThwYNnBh5niIWILrxUYnxw0UWXRiGVMQLPwDHHnBiFuCTOAZ44PXr0yp7J38X7Und5ZogTnr5f/OIF2fGjwze/+eX4/OIpBNQV6sHf/nZVVuZnxhdf1BPSgAjK2OGOO27K4r5h7SPGLYwVfvSjDeMWngu8nHkB9sYbr+bPDPFFFsuXEDfqV2UQDBgzEQfGU6SV5wph6cILL4mCLOtcTZs2LS5Kj0CUaweOj8/2OedcEF+0VW4HmhI8D3iV89Lt0ku/Hp8B8uzssz+T1fnPRFsdjznalxtuuHr9C0iEPAQ9ntn99z843HvvHdG7b3PB+4py/e///mFWl46L9YR6hhBJ3f7qV78Z29lvfOP/ZWPYbjHv8YyjrlCX77rrlqxuXJSVwyWx/Klv55772She//Ofd8Q6UCo0iggEGCGIQXxqIp1XlUhUmY05V0SkGMAoYaBBB1YTdMC83WSdnP32OzB2zIg1vBXp1at3/MugHWgjGQQjxnMeA2jmuu+0007xzTX3S+0zc6r5yyCNT2H7ypsUBtKtWuEmnVujDa8gDCMMIHZEw32a40z3wn2aa/M2pzZ4g8bbN97+4b6L2y/THxgAMphicI97e3rDQ9yJS+vWufnf3NO+QEQSvLmnPUEIwGOFaS94LSAAIZQAQkFqdzBSmVaQ2h28QlK7wzQGphMxfYCpF5dd9r3oAZLzTlwS28zly1k/ZVbWpr4br8UOVFyHD0I57fU770z5SNvO9VjvBDGIdowPb9wRLvDKwaDEkMKwZ/FUXn6mF6R40iA63XTT38KPf/zd8K1vfTn84AffjkYqosqCBfOyeLXIPmWxbaSNpE0nrlVBOugPIC2ESxj+EkeWeMBDIIHAQJ+wzTa5PgVvKF5gsIYbBhogfF1wwRfCtdfeHA1+DPWWLVtHA/Evf7kiTtXhrT99Ffem7X/uuWfWlwHTUfCCynntbDDWeDlB/5Lafz4Y+oDHK/0O22KzCxECGPGnT6oKDHrKi/jj2YFokPKK/pKyx5jEAwkxAkEKbzDix46a1B3We6mtz96SkAbWEvzVry4L11zzp+h1hUCFcZ7qemV4+UM/++c/XxG+971vhm9/+yvhZz/7UfSe+OCDuVl9XhbrDfmHyMhUPX5bu5YXUCNifcEYpz5SfukZGjz4X7H8+OCtyzPES6nUdwNCKh5ViJGUHfnNiyiElWuuuSmuF4M3HnUVcemqq34fvXbwPkHsoq7wjOA1lOoKXsS5aewTYtkncuOWPh8Zt3Dd/v33imWO6IkQDAh91C3Wq8JbujJMJXz33XfjdCOm2aVxF9flf65LvjAVDG8TpjbhtZTaAZ5j4s7UwqYK7RsiCuVJPO+554719R2vb8qY8qQcWIol98w+vb4cEIjwuir06NkcyGsEb16M8kxS33jhhzcmog/fyX/qEmWHqENdwxsuF0fq5ezA+mSpHGgjGbci/NJWlAqNJgJtCkxleOutt8Ljjz8ep5A99FDu8/jjTwTWDUpvGkREmgJbbcXgokXWCeUGwIUwYOeTG4T8+xxkOjg6MI5jLLDwXU3w5o9BHNcq3M2ByzKwYWCCUZLAY4d7J4gngk3uLUjdBq94cXKdQhiU0dET/7ZtN6yZRDxy51asf3tYE7x94o03hhtjaVyDGXDy4R68icQwQWwCRC7eRIuIVAVeDHi9MFWKNda++c3/jm0s0zkmTZoYz8m1O0tiu0Nb9eGHuQX0c+3O8mh80O5giNB+Hn74keFLX/p6ND64znXXXRk9jPBSRKzITXPKGRVMbeE6TFmlrcWzgCkvCO0J2mo8SQrBs4LzMaJmznwniuhMD8PjMa11AXgtMP2KtWx2371fFrdjojcRa++QrhUr/r0fqgmmwtBW03cU3ifXp7SJ4kjhTo6IYhi+CQxgDDL6vySI8DtGOAu/nnRSbrODr33t2+Hoo0+IHhcYxfSLGM5pKg39Vso3ygURAxGiMJ/ob1JfkOAeTElDqCLvuCbG3p577h26dOkW41cV9KN8iGu7dv/uTZqMypznRkU0cHPxWxD7RKahUM8q9+kNCeWFFw15+9Wv/mf48pe/ET0y2HGpOvGL6VisWUP/igcLHjvUH+rkypWr19dj1kPaf/+DYp1CMEHwYq0+xh6UC6S+GwqfIfIVAQZvmcI1vHLl99G8pu7g5cb0I7xKzj//wuiFxvPAmjsIudyDOkidIbsp41RXqHMIg6w/ldaaAsQBRKfK8DwyfZ76gucdccWLjXWieIaqqi88H6xRRVyruiYggNIOIC4Qx8J2gDpGmeTagcarLzVBfafto76Tp4X1nWeQl314UW14ZitimaQ0UjYbntnN3+WLPKvcRtI+cu3CciY7OZd4k/e5urKhHKijKY6ULWtB5UTfmtdmak40eRGICoe4w0LSLMY6d+4HWUPDyvLbZ5+28VNW1jJrhOZkncdrWcc4IhayiEhjw2CLwcH8+XPzRzZAJ8nAgGlZDLIrQ0eEdwsuqrxtYT2Iqt4s0qFxnLezuXUdVsU3bYWkQVLh4C83oPnooINBCNdKt+F7TeOSnJfQR+NOJ0yaEaWYq18Ig58U19ogfgwSyRum+LIuAwu35rbIPy66fjPvHlfqdH5V+SgiArRLeKJgjKTpLvzPNCTEB4zfXLuzfWxLWP+lcrvD+mm0OyzkSvuI0cj0o09/+jPxL15FTBXLLW77TmaYIJZsHddY417pWkwXOf30M2OYXFucg/8rt6msIYInAh4DxJOpNxjWxCcZQwgtLFzMgq1sf8+UmFNO+Vi8F2nGYGc3LNpzPIHqAv0JBjN9BwZfYf+DCILYjxiUIN6VDVm+FvYpCQQ0BDiMa7aAPvTQw6OQj1cBcc1tdlAe8xnP1pRvxxxzQpzq9alPnfORlx1Vtf8ICOQb3l1DhrwQWNCaFyp4bLDIdnWQJtJN+jAQK0O+tGmT20mI/plpZyl+TJNjms9xx52UP7txwCBG7KIeUNeol4gv9M9V9emUJ2utUH5MbUN0YeoeRjGeXbn6kytE0k2dZIoP9ZxweMQwfRzRhR2geOHD35yIs//6/GGqY678zo7PV4L7Fr6UKoTnB69lPJp5hljImvLGswZY94rvu+zSNU6dTPc69tgT8+OEc6KQlajqGQPWXeTlEoICaWIKFIIrIg3prQquyw5gCEY4KlQF7Q7n1dQOkN/EqynCeK1VK56J1tnz2jvWpRR/6leuvp8YRWDSQHtT3TNbWajdFHLj0n/Pq+S1Xgjn5qptRcx/ngtezrLeJUJkiuNxx+XKgamqiNulQtOscXnoeJjz/NZbbJM5OzNkVmWNfsfQr9/eWeO2b+jff7/46dt3r6xgd8gMjA/D5MnvZJ3g6MxgWhAbLRGRxgKBgkEQrrIM0NMbUQYLLASIq/Kee/bPOqp8gALozBiUYKjg+s70AaYDIK7QqfFWI7cg8jPR9ZvOLWeYlMcpCQxKuBeDGO7FPXiLvTEw2MvFd2EcENMmp4FgdSDcsCsOAhfr/yT3XwwjjBeMFt6a1wYDQgaJrNexYgXGxrbxjdOBBx6cDT4PjINN0ssAS0RkY6HNxNMBwwTxhEWak/iTa3dWVNPudMnanZaxPc8J2+vi1CPaataH6dZttyjY8Ka5U6cusT1kCgJGKl4NXIvdHzE48arITJVchKoB4wVPAdpSprsQ1969++anROTaP14GIPYTJ+LYvXuPKLIwtY3pGandxihq02a7+NY+nU/YqkAMSTswvvZabnFnxtWkLTfFZmX0AKgrxAFhDDGGPiWN0ZPXAIbadtvljGX6TQQWvLIoHzxryDemwOFVgIiDsV4T9CGcSz/KOk4sCIzxh5jA9OfqQMBgyhPiETttMdWauPOhTCmvzp27Bha5ZrFl6grCEvHD+4h4k/fFAuliPEEZkNfUK+o4nj25BbhZzPej/T55dNppZ8SyZG0g6tUee7DTGS9ucrujkS8Iq4g0hc9Qrvxq7ruJE+Isay/xjKW6kjx9EJion4xRqAtMBUKo3HHHnJcZ96JMmCLO81yXF0TUF0RJBB92+8Mrihdx1JdCr6VCSC/iF88GU+7SphfEn3Ee6eflG2MV8pTxGOvWVN0ONE14VmjDeI7Ie+LLc5ir7wNifcfjrlMnyrxnVl5Lsvq/w/py4FzaK36v7ZndktCOUe/wAmTqF//vs8++MY6UB+nCS7GpinFbgiabUh54Gl4EoAkTJoW+fffOKtIhWaF1zQroow8zqh2Ldh100BHZQ9YjjB49Lk4bQ9nmQRQRaQzoHBm80xYx75j1JdjikgEG89l5I8EbQwZQVcGAjIUD2Xad3a9YYDS3JeZr8Y0wi0+yQwvztRnA4M7Mm0+20MTtnUEJi0EiIjH45a32xoAB07r1ttH1mkWluScDm5oEdgbwuIozaGJOfm6rzqFxPQ3mxWM0kJ7ayBkrbcIpp3wiM6DejesPkHauxZagbEE6YsSbcVAoIrIp8JYfQwzjBkEdoZt25+STPx4NBdqwDe3Oa/l2Z3gUA/A6Z+chdkFim3IWIOY8pi9heGL4de/ePRxzzElxbRGuxfQSzkFUQdjHyK1sYFcFRgrGJG06xjE7UdHWJhgHd+iwczR0SAdb0SNgDB78XBRekmFDGKY9YDDjYUoceEGRxPpC6FMwolncmT6LHXi4P+vysGsPRhSeInWFfoO033PP7THPyAuuR3zJYwx6FnzFW4XpTOwIxgsU1hchnoTNpSm3JTsGdm0gaOCthXBGH4aXC7tLVtfnAuLE3nvvG702iBv359703a+88lJcTwSvGhaIZucodoXixQvnsIgxfXuaXlgMkBfULcQMREPyKaWFLdcRiCoLlQioeEAhrpC3rP3ENDigriEcIBLR5xeOA8gn1n2i/Grqu1lniLy+9947Y/6nupLb/vuFOL5gvEN9Z+MgvEzw3KGeMk7J1ZWX4ziI44iddYF1iBCpxowZmdXRx7L6fUh2/c7V1hfqLOMddiJlkXTqC88VdYV6wIs6niMEMTxihgx5LsaRuOXymHZgcGwHmqq9mtoMxo/Ud55d2kLi//LLufrOWkEIn5QDC4TzTKR6xDNL+8fuYHV5ZrcUlAN1HO9LFn7PjcM3tMfUUdo1xN9SocVll112ef7/eqGmhnVjoHOdPHlyVjgjsgJj++K2+V+qh3tjNPEwvvDCC1mjtFPWUHx0jrKIyObAW1OmpnbrxkKB1b9NBAazvBFhUMRixo88cn9cjO7FFwdHQ4Mtb089dcN0gDFjRsXB+e6794mu3AyweNOEay1u8og7iCks+MibTQbIuBMzUOHNHG/B+EsHfccdN8dzhg9/PQpRZ555dhRfeOvKgIq3Uhg/XB+4L5034LLNoBB3e+a8Mxh84IG7o+iEKzZvS3gTzNtc3IPZPayQnEdSWQzHlqKsjzFyJGtYnBLflvOWmsVC6XAZ7OOWi6sxHkt4fzIQw/AA8gHvJwZz7KDB1sLEg61/mavPYBwRjOlyfMeoqytz5szM+ofy7Bq98kdEpNgYOnRY6NKle7Vv62HatCnRIEWcOfTQI/NHcwYrxgGeiixmy643tM14NdDuYHA+8ADtzmNZu/NwbHcQ92l3aOMQL2644doo0GPo0DbTprI1MmuRMCbFgELI5hzaLq6DYcw9aZPTtTCMMbj5jphfCOulTJ8+Na5VggfKhRdeGt/MpzE36UC8oH1HZMEgRazh7TZtOUY5axlhBPFh1y/6E/ol2n76GKb9YKTTh2Dw4Z1A+0x7/+abQ8Ndd92a5cPjsX/BUGYXMjw8EJAwvDkfjx3iBRj5bLWO+HPkkewc2S628YgA9IV8yA+MMdp/dtdiVyf+p0yIA33M888Tz9y5lAOiA/fPbQTQOvaDeFphaHP/Qkg38cAwJ2/ZOYj+hesnci+ch8e+moWNST99GEYtni70pYgPxJf1YhCH2KEMrxHqFFv146FF344IQB9GuZL31cE6JfT3AwbgPVP1WjKFcM3p02dk6d4zf6R6ED3YoIE8SsJMZRAGWSSXcQDeOYw1EFTYih0PGMYOY8a8FQ1m0ozYh4cZeQPUO2yrCRPGRk9kBB+m1eChA9RH+nCmLSJEPvjgP9f33Yg5jBuo54yhuD7PHmIdYiegh7BtPyLUo49uqCs8NzwL7ObEFKTcVKXWcYzDmII6zzPIuZQJAifPH3WF54P4stAxZcfxyvDsM6UeEYe698Uvfi1Ld9/1XksLFsyPOwymcQv1j+eJeka9vPPOW6NoxXPFuIT7ci/yjTqxoR0gL3LtAIuM8xvllZ7nqpg48e3Qq1fP7Pmq3cuMNI4dOz6KqjVdM4F3H8IlQhRTtyqDXU35zJgxLXseBsX6gQcYz/LixQuz+PfL4t8vK7/9Y93jmWYh/Fw5PBZFNeoPoizllWCtIURtyokdags9onjhSJ6S19Q/8pgXmsSVhd1pexIs/k65kYfkd4L2mXaHssZjLDdNckCYN++9rJ48EOs65UB8EbJyuwb2qdFzbOLEsVlbw865G6YzFitlWeNcr9JjXSpbXWCh5xdffDnrED6ZNSYb5+5Ph8NbmkceuTd89rPnZYVV+9QDEZG6wBul6677WzbgOTG+/aoNpgqsXr0megMxYCQ8byLpyBlAFIrU/MbgEHfqwuO0aQxgczu8zI/To9q3bxcH27jXcm5qe3mLwb3ee+/9zCBYEg0GxBwGeHRsdPK4dyejIYVL9+B33m5xnP95M547zpoAOWGLsCwASBjiWjighhSO+PI2nb+417PWBtcmPOlkxw7uk+LBNRHZ8PYsTD/358UA0+cwchgMsM0xu3tsvfVWWbi16/OtclxqYvjwV7NB31bh5JMbd/0GEdl0rr762nDggUdmxlj1Yz3aIz6p3SuENoc2Bo8cjMrUJlZudzBYaU9Tu5ONeGOblWvnOGdJbJMRExBeUluUa1tXxakirJ1CW4o4hHFDe5jOo/3nt+raMX4nTqzpQzxJSyHch7YdUYf7MJWFeyTDPO1yxXmpr6Gt5n7EA3IbA+QM/HR98oeXAeyGhaCCOMKHviD1KQhB5FthuMI+hTznOPnFufRRiAfEA8OPviGJPyn/6W/IN/KXMiAOrBWEQZrb2SnX73EP4khcCvuNBOWePJ3oB4lHugek/Kgcf66J5wJeYogwbHTAvfnLvXPhVsZyZVckyoX8pmxJb019Eem6++7bMhvl3GhQ1sb48ePDkCHYRGflj1RPKtvK44hCqnoe+E75klbKCfEPYZXr5XZ82zDOANLwX//1tXifCy64KK7rVBnC8gyRh7m+u228LvWNuHG9FJfK5Ue5Um6Eo/z5notTrq5wforPhrqyJHsWc7vRIbzwPKZnjHM5TrnVNFbI1ffcdPo0bkr3qWrcAsQfQYOlSBCjqAOsY0Sbke6Tex5qbweq49FH7w0nnXR82H336sXFxNSp08I///lQOPfcz6+vzzVBmnNjuor4XFcF8ac8sK+p73iyE3fqSKrvH31m58V8TOVAXqZySOTGiqtjnqaxZaKq57K6Z53zqmo7EfJz7Rm7IOaEHe7J+dQVyoHrIdwzLm/VinRU/cwkHn30vnDUUYeGvff+qMDKdYuNJikCof6NHz8hTJ8+Kxx22HGxUm0sVEJU4AMP3Cf069cnNtoiIpsLncfGiEAJOojcAKQidlKFA4u6QqdIh8Vfwlc3aMh1rGuy89bGDo3Osz7a5o2FtCJKEWcMkFw88j9uJBvStC5eJzcgzf+4iSgCiRQ/dRGBNpW6tDvpHNq5mtp2rsF5WYhorHBefUNccvdZXa9tf3bZeM3U92xK/1VIygsMt9riybmF/R55Vw9JqhPkJ/cmrindxLUQ4oVxSvzTObXBWGBLiUCbQ8pr0k1drpxWQAhgShzeF7/5zU/DV77yn+G0006PXnZVUZdnqCaITy5OdasruXrFM9a4dYX8qyqeKY5ZiBi/utQX2JIi0MZQl/qe6hF/G7oc6sqm1pXmJALVb82oJ2bPnh0++GBhVtH3zDI1f3AjoTCZ0/vOOzOi0ici0pjQYbKYaFVvQ+oKnTlvP2p7a8S1c+d99C1WQ8ObUeKRe5u26QIQbEhTeoOY/0FEZAtRl3YnnVNb2077zRtz+oGqDKf6gHtz7fpu+7lMyodN7b8KSXlRl3hW7vfqKUl1gnhxT8qWOFRlUHOMuJGeLVWuDUXKa9JSVVqBKTl//etfwgMP3BPXpmKaId5v1UEepvLj78aWH3m6MXUld27j15Xq4pniuCXbgS1JXep7qkeNUQ51pTHrSlOhSYpAuMotX/5hYH2LTYXC3WWXrlFMWrrULeNFREREREQ2Fab/sPMWa/ydd94X4hpZeOiISHHRJEWg5EJWVrZ5CikqZG6tiOp3shEREREREZGaYQv1Cy64MHzucxdHMYjFdkWk+GiSIhAwt66+5tcV4TQ9EREREREREZF6pUmKQMyjrGnOZ11BROIypTjPT0RERERERESkkCYpArFAE4uIrl7N1m6bBgIQWzsyJYxFokVERERERERESpkmKQJ17do1dOiwQxg37u38kY2HrZFHjHgjdO/ePXTsuOkLTIuIiIhI00Rvb2nusKxFMW5BLfUJ5W8dkPqjSYpAO+64Y9h++7Zh9uwZcZHojYWGcvXq1eGdd6aGLl06hvbt2+V/ERHZXMpCmzatw4oVH4ZVq1blj0mxsXz58thXsEWoiIhIQ4GeszHLVWy1VW6b9CVLFisGlRhsbrR48eLQsmX1W7JXh1Wlfmlu+dkkRSAauk6dOobOnXcOI0YMDWvWrM7/UjeWL18Whg8fFnr23C16AfHgiIjUB0xVPfDAA8LMme+EWbNmKAQVIQhAY8eOCq1abRV2261H/qiIFCO77to1M5IWZJ9F+SMiTZeVK1eG6dOnZfW2S2aftMwfrRlejvfu3Su88carYeHChZv0glyKD8p5wYIFYdiwl0Pfvn3CDjvskP+lZlq1ahV22aVzmDZtsmPUeoKymD59avYs7tBsdsQrW7duXb3qWvWxoDPgyTNr1qzw/PODs4ayV+jevWdo3bpNjddHHWcQMG3alCzs9PCxj52SPQQdw9ZbuyaQiNQfdAbPPfd8+PDDNVln0DZstdXWvnEpEuhCGIQvWfJB6N+/b+jXr18oL2+S70NEpA5MnTo1jB07IXu2tw5t2mxnWyxNmIrMKF8Z5s+fGwYM2CMKO61bt87/Vj3YN/Pnzw/PPvtc2H77nTMjv3Xst6zrzRfGKngB4XW+aNHccMopJ4cddmhfJzt72bLlYfLkKWHMmPFh5507x/VxrSubQ0Uc98+dOycbM/aOz+3222+f/y1HMXroNVkRCBio07m/+OIrYbfd+oYOHXbKDK7t1jd+CR4SvH+WLVsW3n13VvwcdtihYY89esdFpkVE6hs6hDffHBGmTJmStVW+aSkW6KLatGkT+4jOnTsrAIk0A0aOHBnHi0uWLCvKwbiUBtRNpnZ17dolHH744Rs1HZmw2EXPP/+v6A20Zo3eQM0d6sqOO3YIxx9/fLRnN8bGpq689tprYfbsd6NjhWw6PHtlZRXZmHGXcOihh/ybAASKQBn1KQIBmTpv3rzwyCOPheXLV4WePfuE7t13iw0nRhjzI1esWBkmTRq/3k3rxBNPiGsBiYiIiIiIiIhsCRSBMupbBAIyFhXzvffeDyNHjg4TJkwMixcvCTNnTg89euSmifXvv2fYe+89Q6dOO8epGeXl9R8PERERERERERFQBMrYEiJQAiGIBT1XrFgR3n9/bnjssUfDued+Jrr282Ferev/iIiIiIiIiMiWphhFoKJaDIGFrdq1axc6deoUd/1ide7OnTvFD1vKKwCJiIiIiIiIiFSNK2KKiIiIiIiIiJQAikAiIiIiIiIiIiWAIpCIiIiIiIiISAmgCCQiIiIiIiIiUgIoAomIiIiIiIiIlACKQCIiIiIiIiIiJUDZunXr6nVj+7Kysvx/tTNv3rwwbty4sHDhwvyRurNo0aLw8ssvhxNPPDFss802+aN1o7y8PLRv3z4MGDAgtG3bNn9URERERERERKRuVFTUq5zSIDSqCISQM3369LBs2bL8kbqzYMGC8Pzzz4dPfOIToWXLlvmjdYM4brfddqFnz56hTZs2+aMiIiIiIiIiInVDEShjY0SgzeG9994L99xzT7jkkksUckRERERERESkQSlGEcg1gURERERERERESgBFIBERERERERGREkARSERERERERESkBFAEEhEREREREREpARSBRERERERERERKAEUgEREREREREZESQBFIRERERERERKQEUAQSERERERERESkBFIFEREREREREREoARSARERERERERkRJAEUhEREREREREpARQBBIRERERERERKQEUgURERERERERESgBFIBERERERERGREkARSERERERERESkBFAEEhEREREREREpARSBRERERERERERKAEUgEREREREREZESQBFIRERERERERKQEKEoRaN26deHDDz8Mc+bMCatWrQoVFRX5X0REREREREREpCqKUgRasGBBmDJlSmjfvn0YM2ZMWLp0af4XERERERERERGpiqITgZYsWRImTZoUZs6cGc4888wwevToMHXq1LB8+fL8GSIiIiIiIiIiUpmiEoFWr14dRo0aFWbMmBFOPPHE0Lt373DaaaeFt956KwpDa9asyZ8pIiIiIiIiIiKFFJUINHz48DgVbK+99gq77LJLKC8vD926dQsDBgwI06ZNC2PHjs2fKSIiIiIiIiIihRSNCMS0r/nz54cuXbqEnj17RgEI+NuvX7+w8847h9mzZ4eJEyfG4yIiIiIiIiIisoEmLwKxExjr/0yePDkKPb169QqtWrXK/5qjdevWUQjadttt43nsGiYiIiIiIiIiIhto0iLQ2rVrw8KFC8OwYcPCjjvuGAWgdu3a5X/9KB06dIhrBCEQsUYQC0i7dbyIiIiIiIiISI4mKwLhAbRo0aLw5ptvxu/9+/ePQlBNsE5Qnz59wqpVq+L6QR9++KFCkIiIiIiIiIhIRpMUgRBuli5dGnf8mjJlSjjppJPCDjvskP+1Zlgz6JBDDgnjxo2L4RGCRERERERERERKnSYpAuHJM2HChDBixIhwwQUXxLV+ysrK8r/WDOexdtA555wTnn766TB9+vS4tbyIiIiIiIiISCnTJEUgpnLhxfPxj398owSgRIsWLUL79u3D2WefHV555ZUwfvz4/C8iIiIiIiIiIqVJkxOBhg4dGhYsWBAGDBgQOnXqtNECUAIhqGvXrmHfffcN77zzThgzZkz+FxERERERERGR0qNJiUBjx44N8+fPD507dw677bZb2HrrrfO/bBqEZ6Fo1hNi23i2jxcRERERERERKUWahAjETmCzZs2Ki0Aj2CAAMQ2sPmjbtm3YfffdQ8uWLcPUqVPDu+++m/9FRERERERERKR0aHQRaO3atXEr+JEjR0bhp2fPnqFDhw75X+uHjh07RmGpvLw8vP3222HJkiVuHS8iIiIiIiIiJUWjikB4ALEVPMIMQtDee+8dBZstQbdu3ULv3r3jdDOmna1YsUIhSERERERERERKhkYVgVauXBkXbX799dfDGWecEXbaaaf8L1uG7t27h6OOOioMHjw4zJ49263jRURERERERKRkKFu3bl29usNszG5e06ZNC6NHj47CTLt27TZ5J7CNgelnH3zwQXjhhRfCMcccs8U8j0RERERERESk+VKMs4saVQTCE2j58uVRAGK9noYCIWjhwoVh++233+wdyERERERERESk9FAEymgIbx4RERERERERkcakGEWgJrFFvIiIiIiIiIiIbFkUgURERERERERESgBFIBERERERERGREkARSERERERERESkBKj3haFFRERERERERKTpoSeQiIiIiIiIiEgJoAgkIiIiIiIiIlICKAKJiIiIiIiIiJQAikAiIiIiIiIiIiWAIpCIiIiIiIiISAmgCCQiIiIiIiIiUgIoAomIiIiIiIiIlACKQCIiIiIiIiIiJYAikIiIiIiIiIhICaAIJCIiIiIiIiJSAigCiYiIiIiIiIiUAIpAIiIiIiIiIiIlgCKQiIiIiIiIiEgJoAgkIiIiIiIiIlICKAKJiIiIiIiIiJQAikAiIiIiIiIiIiWAIpCIiIiIiIiISAmgCCQiIiIiIiIiUgIoAomIiIiIiIiIlACKQCIiIiIiIiIiJYAikIiIiIiIiIhICaAIJCIiIiIiIiJSAigCiYiIiIiIiIiUAIpAIiIiIiIiIiIlgCKQiIiIiIiIiEgJoAgkIiIiIiIiIlICKAKJiIiIiIiIiJQAikAiIiIiIiIiIiWAIpCIiIiIiIiISAmgCCQiIiIiIiIiUgIoAomIiIiIiIiIlACKQCIiIiIiIiIiJYAikIiIiIiIiIhICaAIJCIiIiIiIiJSAigCiYiIiIiIiIiUAIpAIiIiIiIiIiIlgCKQiIiIiIiIiEgJoAgkIiIiIiIiIlICKAKJiIiIiIiIiJQAikAiIiIiIiIiIiWAIpCIiIiIiIiISAmgCCQiIiIiIiIiUgIoAomIiIiIiIiIlACKQCIiIiIiIiIiJYAikIiIiIiIiIhICaAIJCIiIiIiIiJSAigCiYiIiIiIiIiUAIpAIiIiIiIiIiIlgCKQiIiIiIiIiEgJoAgkIiIiIiIiIlICKAKJiIiIiIiIiJQAikAiIiIiIiIiIiWAIpCIiIiIiIiISAmgCCQiIiIiIiIiUgIoAomIiIiIiIiIlACKQCIiIiIiIiIiJYAikIiIiIiIiIhICaAIJCIiIiIiIiJSAigCiYiIiIiIiIiUAIpAIiIiIiIiIiIlgCKQiIiIiIiIiEgJoAgkIiIiIiIiIlICKAKJiIiIiIiIiJQAikAiIiIiIiIiIiWAIpCIiIiIiIiISAmgCCQiIiIiIiIiUgIoAomIiIiIiIiIlACKQCIiIiIiIiIiJYAikIiIiIiIiIhICaAIJCIiIiIiIiJSAigCiYiIiIiIiIiUAIpAIiIiIiIiIiIlgCKQiIiIiIiIiEgJoAgkIiIiIiIiIlICKAKJiIiIiIiIiJQAikAiIiIiIiIiIiWAIpCIiIiIiIiISAmgCCQiIiIiIiIiUgIoAomIiIiIiIiIlACKQCIiIiIiIiIiJYAikIiIiIiIiIhICaAIJCIiIiIiIiJSAigCiYiIiIiIiIiUAIpAIiIiIiIiIiIlgCKQiIiIiIiIiEgJoAgkIiIiIiIiItLsCeH/AzfynUrWy2bHAAAAAElFTkSuQmCC;" vertex="1" parent="1">
          <mxGeometry x="1500" y="960" width="1153" height="584" as="geometry" />
        </mxCell>
      </root>
    </mxGraphModel>
  </diagram>
</mxfile>
